<?xml version="1.0" encoding="utf-8"?>
<!-- Generator: Adobe Illustrator 22.1.0, SVG Export Plug-In . SVG Version: 6.00 Build 0)  -->
<svg version="1.1" id="Layer_1" xmlns="http://www.w3.org/2000/svg" xmlns:xlink="http://www.w3.org/1999/xlink" x="0px" y="0px"
	 viewBox="0 0 800 134" style="enable-background:new 0 0 800 134;" xml:space="preserve">
<style type="text/css">
	.st0{fill:#F36C21;}
	.st1{fill:#C64A9B;}
	.st2{fill:#00B3E2;}
	.st3{fill:#273A92;}
	.st4{fill:#D82126;}
	.st5{fill:#EF473E;}
	.st6{fill:#022F32;}
	.st7{fill:#FFC843;}
	.st8{fill:#46B978;}
	.st9{fill:#15A24A;}
	.st10{fill:#0E2616;}
</style>
<g>
	<g>
		<path class="st0" d="M153.6,0c-24.5,0-44.4,19.9-44.4,44.4v44.7c0,24.5,19.9,44.4,44.4,44.4c24.5,0,44.4-19.9,44.4-44.4H175
			c0,11.8-9.5,21.3-21.3,21.3s-21.3-9.5-21.3-21.3V44.4c0-11.8,9.5-21.3,21.3-21.3S175,32.6,175,44.4H198C198,19.9,178.2,0,153.6,0"
			/>
	</g>
	<g>
		<path class="st1" d="M250.6,49.9c-4.9,0-9.7,0.9-14.2,2.8v34.5c0-7.8,6.3-14.2,14.2-14.2c7.8,0,14.2,6.3,14.2,14.2V134h23.1V87.2
			C287.8,66.6,271.1,49.9,250.6,49.9"/>
		<path class="st2" d="M236.4,0.4h-23.1v86.8c0-15.1,9.1-28.7,23.1-34.5V0.4"/>
		<path class="st3" d="M236.4,52.7c-14,5.8-23.1,19.4-23.1,34.5V134h23.1V87.2V52.7"/>
	</g>
	<g>
		<path class="st0" d="M343.1,49.8c-23.2,0-42,18.8-42,42c0,23.6,19,42,43.3,42c12.5,0,22.6-4,33.6-13.4l-15-17.6
			c-6.8,5.8-12.1,7.4-19.1,7.4c-3.4,0.1-6.8-0.8-9.7-2.6l-0.8,0.3l-23.4,9.7c-4.4-5.5-7.3-12-8.4-18.9l23.7-9.8v0
			c0.7-6.4,4.8-12,10.7-14.6c2.1-0.9,4.3-1.4,6.6-1.4c4,0,8,1.4,11.2,3.8c0.1,0.1,0.2,0.2,0.4,0.3l23.2-9.6c1.6,2.2,3,4.6,4.1,7.1
			C374.7,59.5,359.7,49.8,343.1,49.8 M381.5,74.7L381.5,74.7L381.5,74.7 M381.6,74.9L381.6,74.9L381.6,74.9 M381.7,75.1L381.7,75.1
			L381.7,75.1 M381.8,75.3L381.8,75.3L381.8,75.3 M386.4,86.2l-23.3,9.6L386.4,86.2"/>
		<path class="st1" d="M381.5,74.6L381.5,74.6L381.5,74.6 M381.6,74.8l0,0.1L381.6,74.8 M381.6,74.9l0.1,0.2L381.6,74.9 M381.7,75.1
			l0.1,0.1L381.7,75.1 M381.8,75.3l0.1,0.2l4.5,10.7l-4.5-10.7L381.8,75.3 M354.2,77.1L339.9,83l-13.7,5.7l-0.8,0.3
			c-1.1,9.8,3.9,15.2,8.1,18.3c0.2,0.2,0.5,0.3,0.7,0.5l25.7-10.6l3.2-1.3C363.1,95.8,360.3,82.7,354.2,77.1"/>
		<path class="st4" d="M377.4,67.5l-23.2,9.6c6.1,5.6,8.9,18.7,8.9,18.7l23.3-9.6l-4.5-10.7l-0.1-0.2l0,0l-0.1-0.1l0,0l-0.1-0.2l0,0
			l0-0.1l0-0.1l0,0C380.4,72.1,379,69.7,377.4,67.5 M325.4,89l-23.7,9.8c1.1,6.9,4,13.4,8.4,18.9l23.4-9.7l0.8-0.3
			c-0.2-0.2-0.5-0.3-0.7-0.5C329.3,104.2,324.2,98.8,325.4,89"/>
	</g>
	<g>
		<polyline class="st2" points="421,0.4 397.9,0.4 397.9,134 421,134 421,0.4 		"/>
	</g>
	<g>
		<path class="st5" d="M493,49.7h-32.8c-14.8,0-26.8,12-26.8,26.8c0,14.8,12,26.8,26.8,26.8H474c2,0,3.7,1.6,3.7,3.7
			c0,2-1.6,3.7-3.7,3.7h-32.8v23.1h33.1c14.7-0.2,26.5-12.2,26.4-27c-0.1-14.7-12.1-26.6-26.8-26.6h-13.8c-2,0-3.7-1.7-3.7-3.7
			c0-2,1.7-3.7,3.7-3.7H493L493,49.7"/>
	</g>
	<g>
		<path class="st0" d="M553.4,49.8c-23.2,0-42,18.8-42,42c0,23.6,19,42,43.3,42c12.5,0,22.6-4,33.6-13.4l-15-17.6
			c-6.8,5.8-12.1,7.4-19.1,7.4c-3.4,0.1-6.8-0.8-9.7-2.6l-0.8,0.3l-23.4,9.7c-4.4-5.5-7.3-12-8.4-18.9l23.7-9.8v0
			c0.7-6.4,4.8-12,10.7-14.6c2.1-0.9,4.3-1.4,6.6-1.4c4,0,8,1.4,11.2,3.8c0.1,0.1,0.2,0.2,0.4,0.3l23.2-9.6c1.6,2.2,3,4.6,4.1,7.1
			C585,59.5,569.9,49.8,553.4,49.8 M591.8,74.7L591.8,74.7L591.8,74.7 M591.8,74.9L591.8,74.9L591.8,74.9 M591.9,75.1L591.9,75.1
			L591.9,75.1 M592,75.3L592,75.3L592,75.3 M596.6,86.2l-23.3,9.6L596.6,86.2"/>
		<path class="st1" d="M591.7,74.6L591.7,74.6L591.7,74.6 M591.8,74.8l0,0.1L591.8,74.8 M591.9,74.9l0.1,0.2L591.9,74.9 M591.9,75.1
			l0.1,0.1L591.9,75.1 M592,75.3l0.1,0.2l4.5,10.7l-4.5-10.7L592,75.3 M564.4,77.1L550.2,83l-13.7,5.7l-0.8,0.3
			c-1.1,9.8,3.9,15.2,8.1,18.3c0.2,0.2,0.5,0.3,0.7,0.5l25.7-10.6l3.2-1.3C573.3,95.8,570.6,82.7,564.4,77.1"/>
		<path class="st4" d="M587.6,67.5l-23.2,9.6c6.1,5.6,8.9,18.7,8.9,18.7l23.3-9.6l-4.5-10.7l-0.1-0.2l0,0l-0.1-0.1l0,0l-0.1-0.2l0,0
			l0-0.1l0-0.1l0,0C590.6,72.1,589.2,69.7,587.6,67.5 M535.6,89l-23.7,9.8c1.1,6.9,4,13.4,8.4,18.9l23.4-9.7l0.8-0.3
			c-0.2-0.2-0.5-0.3-0.7-0.5C539.6,104.2,534.5,98.8,535.6,89"/>
	</g>
	<g>
		<path class="st5" d="M690.3,49.8h-23.1v4.5c14.2,7.2,23.1,21.7,23.1,37.5V49.8 M690.3,91.8c0,15.9-8.9,30.4-23.1,37.5v4.5h23.1
			V91.8"/>
		<path class="st2" d="M648.3,49.8c-17.4,0-33,10.7-39.2,26.9c-6.3,16.2-1.9,34.6,11,46.3c12.9,11.7,31.6,14.2,47.1,6.4V91.8
			c0,7.7-4.6,14.6-11.7,17.5c-7.1,2.9-15.2,1.3-20.6-4.1c-5.4-5.4-7-13.6-4.1-20.6c2.9-7.1,9.8-11.7,17.5-11.7
			c10.4,0,18.9,8.5,18.9,18.9V54.3C661.4,51.3,654.9,49.8,648.3,49.8"/>
		<path class="st6" d="M667.2,54.3v37.5v37.5c14.2-7.2,23.1-21.7,23.1-37.5l0,0C690.3,76,681.4,61.5,667.2,54.3"/>
	</g>
</g>
</svg>
