<?xml version="1.0" encoding="utf-8"?>
<!-- Generator: Adobe Illustrator 22.1.0, SVG Export Plug-In . SVG Version: 6.00 Build 0)  -->
<svg version="1.1" xmlns="http://www.w3.org/2000/svg" xmlns:xlink="http://www.w3.org/1999/xlink" x="0px" y="0px"
	 viewBox="0 0 533 94.5" style="enable-background:new 0 0 533 94.5;" xml:space="preserve">
<style type="text/css">
	.st0{fill:#FFC843;}
	.st1{fill:#46B978;}
	.st2{fill:#15A24A;}
	.st3{fill:#EF473E;}
	.st4{fill:#00B3E2;}
	.st5{fill:#022F32;}
	.st6{fill:#C64A9B;}
	.st7{fill:#273A92;}
	.st8{fill:#0E2616;}
	.st9{fill:#F36C21;}
	.st10{fill:#D82126;}
	.st11{display:none;}
	.st12{display:inline;}
	.st13{fill:#0B361D;}
	.st14{fill:#163056;}
	.st15{fill:#1F572B;}
	.st16{fill:#028C45;}
	.st17{fill:#DA2E2E;}
	.st18{fill:#072029;}
	.st19{fill:#204B24;}
</style>
<g id="Layer_1">
	<g id="Layer_5">
	</g>
</g>
<g id="WashingtonDC" class="st11">
	<g class="st12">
		<g>
			<g>
				<path class="st3" d="M28.7,1.3L28.7,1.3v43.6c0,4.4-3.5,7.9-7.9,7.9c-4.4,0-7.9-3.5-7.9-7.9V1.3H2.1v43.6
					c0,7.6,4.6,14.4,11.6,17.3c7,2.9,15.1,1.2,20.4-4.2c-3.5-3.5-5.4-8.2-5.4-13.1V1.3"/>
				<path class="st1" d="M66.1,1.3H55.3v43.6c0,4.4-3.5,7.9-7.9,7.9c-4.4,0-7.9-3.5-7.9-7.9V1.3v43.6c0,4.9-1.9,9.6-5.4,13.1
					c5.3,5.4,13.4,7.1,20.4,4.2c7-2.9,11.6-9.7,11.6-17.3L66.1,1.3"/>
				<path class="st13" d="M39.5,1.3H28.7v43.6c0,4.9,1.9,9.6,5.4,13.1c3.5-3.5,5.4-8.2,5.4-13.1V1.3"/>
			</g>
			<g>
				<path class="st3" d="M111.5,24.5h-10.8v2.1c6.6,3.3,10.8,10.1,10.8,17.5V24.5 M111.5,44.1c0,7.4-4.2,14.2-10.8,17.5v2.1h10.8
					V44.1"/>
				<path class="st4" d="M91.9,24.5c-8.1,0-15.4,5-18.3,12.6s-0.9,16.1,5.1,21.6c6,5.4,14.8,6.6,22,3V44.1c0,3.6-2.2,6.8-5.5,8.2
					c-3.3,1.4-7.1,0.6-9.6-1.9c-2.5-2.5-3.3-6.3-1.9-9.6c1.4-3.3,4.6-5.5,8.2-5.5c4.9,0,8.8,4,8.8,8.8V26.6
					C98,25.2,95,24.4,91.9,24.5"/>
				<path class="st5" d="M100.7,26.6v17.5v17.5c6.6-3.3,10.8-10.1,10.8-17.5l0,0C111.5,36.7,107.3,29.9,100.7,26.6"/>
			</g>
			<g>
				<path class="st3" d="M145.1,24.4h-15.3c-6.9,0-12.5,5.6-12.5,12.5s5.6,12.5,12.5,12.5h6.4c0.9,0,1.7,0.8,1.7,1.7
					c0,0.9-0.8,1.7-1.7,1.7h-15.3v10.8h15.5c6.9-0.1,12.4-5.7,12.3-12.6s-5.6-12.4-12.5-12.4h-6.4c-1,0-1.7-0.8-1.7-1.7
					c0-1,0.8-1.7,1.7-1.7h15.3L145.1,24.4"/>
			</g>
			<g>
				<path class="st6" d="M171.9,24.5c-2.3,0-4.5,0.4-6.6,1.3v16.1c0-3.7,3-6.6,6.6-6.6c3.7,0,6.6,3,6.6,6.6v21.8h10.8V41.9
					C189.3,32.3,181.5,24.5,171.9,24.5"/>
				<path class="st4" d="M165.3,1.4h-10.8v40.5c0-7,4.3-13.4,10.8-16.1V1.4"/>
				<path class="st7" d="M165.3,25.8c-6.5,2.7-10.8,9-10.8,16.1v21.8h10.8V41.9V25.8"/>
			</g>
			<g>
				<polyline class="st4" points="207.2,24.5 196.4,24.5 196.4,63.7 207.2,63.7 207.2,24.5 				"/>
				<polyline class="st3" points="207.2,1.5 196.4,1.5 196.4,12.9 207.2,12.9 207.2,1.5 				"/>
			</g>
			<g>
				<path class="st6" d="M225.1,24.4h-10.8v39.2v-22c0-7,4.3-13.3,10.8-16V24.4"/>
				<path class="st1" d="M231.5,24.4c-2.2,0-4.4,0.4-6.5,1.3v16c0-3.6,2.9-6.5,6.5-6.5s6.5,2.9,6.5,6.5v22h10.8v-22
					C248.7,32.1,241,24.4,231.5,24.4"/>
				<path class="st14" d="M225.1,25.7c-6.5,2.6-10.8,9-10.8,16v22h10.8V25.7"/>
			</g>
			<g>
				<path class="st3" d="M274.6,24.5c-7.5,0-14.3,4.3-17.6,11c-3.3,6.7-2.5,14.7,2.1,20.6c2.3-2.1,5.3-3.2,8.3-3.2h7.1
					c-4.9,0-8.8-4-8.8-8.8s4-8.8,8.8-8.8c4.9,0,8.8,4,8.8,8.8l0,0V35c0-2.5,0.9-5,2.6-6.9C282.7,25.7,278.7,24.4,274.6,24.5"/>
				<path class="st4" d="M299.4,24.5H294c-2.8,0-5.5,1.1-7.5,3.1c-0.2,0.2-0.4,0.4-0.5,0.6c5.2,3.7,8.2,9.6,8.2,15.9l0,0v-8.8h5.2
					V24.5 M293.4,49.6c-2.5,8.3-10.1,14-18.8,14l0,0C283.3,63.6,290.9,58,293.4,49.6 M259.1,56.1c-3.8,3.5-5.2,8.9-3.3,13.7
					c1.8,4.8,6.5,8,11.6,8h14.3c0.9,0,1.7,0.8,1.7,1.7s-0.8,1.7-1.7,1.7h-12.5V92h12.5c6.9,0,12.5-5.6,12.5-12.5
					c0-6.9-5.6-12.5-12.5-12.5h-14.3c-0.9,0-1.7-0.8-1.7-1.7c0-0.9,0.8-1.7,1.7-1.7h7.1C268.6,63.7,262.9,60.9,259.1,56.1"/>
				<path class="st5" d="M286,28.1c-1.7,1.9-2.6,4.4-2.6,6.9v9.1c0,4.9-4,8.8-8.8,8.8h-7.1c-3.1,0-6,1.1-8.3,3.2
					c3.7,4.8,9.4,7.6,15.5,7.6l0,0c8.5,0,16.1-5.5,18.7-13.6C295.9,41.9,292.9,33.1,286,28.1"/>
			</g>
			<g>
				<path class="st9" d="M317.7,1.3H307v23.1h10.8V1.3 M317.7,35.2H307v17.9c0,5.8,4.7,10.5,10.5,10.5h5.4V52.9h-5.2V35.2"/>
				<path class="st1" d="M322.9,24.4h-5.2v10.8h5.2V24.4 M307,24.4h-3.1v10.8h3.1V24.4"/>
				<polyline class="st15" points="317.7,24.4 307,24.4 307,35.2 317.7,35.2 317.7,24.4 				"/>
			</g>
			<g>
				<path class="st0" d="M347.8,24.4c-7.9,0-15.1,4.8-18.1,12.1c-3,7.3-1.4,15.8,4.2,21.4s14,7.3,21.4,4.2
					c7.3-3,12.1-10.2,12.1-18.1C367.4,33.2,358.7,24.4,347.8,24.4 M347.8,52.9c-3.6,0-6.8-2.2-8.2-5.5c-1.4-3.3-0.6-7.1,1.9-9.6
					c2.5-2.5,6.3-3.3,9.6-1.9c3.3,1.4,5.5,4.6,5.5,8.2C356.7,48.9,352.7,52.9,347.8,52.9"/>
			</g>
			<g>
				<path class="st6" d="M384.4,24.4h-10.8v39.2v-22c0-7,4.3-13.3,10.8-16V24.4"/>
				<path class="st1" d="M390.9,24.4c-2.2,0-4.4,0.4-6.5,1.3v16c0-3.6,2.9-6.5,6.5-6.5s6.5,2.9,6.5,6.5v22h10.8v-22
					C408.1,32.1,400.4,24.4,390.9,24.4"/>
				<path class="st14" d="M384.4,25.7c-6.5,2.6-10.8,9-10.8,16v22h10.8V25.7"/>
			</g>
			<g>
				<path class="st1" d="M463.6,1.3h-19.2c5.6,0,10.1,4.5,10.1,10.1v0.7h9.1c5.1,0,9.2,4.1,9.2,9.2v22.4c0,5.1-4.1,9.2-9.2,9.2h-9.1
					v10.8h-10.8h19.9c11,0,19.9-8.9,20-20V21.3C483.6,10.3,474.6,1.4,463.6,1.3"/>
				<polyline class="st6" points="454.5,12.1 443.7,12.1 443.7,52.9 454.5,52.9 454.5,12.1 				"/>
				<path class="st14" d="M444.4,1.3h-5.4v10.8h15.5v-0.7C454.5,5.9,450,1.3,444.4,1.3 M454.5,52.9h-10.8v10.8h10.8V52.9"/>
			</g>
			<g>
				<path class="st9" d="M511.4,1.2c-11.4,0-20.7,9.3-20.7,20.7v20.9c0,11.4,9.3,20.7,20.7,20.7s20.7-9.3,20.7-20.7h-10.8
					c0,5.5-4.5,9.9-9.9,9.9c-5.5,0-9.9-4.5-9.9-9.9V21.9c0-5.5,4.5-9.9,9.9-9.9c5.5,0,9.9,4.5,9.9,9.9h10.8
					C532.2,10.5,522.9,1.2,511.4,1.2"/>
			</g>
		</g>
	</g>
</g>
<g id="Seatlle" class="st11">
	<g class="st12">
		<g>
			<g>
				<path class="st3" d="M21-0.4C10.7-0.4,2.6,7,2.1,16.9c-0.3,6.3,2.5,14.9,17.1,20c10,3.4,9.8,7.7,9.7,9.1c-0.2,3.9-3.5,6.7-8,6.7
					c-5.3,0-7.5-2.6-8.3-4.9L2.5,51.7c1.1,2.8,5.5,12,18.6,12c10.4,0,18.5-7.4,18.9-17.2c0.3-6.3-2.5-14.9-17.1-20
					c-10-3.4-9.8-7.7-9.7-9.1c0.2-3.9,3.5-6.7,8-6.7c5.3,0,7.5,2.6,8.3,4.9l10.3-3.9C38.6,8.8,34.1-0.4,21-0.4"/>
			</g>
			<g>
				<path class="st9" d="M65.8,24.5c-10.8,0-19.6,8.8-19.6,19.6c0,11,8.9,19.6,20.2,19.6c5.8,0,10.5-1.9,15.7-6.2l-7-8.2
					c-3.2,2.7-5.7,3.5-8.9,3.5c-1.6,0.1-3.2-0.4-4.5-1.2l-0.4,0.1l-10.9,4.5c-2-2.6-3.4-5.6-3.9-8.8l11.1-4.6v0c0.3-3,2.2-5.6,5-6.8
					c1-0.4,2-0.6,3.1-0.6c1.9,0,3.7,0.6,5.2,1.8c0.1,0,0.1,0.1,0.2,0.1l10.8-4.5c0.7,1,1.4,2.2,1.9,3.3C80.5,29,73.5,24.4,65.8,24.5
					 M83.7,36.1L83.7,36.1L83.7,36.1 M83.7,36.2L83.7,36.2L83.7,36.2 M83.8,36.2L83.8,36.2L83.8,36.2 M83.8,36.3L83.8,36.3
					L83.8,36.3 M86,41.4l-10.9,4.5L86,41.4"/>
				<path class="st6" d="M83.7,36L83.7,36L83.7,36 M83.7,36.1L83.7,36.1L83.7,36.1 M83.7,36.2L83.7,36.2L83.7,36.2 M83.8,36.3
					L83.8,36.3L83.8,36.3 M83.8,36.3L83.8,36.3l2.1,5.1L83.8,36.3L83.8,36.3 M71,37.2l-6.7,2.8l-6.4,2.6l-0.4,0.2
					c-0.5,4.6,1.8,7.1,3.8,8.5c0.1,0.1,0.2,0.2,0.3,0.2l12-5l1.5-0.6C75.1,45.9,73.8,39.8,71,37.2"/>
				<path class="st10" d="M81.8,32.7L71,37.2c2.9,2.6,4.1,8.7,4.2,8.7L86,41.4l-2.1-5l0-0.1l0,0l0-0.1l0,0l0-0.1l0,0l0-0.1l0,0l0,0
					C83.2,34.9,82.5,33.8,81.8,32.7 M57.5,42.7l-11.1,4.6c0.5,3.2,1.9,6.3,3.9,8.8l10.9-4.5l0.4-0.1c-0.1-0.1-0.2-0.1-0.3-0.2
					C59.4,49.8,57,47.3,57.5,42.7"/>
			</g>
			<g>
				<path class="st3" d="M129.7,24.5h-10.8v2.1c6.6,3.3,10.8,10.1,10.8,17.5V24.5 M129.7,44.1c0,7.4-4.2,14.2-10.8,17.5v2.1h10.8
					V44.1"/>
				<path class="st4" d="M110.1,24.5c-8.1,0-15.4,5-18.3,12.6s-0.9,16.1,5.1,21.6c6,5.4,14.8,6.6,22,3V44.1c0,3.6-2.2,6.8-5.5,8.2
					c-3.3,1.4-7.1,0.6-9.6-1.9c-2.5-2.5-3.3-6.3-1.9-9.6c1.4-3.3,4.6-5.5,8.2-5.5c4.9,0,8.8,4,8.8,8.8V26.6
					C116.2,25.2,113.1,24.4,110.1,24.5"/>
				<path class="st5" d="M118.9,26.6v17.5v17.5c6.6-3.3,10.8-10.1,10.8-17.5l0,0C129.7,36.7,125.5,29.9,118.9,26.6"/>
			</g>
			<g>
				<path class="st9" d="M148.9,1.3h-10.8v23.1h10.8V1.3 M148.9,35.2h-10.8v17.9c0,5.8,4.7,10.5,10.5,10.5h5.4V52.9h-5.2V35.2"/>
				<path class="st1" d="M154.1,24.4h-5.2v10.8h5.2V24.4 M138.1,24.4H135v10.8h3.1V24.4"/>
				<polyline class="st15" points="148.9,24.4 138.1,24.4 138.1,35.2 148.9,35.2 148.9,24.4 				"/>
			</g>
			<g>
				<path class="st9" d="M172.4,1.3h-10.8v23.1h10.8V1.3 M172.4,35.2h-10.8v17.9c0,5.8,4.7,10.5,10.5,10.5h5.4V52.9h-5.2V35.2"/>
				<path class="st1" d="M177.6,24.4h-5.2v10.8h5.2V24.4 M161.7,24.4h-3.1v10.8h3.1V24.4"/>
				<polyline class="st15" points="172.4,24.4 161.7,24.4 161.7,35.2 172.4,35.2 172.4,24.4 				"/>
			</g>
			<g>
				<polyline class="st4" points="194.6,1.4 183.8,1.4 183.8,63.7 194.6,63.7 194.6,1.4 				"/>
			</g>
			<g>
				<path class="st9" d="M220.4,24.5c-10.8,0-19.6,8.8-19.6,19.6c0,11,8.9,19.6,20.2,19.6c5.8,0,10.5-1.9,15.7-6.2l-7-8.2
					c-3.2,2.7-5.7,3.5-8.9,3.5c-1.6,0.1-3.2-0.4-4.5-1.2l-0.4,0.1L205,56.1c-2-2.6-3.4-5.6-3.9-8.8l11.1-4.6v0c0.3-3,2.2-5.6,5-6.8
					c1-0.4,2-0.6,3.1-0.6c1.9,0,3.7,0.6,5.2,1.8c0.1,0,0.1,0.1,0.2,0.1l10.8-4.5c0.7,1,1.4,2.2,1.9,3.3
					C235.2,29,228.2,24.4,220.4,24.5 M238.4,36.1L238.4,36.1L238.4,36.1 M238.4,36.2L238.4,36.2L238.4,36.2 M238.4,36.2L238.4,36.2
					L238.4,36.2 M238.5,36.3L238.5,36.3L238.5,36.3 M240.6,41.4l-10.9,4.5L240.6,41.4"/>
				<path class="st6" d="M238.3,36L238.3,36L238.3,36 M238.4,36.1L238.4,36.1L238.4,36.1 M238.4,36.2L238.4,36.2L238.4,36.2
					 M238.4,36.3L238.4,36.3L238.4,36.3 M238.5,36.3L238.5,36.3l2.1,5.1L238.5,36.3L238.5,36.3 M225.6,37.2l-6.7,2.8l-6.4,2.6
					l-0.4,0.2c-0.5,4.6,1.8,7.1,3.8,8.5c0.1,0.1,0.2,0.2,0.3,0.2l12-5l1.5-0.6C229.8,45.9,228.5,39.8,225.6,37.2"/>
				<path class="st10" d="M236.4,32.7l-10.8,4.5c2.9,2.6,4.1,8.7,4.2,8.7l10.9-4.5l-2.1-5l0-0.1l0,0l0-0.1l0,0l0-0.1l0,0l0-0.1l0,0
					l0,0C237.8,34.9,237.2,33.8,236.4,32.7 M212.2,42.7l-11.1,4.6c0.5,3.2,1.9,6.3,3.9,8.8l10.9-4.5l0.4-0.1
					c-0.1-0.1-0.2-0.1-0.3-0.2C214,49.8,211.6,47.3,212.2,42.7"/>
			</g>
		</g>
	</g>
</g>
<g id="SanFrancisco" class="st11">
	<g class="st12">
		<g>
			<g>
				<path class="st3" d="M17.9-0.4C7.6-0.4-0.6,7-1,16.9c-0.3,6.3,2.5,14.9,17.1,20c10,3.4,9.8,7.7,9.7,9.1c-0.2,3.9-3.5,6.7-8,6.7
					c-5.3,0-7.5-2.6-8.3-4.9l-10.3,3.9c1.1,2.8,5.5,12,18.6,12c10.4,0,18.5-7.4,18.9-17.2c0.3-6.3-2.5-14.9-17.1-20
					c-10-3.4-9.8-7.7-9.7-9.1c0.2-3.9,3.5-6.7,8-6.7c5.3,0,7.5,2.6,8.3,4.9l10.3-3.9C35.4,8.8,31-0.4,17.9-0.4"/>
			</g>
			<g>
				<path class="st3" d="M82.3,24.5H71.5v2.1c6.6,3.3,10.8,10.1,10.8,17.5V24.5 M82.3,44.1c0,7.4-4.2,14.2-10.8,17.5v2.1h10.8V44.1"
					/>
				<path class="st4" d="M62.7,24.5c-8.1,0-15.4,5-18.3,12.6s-0.9,16.1,5.1,21.6c6,5.4,14.8,6.6,22,3V44.1c0,3.6-2.2,6.8-5.5,8.2
					c-3.3,1.4-7.1,0.6-9.6-1.9c-2.5-2.5-3.3-6.3-1.9-9.6c1.4-3.3,4.6-5.5,8.2-5.5c4.9,0,8.8,4,8.8,8.8V26.6
					C68.8,25.2,65.8,24.4,62.7,24.5"/>
				<path class="st5" d="M71.5,26.6v17.5v17.5c6.6-3.3,10.8-10.1,10.8-17.5l0,0C82.3,36.7,78.1,29.9,71.5,26.6"/>
			</g>
			<g>
				<path class="st6" d="M100.2,24.4H89.4v39.2v-22c0-7,4.3-13.3,10.8-16V24.4"/>
				<path class="st1" d="M106.6,24.4c-2.2,0-4.4,0.4-6.5,1.3v16c0-3.6,2.9-6.5,6.5-6.5s6.5,2.9,6.5,6.5v22h10.8v-22
					C123.8,32.1,116.1,24.4,106.6,24.4"/>
				<path class="st14" d="M100.2,25.7c-6.5,2.6-10.8,9-10.8,16v22h10.8V25.7"/>
			</g>
			<g>
				<path class="st0" d="M156.6,19.6L156.6,19.6v44h10.8V36.3C160.8,33.3,156.6,26.8,156.6,19.6"/>
				<path class="st4" d="M167.3,19.6L167.3,19.6v16.7c2.4,1.1,4.9,1.6,7.5,1.6h19.9V27.1h-19.9C170.7,27.1,167.4,23.8,167.3,19.6"/>
				<path class="st16" d="M194.8,1.3h-19.9c-8.6,0-16.1,6-17.9,14.4s2.5,17,10.4,20.5V19.6c0-4.1,3.4-7.5,7.5-7.5h19.9V1.3"/>
			</g>
			<g>
				<path class="st6" d="M212.7,24.4h-10.8v39.2V39c0-6.6,4.4-12.4,10.8-14.1V24.4"/>
				<path class="st4" d="M216.5,24.4c-1.3,0-2.6,0.2-3.8,0.5V39c0-1.5,0.9-2.9,2.4-3.5c1.4-0.6,3.1-0.3,4.2,0.8l7.6-7.6
					C224.1,26,220.4,24.4,216.5,24.4"/>
				<path class="st7" d="M212.7,24.9c-6.4,1.7-10.8,7.5-10.8,14.1v24.6h10.8V24.9"/>
			</g>
			<g>
				<path class="st3" d="M270.5,24.5h-10.8v2.1c6.6,3.3,10.8,10.1,10.8,17.5V24.5 M270.5,44.1c0,7.4-4.2,14.2-10.8,17.5v2.1h10.8
					V44.1"/>
				<path class="st4" d="M250.9,24.5c-8.1,0-15.4,5-18.3,12.6s-0.9,16.1,5.1,21.6c6,5.4,14.8,6.6,22,3V44.1c0,3.6-2.2,6.8-5.5,8.2
					c-3.3,1.4-7.1,0.6-9.6-1.9c-2.5-2.5-3.3-6.3-1.9-9.6c1.4-3.3,4.6-5.5,8.2-5.5c4.9,0,8.8,4,8.8,8.8V26.6
					C257,25.2,254,24.4,250.9,24.5"/>
				<path class="st5" d="M259.8,26.6v17.5v17.5c6.6-3.3,10.8-10.1,10.8-17.5l0,0C270.5,36.7,266.4,29.9,259.8,26.6"/>
			</g>
			<g>
				<path class="st6" d="M288.4,24.4h-10.8v39.2v-22c0-7,4.3-13.3,10.8-16V24.4"/>
				<path class="st1" d="M294.9,24.4c-2.2,0-4.4,0.4-6.5,1.3v16c0-3.6,2.9-6.5,6.5-6.5s6.5,2.9,6.5,6.5v22h10.8v-22
					C312.1,32.1,304.4,24.4,294.9,24.4"/>
				<path class="st14" d="M288.4,25.7c-6.5,2.6-10.8,9-10.8,16v22h10.8V25.7"/>
			</g>
			<g>
				<path class="st9" d="M338,24.3c-8.9,0-16.6,6-18.9,14.5s1.4,17.6,9.1,22.1s17.4,3.2,23.7-3.1l-7.6-7.6c-2.5,2.5-6.3,3.3-9.6,1.9
					c-3.3-1.4-5.5-4.6-5.5-8.2s2.2-6.8,5.5-8.2c3.3-1.4,7.1-0.6,9.6,1.9l7.6-7.6C348.1,26.4,343.2,24.3,338,24.3"/>
			</g>
			<g>
				<polyline class="st4" points="367.5,24.5 356.7,24.5 356.7,63.7 367.5,63.7 367.5,24.5 				"/>
				<polyline class="st3" points="367.5,1.5 356.7,1.5 356.7,12.9 367.5,12.9 367.5,1.5 				"/>
			</g>
			<g>
				<path class="st3" d="M401.1,24.4h-15.3c-6.9,0-12.5,5.6-12.5,12.5s5.6,12.5,12.5,12.5h6.4c0.9,0,1.7,0.8,1.7,1.7
					c0,0.9-0.8,1.7-1.7,1.7H377v10.8h15.5c6.9-0.1,12.4-5.7,12.3-12.6s-5.6-12.4-12.5-12.4h-6.4c-1,0-1.7-0.8-1.7-1.7
					c0-1,0.8-1.7,1.7-1.7h15.3L401.1,24.4"/>
			</g>
			<g>
				<path class="st9" d="M429.3,24.3c-8.9,0-16.6,6-18.9,14.5s1.4,17.6,9.1,22.1s17.4,3.2,23.7-3.1l-7.6-7.6
					c-2.5,2.5-6.3,3.3-9.6,1.9c-3.3-1.4-5.5-4.6-5.5-8.2s2.2-6.8,5.5-8.2c3.3-1.4,7.1-0.6,9.6,1.9l7.6-7.6
					C439.5,26.4,434.5,24.3,429.3,24.3"/>
			</g>
			<g>
				<path class="st0" d="M466.8,24.4c-7.9,0-15.1,4.8-18.1,12.1c-3,7.3-1.4,15.8,4.2,21.4s14,7.3,21.4,4.2
					c7.3-3,12.1-10.2,12.1-18.1C486.4,33.2,477.6,24.4,466.8,24.4 M466.8,52.9c-3.6,0-6.8-2.2-8.2-5.5c-1.4-3.3-0.6-7.1,1.9-9.6
					c2.5-2.5,6.3-3.3,9.6-1.9c3.3,1.4,5.5,4.6,5.5,8.2C475.6,48.9,471.6,52.9,466.8,52.9"/>
			</g>
		</g>
	</g>
</g>
<g id="Portland" class="st11">
	<g class="st12">
		<g>
			<g>
				<polyline class="st0" points="-2.4,1.2 -2.4,1.2 -2.4,12 2.3,12 2.3,63.6 13.1,63.6 13.1,37.8 2.3,37.8 2.3,27 13.1,27 13.1,12 
					-2.4,12 -2.4,1.2 				"/>
				<path class="st1" d="M20.6,1.2H3c5.6,0,10.1,4.5,10.1,10.1V12h7.5c4.1,0,7.5,3.4,7.5,7.5S24.7,27,20.6,27h-7.5v10.8h7.5
					c10.1,0,18.3-8.2,18.3-18.3S30.7,1.2,20.6,1.2"/>
				<path class="st2" d="M3,1.2h-5.4V12h15.5v-0.7C13.1,5.8,8.6,1.3,3,1.2 M13.1,27H2.3v10.8h10.8V27"/>
			</g>
			<g>
				<path class="st0" d="M62.9,24.4c-7.9,0-15.1,4.8-18.1,12.1c-3,7.3-1.4,15.8,4.2,21.4s14,7.3,21.4,4.2c7.3-3,12.1-10.2,12.1-18.1
					C82.5,33.2,73.8,24.4,62.9,24.4 M62.9,52.9c-3.6,0-6.8-2.2-8.2-5.5c-1.4-3.3-0.6-7.1,1.9-9.6c2.5-2.5,6.3-3.3,9.6-1.9
					c3.3,1.4,5.5,4.6,5.5,8.2C71.8,48.9,67.8,52.9,62.9,52.9"/>
			</g>
			<g>
				<path class="st6" d="M99.6,24.4H88.8v39.2V39c0-6.6,4.4-12.4,10.8-14.1V24.4"/>
				<path class="st4" d="M103.4,24.4c-1.3,0-2.6,0.2-3.8,0.5V39c0-1.5,0.9-2.9,2.4-3.5c1.4-0.6,3.1-0.3,4.2,0.8l7.6-7.6
					C111,26,107.2,24.4,103.4,24.4"/>
				<path class="st7" d="M99.6,24.9c-6.4,1.7-10.8,7.5-10.8,14.1v24.6h10.8V24.9"/>
			</g>
			<g>
				<path class="st9" d="M131.2,1.3h-10.8v23.1h10.8V1.3 M131.2,35.2h-10.8v17.9c0,5.8,4.7,10.5,10.5,10.5h5.4V52.9h-5.2V35.2"/>
				<path class="st1" d="M136.3,24.4h-5.2v10.8h5.2V24.4 M120.4,24.4h-3.1v10.8h3.1V24.4"/>
				<polyline class="st15" points="131.2,24.4 120.4,24.4 120.4,35.2 131.2,35.2 131.2,24.4 				"/>
			</g>
			<g>
				<polyline class="st4" points="153.4,1.4 142.6,1.4 142.6,63.7 153.4,63.7 153.4,1.4 				"/>
			</g>
			<g>
				<path class="st3" d="M198.8,24.5H188v2.1c6.6,3.3,10.8,10.1,10.8,17.5V24.5 M198.8,44.1c0,7.4-4.2,14.2-10.8,17.5v2.1h10.8V44.1
					"/>
				<path class="st4" d="M179.2,24.5c-8.1,0-15.4,5-18.3,12.6S160,53.1,166,58.6c6,5.4,14.8,6.6,22,3V44.1c0,3.6-2.2,6.8-5.5,8.2
					c-3.3,1.4-7.1,0.6-9.6-1.9c-2.5-2.5-3.3-6.3-1.9-9.6c1.4-3.3,4.6-5.5,8.2-5.5c4.9,0,8.8,4,8.8,8.8V26.6
					C185.3,25.2,182.3,24.4,179.2,24.5"/>
				<path class="st5" d="M188,26.6v17.5v17.5c6.6-3.3,10.8-10.1,10.8-17.5l0,0C198.8,36.7,194.6,29.9,188,26.6"/>
			</g>
			<g>
				<path class="st6" d="M216.7,24.4h-10.8v39.2v-22c0-7,4.3-13.3,10.8-16V24.4"/>
				<path class="st1" d="M223.1,24.4c-2.2,0-4.4,0.4-6.5,1.3v16c0-3.6,2.9-6.5,6.5-6.5s6.5,2.9,6.5,6.5v22h10.8v-22
					C240.4,32.1,232.7,24.4,223.1,24.4"/>
				<path class="st14" d="M216.7,25.7c-6.5,2.6-10.8,9-10.8,16v22h10.8V25.7"/>
			</g>
			<g>
				<path class="st6" d="M285.8,1.3h-10.8v25.2c6.6,3.3,10.8,10.1,10.8,17.5V1.3 M285.8,44.1c0,7.4-4.2,14.2-10.8,17.5v2.1h10.8
					V44.1"/>
				<path class="st1" d="M266.2,24.5c-8.1,0-15.4,5-18.3,12.6s-0.9,16.1,5.1,21.6c6,5.4,14.8,6.6,22,3V44.1c0,4.9-4,8.8-8.8,8.8
					c-4.9,0-8.8-4-8.8-8.8s4-8.8,8.8-8.8c4.9,0,8.8,4,8.8,8.8V26.6C272.3,25.2,269.3,24.4,266.2,24.5"/>
				<path class="st14" d="M275.1,26.6v17.5v17.5c6.6-3.3,10.8-10.1,10.8-17.5l0,0C285.8,36.7,281.7,29.9,275.1,26.6"/>
			</g>
			<g>
				<path class="st4" d="M304.4,52.9h-10.8v15c0,1.2-1,2.2-2.2,2.2h-1.2v10.8h1.2c7.2,0,13-5.8,13-13V52.9"/>
			</g>
			<g>
				<path class="st0" d="M357,1.2c-11.4,0-20.7,9.3-20.7,20.7v20.9c0,11.4,9.3,20.7,20.7,20.7c11.4,0,20.7-9.3,20.7-20.7V22
					C377.7,10.5,368.4,1.3,357,1.2 M357,52.8c-5.5,0-9.9-4.5-9.9-9.9V22c0-5.5,4.5-9.9,9.9-9.9s9.9,4.5,9.9,9.9v20.9
					C366.9,48.3,362.5,52.8,357,52.8"/>
			</g>
			<g>
				<polyline class="st6" points="382.1,1.2 382.1,1.2 382.1,12 386.8,12 386.8,63.6 397.6,63.6 397.6,37.8 386.8,37.8 386.8,27 
					386.8,27 397.6,27 397.6,12 382.1,12 382.1,1.2 				"/>
				<path class="st0" d="M405.1,1.2h-17.6c5.6,0,10.1,4.5,10.1,10.1V12h7.5c4.1,0,7.4,3.3,7.5,7.4s-3.1,7.5-7.2,7.6
					c4.8,0.1,9.3,2,12.7,5.4c5.2-5.2,6.7-13.1,3.9-19.9C419.1,5.7,412.4,1.2,405.1,1.2 M405.1,37.8h-7.5v0L405.1,37.8
					c0.1,0,0.2,0,0.3,0C405.3,37.8,405.2,37.8,405.1,37.8"/>
				<path class="st17" d="M387.5,1.2h-5.4V12h15.5v-0.7C397.6,5.8,393.1,1.3,387.5,1.2 M386.8,27L386.8,27v10.8h10.8v0h-10.8V27"/>
				<path class="st4" d="M405.1,27h-7.5v0L405.1,27c0.1,0,0.2,0,0.3,0C405.3,27,405.2,27,405.1,27 M418,32.4
					c-3.4,3.4-7.9,5.3-12.7,5.4c4,0.2,7.2,3.5,7.2,7.5v18.3h10.8V45.2C423.3,40.4,421.4,35.8,418,32.4"/>
				<polyline class="st7" points="397.6,27 386.8,27 386.8,27 397.6,27 397.6,27 				"/>
				<path class="st16" d="M405.3,27c-0.1,0-0.2,0-0.3,0h-7.5v10.8h7.5c0.1,0,0.2,0,0.3,0c4.8-0.1,9.3-2,12.7-5.4
					C414.7,29,410.1,27.1,405.3,27"/>
				<polyline class="st18" points="397.6,27 386.8,27 386.8,37.8 397.6,37.8 397.6,27 				"/>
			</g>
		</g>
	</g>
</g>
<g id="Philadelphia" class="st11">
	<g class="st12">
		<g>
			<g>
				<polyline class="st0" points="0.3,1.2 0.3,1.2 0.3,12 5,12 5,63.6 15.8,63.6 15.8,37.8 5,37.8 5,27 15.8,27 15.8,12 0.3,12 
					0.3,1.2 				"/>
				<path class="st1" d="M23.3,1.2H5.7c5.6,0,10.1,4.5,10.1,10.1V12h7.5c4.1,0,7.5,3.4,7.5,7.5S27.4,27,23.3,27h-7.5v10.8h7.5
					c10.1,0,18.3-8.2,18.3-18.3S33.4,1.2,23.3,1.2"/>
				<path class="st2" d="M5.7,1.2H0.3V12h15.5v-0.7C15.8,5.8,11.3,1.3,5.7,1.2 M15.8,27H5v10.8h10.8V27"/>
			</g>
			<g>
				<path class="st6" d="M64.3,24.5c-2.3,0-4.5,0.4-6.6,1.3v16.1c0-3.7,3-6.6,6.6-6.6c3.7,0,6.6,3,6.6,6.6v21.8h10.8V41.9
					C81.7,32.3,73.9,24.5,64.3,24.5"/>
				<path class="st4" d="M57.7,1.4H46.9v40.5c0-7,4.3-13.4,10.8-16.1V1.4"/>
				<path class="st7" d="M57.7,25.8c-6.5,2.7-10.8,9-10.8,16.1v21.8h10.8V41.9V25.8"/>
			</g>
			<g>
				<polyline class="st4" points="99.6,24.5 88.8,24.5 88.8,63.7 99.6,63.7 99.6,24.5 				"/>
				<polyline class="st3" points="99.6,1.5 88.8,1.5 88.8,12.9 99.6,12.9 99.6,1.5 				"/>
			</g>
			<g>
				<polyline class="st4" points="117.5,1.4 106.7,1.4 106.7,63.7 117.5,63.7 117.5,1.4 				"/>
			</g>
			<g>
				<path class="st3" d="M162.9,24.5h-10.8v2.1c6.6,3.3,10.8,10.1,10.8,17.5V24.5 M162.9,44.1c0,7.4-4.2,14.2-10.8,17.5v2.1h10.8
					V44.1"/>
				<path class="st4" d="M143.3,24.5c-8.1,0-15.4,5-18.3,12.6s-0.9,16.1,5.1,21.6c6,5.4,14.8,6.6,22,3V44.1c0,3.6-2.2,6.8-5.5,8.2
					c-3.3,1.4-7.1,0.6-9.6-1.9c-2.5-2.5-3.3-6.3-1.9-9.6c1.4-3.3,4.6-5.5,8.2-5.5c4.9,0,8.8,4,8.8,8.8V26.6
					C149.4,25.2,146.4,24.4,143.3,24.5"/>
				<path class="st5" d="M152.1,26.6v17.5v17.5c6.6-3.3,10.8-10.1,10.8-17.5l0,0C162.9,36.7,158.7,29.9,152.1,26.6"/>
			</g>
			<g>
				<path class="st6" d="M208.3,1.3h-10.8v25.2c6.6,3.3,10.8,10.1,10.8,17.5V1.3 M208.3,44.1c0,7.4-4.2,14.2-10.8,17.5v2.1h10.8
					V44.1"/>
				<path class="st1" d="M188.7,24.5c-8.1,0-15.4,5-18.3,12.6s-0.9,16.1,5.1,21.6c6,5.4,14.8,6.6,22,3V44.1c0,4.9-4,8.8-8.8,8.8
					c-4.9,0-8.8-4-8.8-8.8s4-8.8,8.8-8.8c4.9,0,8.8,4,8.8,8.8V26.6C194.8,25.2,191.8,24.4,188.7,24.5"/>
				<path class="st14" d="M197.6,26.6v17.5v17.5c6.6-3.3,10.8-10.1,10.8-17.5l0,0C208.3,36.7,204.2,29.9,197.6,26.6"/>
			</g>
			<g>
				<path class="st9" d="M234.2,24.5c-10.8,0-19.6,8.8-19.6,19.6c0,11,8.9,19.6,20.2,19.6c5.8,0,10.5-1.9,15.7-6.2l-7-8.2
					c-3.2,2.7-5.7,3.5-8.9,3.5c-1.6,0.1-3.2-0.4-4.5-1.2l-0.4,0.1l-10.9,4.5c-2-2.6-3.4-5.6-3.9-8.8l11.1-4.6v0c0.3-3,2.2-5.6,5-6.8
					c1-0.4,2-0.6,3.1-0.6c1.9,0,3.7,0.6,5.2,1.8c0.1,0,0.1,0.1,0.2,0.1l10.8-4.5c0.7,1,1.4,2.2,1.9,3.3
					C248.9,29,241.9,24.4,234.2,24.5 M252.1,36.1L252.1,36.1L252.1,36.1 M252.1,36.2L252.1,36.2L252.1,36.2 M252.2,36.2L252.2,36.2
					L252.2,36.2 M252.2,36.3L252.2,36.3L252.2,36.3 M254.3,41.4l-10.9,4.5L254.3,41.4"/>
				<path class="st6" d="M252.1,36L252.1,36L252.1,36 M252.1,36.1L252.1,36.1L252.1,36.1 M252.1,36.2L252.1,36.2L252.1,36.2
					 M252.2,36.3L252.2,36.3L252.2,36.3 M252.2,36.3L252.2,36.3l2.1,5.1L252.2,36.3L252.2,36.3 M239.3,37.2l-6.7,2.8l-6.4,2.6
					l-0.4,0.2c-0.5,4.6,1.8,7.1,3.8,8.5c0.1,0.1,0.2,0.2,0.3,0.2l12-5l1.5-0.6C243.5,45.9,242.2,39.8,239.3,37.2"/>
				<path class="st10" d="M250.2,32.7l-10.8,4.5c2.9,2.6,4.1,8.7,4.2,8.7l10.9-4.5l-2.1-5l0-0.1l0,0l0-0.1l0,0l0-0.1l0,0l0-0.1l0,0
					l0,0C251.5,34.9,250.9,33.8,250.2,32.7 M225.9,42.7l-11.1,4.6c0.5,3.2,1.9,6.3,3.9,8.8l10.9-4.5l0.4-0.1
					c-0.1-0.1-0.2-0.1-0.3-0.2C227.7,49.8,225.4,47.3,225.9,42.7"/>
			</g>
			<g>
				<polyline class="st4" points="270.5,1.4 259.7,1.4 259.7,63.7 270.5,63.7 270.5,1.4 				"/>
			</g>
			<g>
				<path class="st1" d="M297.2,24.4c-3.1,0-6.1,0.7-8.8,2.1V44c0-4.9,4-8.8,8.8-8.8c4.9,0,8.8,4,8.8,8.8s-4,8.8-8.8,8.8
					c-4.9,0-8.8-4-8.8-8.8v17.5c7.2,3.7,16,2.5,22-3c6-5.4,8.1-14,5.1-21.6C312.6,29.4,305.3,24.4,297.2,24.4"/>
				<path class="st0" d="M288.4,24.4h-10.8V44c0-7.4,4.2-14.2,10.8-17.5V24.4 M277.6,44v42.7h10.8V61.5
					C281.8,58.2,277.6,51.4,277.6,44"/>
				<path class="st2" d="M288.4,26.5c-6.6,3.3-10.8,10.1-10.8,17.5l0,0c0,7.4,4.2,14.2,10.8,17.5V44V26.5"/>
			</g>
			<g>
				<path class="st6" d="M340.5,24.5c-2.3,0-4.5,0.4-6.6,1.3v16.1c0-3.7,3-6.6,6.6-6.6c3.7,0,6.6,3,6.6,6.6v21.8h10.8V41.9
					C357.8,32.3,350.1,24.5,340.5,24.5"/>
				<path class="st4" d="M333.8,1.4h-10.8v40.5c0-7,4.3-13.4,10.8-16.1V1.4"/>
				<path class="st7" d="M333.8,25.8c-6.5,2.7-10.8,9-10.8,16.1v21.8h10.8V41.9V25.8"/>
			</g>
			<g>
				<polyline class="st4" points="375.7,24.5 364.9,24.5 364.9,63.7 375.7,63.7 375.7,24.5 				"/>
				<polyline class="st3" points="375.7,1.5 364.9,1.5 364.9,12.9 375.7,12.9 375.7,1.5 				"/>
			</g>
			<g>
				<path class="st3" d="M421.2,24.5h-10.8v2.1c6.6,3.3,10.8,10.1,10.8,17.5V24.5 M421.2,44.1c0,7.4-4.2,14.2-10.8,17.5v2.1h10.8
					V44.1"/>
				<path class="st4" d="M401.6,24.5c-8.1,0-15.4,5-18.3,12.6s-0.9,16.1,5.1,21.6c6,5.4,14.8,6.6,22,3V44.1c0,3.6-2.2,6.8-5.5,8.2
					c-3.3,1.4-7.1,0.6-9.6-1.9c-2.5-2.5-3.3-6.3-1.9-9.6c1.4-3.3,4.6-5.5,8.2-5.5c4.9,0,8.8,4,8.8,8.8V26.6
					C407.7,25.2,404.6,24.4,401.6,24.5"/>
				<path class="st5" d="M410.4,26.6v17.5v17.5c6.6-3.3,10.8-10.1,10.8-17.5l0,0C421.2,36.7,417,29.9,410.4,26.6"/>
			</g>
		</g>
	</g>
</g>
<g id="NewYork" class="st11">
	<g class="st12">
		<g>
			<g>
				<path class="st6" d="M2.1,1.4h-5.4v10.8h5.1v51.4V21.1c0-6.3,3.1-12.3,8.2-16C8.1,2.7,5.2,1.4,2.1,1.4"/>
				<path class="st1" d="M21.7,1.3c-4.2,0-8.2,1.3-11.6,3.8c1.7,1.9,2.6,4.4,2.6,6.9v9.1c-0.1-3.3,1.7-6.3,4.5-7.9
					c2.8-1.6,6.3-1.6,9.1,0c2.8,1.6,4.5,4.7,4.5,7.9v42.5h10.8V21.1C41.5,10.1,32.6,1.3,21.7,1.3"/>
				<path class="st14" d="M10.1,5c-5.1,3.7-8.2,9.7-8.2,16v42.5h10.8V11.9C12.7,9.4,11.8,6.9,10.1,5"/>
			</g>
			<g>
				<path class="st9" d="M67.3,24.5c-10.8,0-19.6,8.8-19.6,19.6c0,11,8.9,19.6,20.2,19.6c5.8,0,10.5-1.9,15.7-6.2l-7-8.2
					c-3.2,2.7-5.7,3.5-8.9,3.5c-1.6,0.1-3.2-0.4-4.5-1.2l-0.4,0.1l-10.9,4.5c-2-2.6-3.4-5.6-3.9-8.8L59,42.7v0c0.3-3,2.2-5.6,5-6.8
					c1-0.4,2-0.6,3.1-0.6c1.9,0,3.7,0.6,5.2,1.8c0.1,0,0.1,0.1,0.2,0.1l10.8-4.5c0.7,1,1.4,2.2,1.9,3.3C82.1,29,75,24.4,67.3,24.5
					 M85.2,36.1L85.2,36.1L85.2,36.1 M85.3,36.2L85.3,36.2L85.3,36.2 M85.3,36.2L85.3,36.2L85.3,36.2 M85.3,36.3L85.3,36.3
					L85.3,36.3 M87.5,41.4l-10.9,4.5L87.5,41.4"/>
				<path class="st6" d="M85.2,36L85.2,36L85.2,36 M85.2,36.1L85.2,36.1L85.2,36.1 M85.3,36.2L85.3,36.2L85.3,36.2 M85.3,36.3
					L85.3,36.3L85.3,36.3 M85.3,36.3L85.3,36.3l2.1,5.1L85.3,36.3L85.3,36.3 M72.5,37.2l-6.7,2.8l-6.4,2.6L59,42.7
					c-0.5,4.6,1.8,7.1,3.8,8.5c0.1,0.1,0.2,0.2,0.3,0.2l12-5l1.5-0.6C76.6,45.9,75.3,39.8,72.5,37.2"/>
				<path class="st10" d="M83.3,32.7l-10.8,4.5c2.9,2.6,4.1,8.7,4.2,8.7l10.9-4.5l-2.1-5l0-0.1l0,0l0-0.1l0,0l0-0.1l0,0l0-0.1l0,0
					l0,0C84.7,34.9,84,33.8,83.3,32.7 M59,42.7L48,47.3c0.5,3.2,1.9,6.3,3.9,8.8l10.9-4.5l0.4-0.1c-0.1-0.1-0.2-0.1-0.3-0.2
					C60.9,49.8,58.5,47.3,59,42.7"/>
			</g>
			<g>
				<path class="st3" d="M116.6,24.4L116.6,24.4v22c0,3.6-2.9,6.5-6.5,6.5c-3.6,0-6.5-2.9-6.5-6.5v-22H92.9v22
					c0,6.9,4.1,13.1,10.4,15.8s13.7,1.4,18.6-3.3c-3.4-3.2-5.4-7.8-5.4-12.5L116.6,24.4"/>
				<path class="st1" d="M151,24.4h-10.8v22c0,2.3-1.2,4.5-3.2,5.6c-2,1.2-4.5,1.2-6.5,0c-2-1.2-3.2-3.3-3.2-5.6v-22v22
					c0,4.7-1.9,9.3-5.4,12.5c5,4.7,12.3,6,18.6,3.3c6.3-2.7,10.4-8.9,10.4-15.8V24.4"/>
				<path class="st13" d="M127.3,24.4h-10.8v22c0,4.7,1.9,9.3,5.4,12.5c3.4-3.2,5.4-7.8,5.4-12.5V24.4"/>
			</g>
			<g>
				<path class="st3" d="M223,1.3h-10.8v16.9c0,2.8-1.3,5.4-3.5,7.1v11.8c8.5-2.4,14.3-10.1,14.3-18.9L223,1.3 M194.4,1.3h-10.8
					v16.9c0,8.8,5.8,16.5,14.3,18.9l0,0V25.2c-2.2-1.7-3.5-4.3-3.5-7.1V1.3"/>
				<path class="st4" d="M208.7,37.1L208.7,37.1c-3.5,1-7.3,1-10.8,0v26.5h10.8V37.1"/>
				<path class="st5" d="M208.7,25.2L208.7,25.2c-3.2,2.4-7.6,2.4-10.8,0v11.8c3.5,1,7.3,1,10.8,0l0,0V25.2"/>
			</g>
			<g>
				<path class="st0" d="M248.9,24.4c-7.9,0-15.1,4.8-18.1,12.1c-3,7.3-1.4,15.8,4.2,21.4s14,7.3,21.4,4.2
					c7.3-3,12.1-10.2,12.1-18.1C268.5,33.2,259.7,24.4,248.9,24.4 M248.9,52.9c-3.6,0-6.8-2.2-8.2-5.5c-1.4-3.3-0.6-7.1,1.9-9.6
					c2.5-2.5,6.3-3.3,9.6-1.9c3.3,1.4,5.5,4.6,5.5,8.2C257.7,48.9,253.7,52.9,248.9,52.9"/>
			</g>
			<g>
				<path class="st6" d="M285.5,24.4h-10.8v39.2V39c0-6.6,4.4-12.4,10.8-14.1V24.4"/>
				<path class="st4" d="M289.3,24.4c-1.3,0-2.6,0.2-3.8,0.5V39c0-1.5,0.9-2.9,2.4-3.5c1.4-0.6,3.1-0.3,4.2,0.8l7.6-7.6
					C296.9,26,293.2,24.4,289.3,24.4"/>
				<path class="st7" d="M285.5,24.9c-6.4,1.7-10.8,7.5-10.8,14.1v24.6h10.8V24.9"/>
			</g>
			<g>
				<path class="st3" d="M332.8,40.4c-3,3.4-7.4,5.4-11.9,5.4c-2.8,0-5.1,2.3-5.1,5.1l0,0c0-1.8,1-3.6,2.6-4.5s3.6-0.9,5.2,0
					c1.6,0.9,2.6,2.6,2.6,4.5v12.8h10.8V50.9C336.8,47,335.4,43.3,332.8,40.4"/>
				<path class="st4" d="M336.8,24.5H326v5.4c0,2.8-2.3,5.1-5.1,5.1c-1.7,0-3.5,0.3-5.1,0.9l0,0c6.1-2.1,12.8-0.3,17.1,4.5
					c2.6-2.9,4-6.6,4-10.5L336.8,24.5"/>
				<path class="st5" d="M320.9,35c-1.7,0-3.5,0.3-5.1,0.9v15.1c0-2.8,2.3-5.1,5.1-5.1c4.6,0,8.9-2,11.9-5.4
					C329.8,37,325.5,35,320.9,35"/>
				<path class="st0" d="M315.8,1.3H305v49.6c0-6.8,4.3-12.9,10.8-15.1V1.3"/>
				<path class="st8" d="M315.8,35.9c-6.4,2.2-10.8,8.3-10.8,15.1v12.8h10.8V50.9V35.9"/>
			</g>
		</g>
	</g>
</g>
<g id="NewOrleans" class="st11">
	<g class="st12">
		<g>
			<g>
				<path class="st6" d="M5.7,1.4H0.3v10.8h5.1v51.4V21.1c0-6.3,3.1-12.3,8.2-16C11.7,2.7,8.8,1.4,5.7,1.4"/>
				<path class="st1" d="M25.3,1.3C21.1,1.3,17,2.6,13.7,5c1.7,1.9,2.6,4.4,2.6,6.9v9.1c-0.1-3.3,1.7-6.3,4.5-7.9
					c2.8-1.6,6.3-1.6,9.1,0c2.8,1.6,4.5,4.7,4.5,7.9v42.5H45V21.1C45,10.1,36.2,1.3,25.3,1.3"/>
				<path class="st14" d="M13.7,5c-5.1,3.7-8.2,9.7-8.2,16v42.5h10.8V11.9C16.2,9.4,15.3,6.9,13.7,5"/>
			</g>
			<g>
				<path class="st9" d="M70.9,24.5c-10.8,0-19.6,8.8-19.6,19.6c0,11,8.9,19.6,20.2,19.6c5.8,0,10.5-1.9,15.7-6.2l-7-8.2
					c-3.2,2.7-5.7,3.5-8.9,3.5c-1.6,0.1-3.2-0.4-4.5-1.2l-0.4,0.1l-10.9,4.5c-2-2.6-3.4-5.6-3.9-8.8l11.1-4.6v0c0.3-3,2.2-5.6,5-6.8
					c1-0.4,2-0.6,3.1-0.6c1.9,0,3.7,0.6,5.2,1.8c0.1,0,0.1,0.1,0.2,0.1l10.8-4.5c0.7,1,1.4,2.2,1.9,3.3C85.6,29,78.6,24.4,70.9,24.5
					 M88.8,36.1L88.8,36.1L88.8,36.1 M88.8,36.2L88.8,36.2L88.8,36.2 M88.9,36.2L88.9,36.2L88.9,36.2 M88.9,36.3L88.9,36.3
					L88.9,36.3 M91.1,41.4l-10.9,4.5L91.1,41.4"/>
				<path class="st6" d="M88.8,36L88.8,36L88.8,36 M88.8,36.1L88.8,36.1L88.8,36.1 M88.8,36.2L88.8,36.2L88.8,36.2 M88.9,36.3
					L88.9,36.3L88.9,36.3 M88.9,36.3L88.9,36.3l2.1,5.1L88.9,36.3L88.9,36.3 M76,37.2l-6.7,2.8L63,42.6l-0.4,0.2
					c-0.5,4.6,1.8,7.1,3.8,8.5c0.1,0.1,0.2,0.2,0.3,0.2l12-5l1.5-0.6C80.2,45.9,78.9,39.8,76,37.2"/>
				<path class="st10" d="M86.9,32.7L76,37.2c2.9,2.6,4.1,8.7,4.2,8.7l10.9-4.5l-2.1-5l0-0.1l0,0l0-0.1l0,0l0-0.1l0,0l0-0.1l0,0l0,0
					C88.2,34.9,87.6,33.8,86.9,32.7 M62.6,42.7l-11.1,4.6c0.5,3.2,1.9,6.3,3.9,8.8l10.9-4.5l0.4-0.1c-0.1-0.1-0.2-0.1-0.3-0.2
					C64.4,49.8,62.1,47.3,62.6,42.7"/>
			</g>
			<g>
				<path class="st3" d="M120.1,24.4L120.1,24.4v22c0,3.6-2.9,6.5-6.5,6.5c-3.6,0-6.5-2.9-6.5-6.5v-22H96.4v22
					c0,6.9,4.1,13.1,10.4,15.8s13.7,1.4,18.6-3.3c-3.4-3.2-5.4-7.8-5.4-12.5L120.1,24.4"/>
				<path class="st1" d="M154.6,24.4h-10.8v22c0,2.3-1.2,4.5-3.2,5.6c-2,1.2-4.5,1.2-6.5,0c-2-1.2-3.2-3.3-3.2-5.6v-22v22
					c0,4.7-1.9,9.3-5.4,12.5c5,4.7,12.3,6,18.6,3.3c6.3-2.7,10.4-8.9,10.4-15.8V24.4"/>
				<path class="st13" d="M130.9,24.4h-10.8v22c0,4.7,1.9,9.3,5.4,12.5c3.4-3.2,5.4-7.8,5.4-12.5V24.4"/>
			</g>
			<g>
				<path class="st0" d="M207,1.2c-11.4,0-20.7,9.3-20.7,20.7v20.9c0,11.4,9.3,20.7,20.7,20.7c11.4,0,20.7-9.3,20.7-20.7V22
					C227.8,10.5,218.5,1.3,207,1.2 M207,52.8c-5.5,0-9.9-4.5-9.9-9.9V22c0-5.5,4.5-9.9,9.9-9.9s9.9,4.5,9.9,9.9v20.9
					C217,48.3,212.5,52.8,207,52.8"/>
			</g>
			<g>
				<path class="st6" d="M244.8,24.4H234v39.2V39c0-6.6,4.4-12.4,10.8-14.1V24.4"/>
				<path class="st4" d="M248.6,24.4c-1.3,0-2.6,0.2-3.8,0.5V39c0-1.5,0.9-2.9,2.4-3.5c1.4-0.6,3.1-0.3,4.2,0.8l7.6-7.6
					C256.2,26,252.5,24.4,248.6,24.4"/>
				<path class="st7" d="M244.8,24.9C238.4,26.7,234,32.4,234,39v24.6h10.8V24.9"/>
			</g>
			<g>
				<polyline class="st4" points="275,1.4 264.3,1.4 264.3,63.7 275,63.7 275,1.4 				"/>
			</g>
			<g>
				<path class="st9" d="M300.9,24.5c-10.8,0-19.6,8.8-19.6,19.6c0,11,8.9,19.6,20.2,19.6c5.8,0,10.5-1.9,15.7-6.2l-7-8.2
					c-3.2,2.7-5.7,3.5-8.9,3.5c-1.6,0.1-3.2-0.4-4.5-1.2l-0.4,0.1l-10.9,4.5c-2-2.6-3.4-5.6-3.9-8.8l11.1-4.6v0c0.3-3,2.2-5.6,5-6.8
					c1-0.4,2-0.6,3.1-0.6c1.9,0,3.7,0.6,5.2,1.8c0.1,0,0.1,0.1,0.2,0.1l10.8-4.5c0.7,1,1.4,2.2,1.9,3.3
					C315.6,29,308.6,24.4,300.9,24.5 M318.8,36.1L318.8,36.1L318.8,36.1 M318.8,36.2L318.8,36.2L318.8,36.2 M318.9,36.2L318.9,36.2
					L318.9,36.2 M318.9,36.3L318.9,36.3L318.9,36.3 M321.1,41.4l-10.9,4.5L321.1,41.4"/>
				<path class="st6" d="M318.8,36L318.8,36L318.8,36 M318.8,36.1L318.8,36.1L318.8,36.1 M318.8,36.2L318.8,36.2L318.8,36.2
					 M318.9,36.3L318.9,36.3L318.9,36.3 M318.9,36.3L318.9,36.3l2.1,5.1L318.9,36.3L318.9,36.3 M306,37.2l-6.7,2.8l-6.4,2.6
					l-0.4,0.2c-0.5,4.6,1.8,7.1,3.8,8.5c0.1,0.1,0.2,0.2,0.3,0.2l12-5l1.5-0.6C310.2,45.9,308.9,39.8,306,37.2"/>
				<path class="st10" d="M316.9,32.7L306,37.2c2.9,2.6,4.1,8.7,4.2,8.7l10.9-4.5l-2.1-5l0-0.1l0,0l0-0.1l0,0l0-0.1l0,0l0-0.1l0,0
					l0,0C318.3,34.9,317.6,33.8,316.9,32.7 M292.6,42.7l-11.1,4.6c0.5,3.2,1.9,6.3,3.9,8.8l10.9-4.5l0.4-0.1
					c-0.1-0.1-0.2-0.1-0.3-0.2C294.5,49.8,292.1,47.3,292.6,42.7"/>
			</g>
			<g>
				<path class="st3" d="M364.8,24.5H354v2.1c6.6,3.3,10.8,10.1,10.8,17.5V24.5 M364.8,44.1c0,7.4-4.2,14.2-10.8,17.5v2.1h10.8V44.1
					"/>
				<path class="st4" d="M345.2,24.5c-8.1,0-15.4,5-18.3,12.6S326,53.1,332,58.6c6,5.4,14.8,6.6,22,3V44.1c0,3.6-2.2,6.8-5.5,8.2
					c-3.3,1.4-7.1,0.6-9.6-1.9c-2.5-2.5-3.3-6.3-1.9-9.6c1.4-3.3,4.6-5.5,8.2-5.5c4.9,0,8.8,4,8.8,8.8V26.6
					C351.3,25.2,348.2,24.4,345.2,24.5"/>
				<path class="st5" d="M354,26.6v17.5v17.5c6.6-3.3,10.8-10.1,10.8-17.5l0,0C364.8,36.7,360.6,29.9,354,26.6"/>
			</g>
			<g>
				<path class="st6" d="M382.7,24.4h-10.8v39.2v-22c0-7,4.3-13.3,10.8-16V24.4"/>
				<path class="st1" d="M389.1,24.4c-2.2,0-4.4,0.4-6.5,1.3v16c0-3.6,2.9-6.5,6.5-6.5s6.5,2.9,6.5,6.5v22h10.8v-22
					C406.3,32.1,398.6,24.4,389.1,24.4"/>
				<path class="st14" d="M382.7,25.7c-6.5,2.6-10.8,9-10.8,16v22h10.8V25.7"/>
			</g>
			<g>
				<path class="st3" d="M439.9,24.4h-15.3c-6.9,0-12.5,5.6-12.5,12.5s5.6,12.5,12.5,12.5h6.4c0.9,0,1.7,0.8,1.7,1.7
					c0,0.9-0.8,1.7-1.7,1.7h-15.3v10.8h15.5c6.9-0.1,12.4-5.7,12.3-12.6s-5.6-12.4-12.5-12.4h-6.4c-1,0-1.7-0.8-1.7-1.7
					c0-1,0.8-1.7,1.7-1.7h15.3L439.9,24.4"/>
			</g>
		</g>
	</g>
</g>
<g id="Miami" class="st11">
	<g class="st12">
		<g>
			<g>
				<path class="st0" d="M50.9,1.3c-5,0-9.8,2-13.4,5.6c3.5,3.5,5.4,8.2,5.4,13.1l0,0c0-4.4,3.6-8,8-8c4.4,0,8,3.6,8,8v43.6h10.8V20
					C69.6,9.7,61.3,1.3,50.9,1.3"/>
				<path class="st6" d="M24.2,1.3c-3.9,0-7.7,1.2-10.8,3.4c1.8,1.9,2.9,4.5,2.9,7.2V20c0-4.4,3.6-8,8-8c4.4,0,8,3.6,8,8l0,0
					c0-4.9,1.9-9.6,5.4-13.1C34,3.3,29.2,1.3,24.2,1.3"/>
				<path class="st17" d="M37.6,6.9c-3.5,3.5-5.4,8.2-5.4,13.1v43.6h10.8V20C42.9,15.1,41,10.4,37.6,6.9"/>
				<path class="st4" d="M5.7,1.4H0.3v10.8h5.1V20c0-6.1,3-11.8,7.9-15.3C11.4,2.6,8.6,1.4,5.7,1.4"/>
				<path class="st7" d="M13.4,4.7c-5,3.5-7.9,9.2-7.9,15.3v43.6h10.8V20v-8.1C16.2,9.2,15.2,6.7,13.4,4.7"/>
			</g>
			<g>
				<polyline class="st4" points="87.5,24.5 76.8,24.5 76.8,63.7 87.5,63.7 87.5,24.5 				"/>
				<polyline class="st3" points="87.5,1.5 76.8,1.5 76.8,12.9 87.5,12.9 87.5,1.5 				"/>
			</g>
			<g>
				<path class="st3" d="M133,24.5h-10.8v2.1c6.6,3.3,10.8,10.1,10.8,17.5V24.5 M133,44.1c0,7.4-4.2,14.2-10.8,17.5v2.1H133V44.1"/>
				<path class="st4" d="M113.4,24.5c-8.1,0-15.4,5-18.3,12.6s-0.9,16.1,5.1,21.6c6,5.4,14.8,6.6,22,3V44.1c0,3.6-2.2,6.8-5.5,8.2
					c-3.3,1.4-7.1,0.6-9.6-1.9c-2.5-2.5-3.3-6.3-1.9-9.6c1.4-3.3,4.6-5.5,8.2-5.5c4.9,0,8.8,4,8.8,8.8V26.6
					C119.5,25.2,116.4,24.4,113.4,24.5"/>
				<path class="st5" d="M122.2,26.6v17.5v17.5c6.6-3.3,10.8-10.1,10.8-17.5l0,0C133,36.7,128.8,29.9,122.2,26.6"/>
			</g>
			<g>
				<path class="st4" d="M150.9,24.5h-10.8v39.2v-22c0-7,4.3-13.3,10.8-16V24.5"/>
				<path class="st6" d="M157.3,24.4c-2.2,0-4.4,0.4-6.5,1.3v16c0-3.6,2.9-6.5,6.5-6.5s6.5,2.9,6.5,6.5v22v-22
					c0-4.7,1.9-9.3,5.4-12.5C166,26.1,161.7,24.4,157.3,24.4"/>
				<path class="st7" d="M150.9,25.7c-6.5,2.6-10.8,9-10.8,16v22h10.8V25.7"/>
				<path class="st0" d="M181,24.4c-4.4,0-8.6,1.7-11.8,4.7c3.4,3.2,5.4,7.8,5.4,12.5l0,0c0-3.6,2.9-6.5,6.5-6.5
					c3.6,0,6.5,2.9,6.5,6.5v22h10.8v-22C198.2,32.1,190.5,24.4,181,24.4"/>
				<path class="st17" d="M169.2,29.1c-3.4,3.2-5.4,7.8-5.4,12.5v22h10.8v-22C174.5,36.9,172.6,32.4,169.2,29.1"/>
			</g>
			<g>
				<polyline class="st4" points="216.1,24.5 205.3,24.5 205.3,63.7 216.1,63.7 216.1,24.5 				"/>
				<polyline class="st3" points="216.1,1.5 205.3,1.5 205.3,12.9 216.1,12.9 216.1,1.5 				"/>
			</g>
		</g>
	</g>
</g>
<g id="LosAngeles" class="st11">
	<g class="st12">
		<g>
			<g>
				<polyline class="st6" points="36.6,52.9 11.3,52.9 11.3,63.7 0.5,63.7 0.5,52.9 0.5,63.7 36.6,63.7 36.6,52.9 				"/>
				<polyline class="st4" points="11.3,1.4 0.5,1.4 0.5,52.9 11.3,52.9 11.3,1.4 				"/>
				<polyline class="st7" points="11.3,52.9 0.5,52.9 0.5,63.7 11.3,63.7 11.3,52.9 				"/>
			</g>
			<g>
				<path class="st0" d="M62.4,24.4c-7.9,0-15.1,4.8-18.1,12.1c-3,7.3-1.4,15.8,4.2,21.4s14,7.3,21.4,4.2C77.2,59.1,82,52,82,44
					C82,33.2,73.2,24.4,62.4,24.4 M62.4,52.9c-3.6,0-6.8-2.2-8.2-5.5c-1.4-3.3-0.6-7.1,1.9-9.6c2.5-2.5,6.3-3.3,9.6-1.9
					c3.3,1.4,5.5,4.6,5.5,8.2C71.2,48.9,67.2,52.9,62.4,52.9"/>
			</g>
			<g>
				<path class="st3" d="M114.6,24.4H99.4c-6.9,0-12.5,5.6-12.5,12.5s5.6,12.5,12.5,12.5h6.4c0.9,0,1.7,0.8,1.7,1.7
					c0,0.9-0.8,1.7-1.7,1.7H90.5v10.8H106c6.9-0.1,12.4-5.7,12.3-12.6s-5.6-12.4-12.5-12.4h-6.4c-1,0-1.7-0.8-1.7-1.7
					c0-1,0.8-1.7,1.7-1.7h15.3L114.6,24.4"/>
			</g>
			<g>
				<path class="st4" d="M170.4,1.3c-11.4,0-20.7,9.3-20.7,20.7v41.6h10.8V41.5h-10.8V30.7h10.8V22c0-5.5,4.4-9.9,9.9-9.9
					c5.5,0,9.9,4.4,9.9,9.9v8.7H191V22C191,10.6,181.8,1.4,170.4,1.3 M191,41.5h-10.8v22.1H191V41.5"/>
				<polyline class="st3" points="180.3,30.7 160.4,30.7 160.4,41.5 180.3,41.5 180.3,30.7 				"/>
				<path class="st5" d="M191,30.7h-10.8v10.8H191V30.7 M160.4,30.7h-10.8v10.8h10.8V30.7"/>
			</g>
			<g>
				<path class="st6" d="M208.9,24.4h-10.8v39.2v-22c0-7,4.3-13.3,10.8-16V24.4"/>
				<path class="st1" d="M215.4,24.4c-2.2,0-4.4,0.4-6.5,1.3v16c0-3.6,2.9-6.5,6.5-6.5s6.5,2.9,6.5,6.5v22h10.8v-22
					C232.6,32.1,224.9,24.4,215.4,24.4"/>
				<path class="st14" d="M208.9,25.7c-6.5,2.6-10.8,9-10.8,16v22h10.8V25.7"/>
			</g>
			<g>
				<path class="st3" d="M258.4,24.5c-7.5,0-14.3,4.3-17.6,11c-3.3,6.7-2.5,14.7,2.1,20.6c2.3-2.1,5.3-3.2,8.3-3.2h7.1
					c-4.9,0-8.8-4-8.8-8.8s4-8.8,8.8-8.8c4.9,0,8.8,4,8.8,8.8l0,0V35c0-2.5,0.9-5,2.6-6.9C266.5,25.7,262.5,24.4,258.4,24.5"/>
				<path class="st4" d="M283.2,24.5h-5.4c-2.8,0-5.5,1.1-7.5,3.1c-0.2,0.2-0.4,0.4-0.5,0.6c5.2,3.7,8.2,9.6,8.2,15.9l0,0v-8.8h5.2
					V24.5 M277.2,49.6c-2.5,8.3-10.1,14-18.8,14l0,0C267.1,63.6,274.8,58,277.2,49.6 M243,56.1c-3.8,3.5-5.2,8.9-3.3,13.7
					c1.8,4.8,6.5,8,11.6,8h14.3c0.9,0,1.7,0.8,1.7,1.7s-0.8,1.7-1.7,1.7h-12.5V92h12.5c6.9,0,12.5-5.6,12.5-12.5
					c0-6.9-5.6-12.5-12.5-12.5h-14.3c-0.9,0-1.7-0.8-1.7-1.7c0-0.9,0.8-1.7,1.7-1.7h7.1C252.4,63.7,246.7,60.9,243,56.1"/>
				<path class="st5" d="M269.8,28.1c-1.7,1.9-2.6,4.4-2.6,6.9v9.1c0,4.9-4,8.8-8.8,8.8h-7.1c-3.1,0-6,1.1-8.3,3.2
					c3.7,4.8,9.4,7.6,15.5,7.6l0,0c8.5,0,16.1-5.5,18.7-13.6C279.7,41.9,276.8,33.1,269.8,28.1"/>
			</g>
			<g>
				<path class="st9" d="M308.2,24.5c-10.8,0-19.6,8.8-19.6,19.6c0,11,8.9,19.6,20.2,19.6c5.8,0,10.5-1.9,15.7-6.2l-7-8.2
					c-3.2,2.7-5.7,3.5-8.9,3.5c-1.6,0.1-3.2-0.4-4.5-1.2l-0.4,0.1l-10.9,4.5c-2-2.6-3.4-5.6-3.9-8.8l11.1-4.6v0c0.3-3,2.2-5.6,5-6.8
					c1-0.4,2-0.6,3.1-0.6c1.9,0,3.7,0.6,5.2,1.8c0.1,0,0.1,0.1,0.2,0.1l10.8-4.5c0.7,1,1.4,2.2,1.9,3.3
					C322.9,29,315.9,24.4,308.2,24.5 M326.1,36.1L326.1,36.1L326.1,36.1 M326.1,36.2L326.1,36.2L326.1,36.2 M326.1,36.2L326.1,36.2
					L326.1,36.2 M326.2,36.3L326.2,36.3L326.2,36.3 M328.3,41.4l-10.9,4.5L328.3,41.4"/>
				<path class="st6" d="M326,36L326,36L326,36 M326.1,36.1L326.1,36.1L326.1,36.1 M326.1,36.2L326.1,36.2L326.1,36.2 M326.1,36.3
					L326.1,36.3L326.1,36.3 M326.2,36.3L326.2,36.3l2.1,5.1L326.2,36.3L326.2,36.3 M313.3,37.2l-6.7,2.8l-6.4,2.6l-0.4,0.2
					c-0.5,4.6,1.8,7.1,3.8,8.5c0.1,0.1,0.2,0.2,0.3,0.2l12-5l1.5-0.6C317.5,45.9,316.2,39.8,313.3,37.2"/>
				<path class="st10" d="M324.1,32.7l-10.8,4.5c2.9,2.6,4.1,8.7,4.2,8.7l10.9-4.5l-2.1-5l0-0.1l0,0l0-0.1l0,0l0-0.1l0,0l0-0.1l0,0
					l0,0C325.5,34.9,324.9,33.8,324.1,32.7 M299.9,42.7l-11.1,4.6c0.5,3.2,1.9,6.3,3.9,8.8l10.9-4.5l0.4-0.1
					c-0.1-0.1-0.2-0.1-0.3-0.2C301.7,49.8,299.3,47.3,299.9,42.7"/>
			</g>
			<g>
				<polyline class="st4" points="344.5,1.4 333.7,1.4 333.7,63.7 344.5,63.7 344.5,1.4 				"/>
			</g>
			<g>
				<path class="st9" d="M370.3,24.5c-10.8,0-19.6,8.8-19.6,19.6c0,11,8.9,19.6,20.2,19.6c5.8,0,10.5-1.9,15.7-6.2l-7-8.2
					c-3.2,2.7-5.7,3.5-8.9,3.5c-1.6,0.1-3.2-0.4-4.5-1.2l-0.4,0.1l-10.9,4.5c-2-2.6-3.4-5.6-3.9-8.8l11.1-4.6v0c0.3-3,2.2-5.6,5-6.8
					c1-0.4,2-0.6,3.1-0.6c1.9,0,3.7,0.6,5.2,1.8c0.1,0,0.1,0.1,0.2,0.1l10.8-4.5c0.7,1,1.4,2.2,1.9,3.3
					C385.1,29,378.1,24.4,370.3,24.5 M388.2,36.1L388.2,36.1L388.2,36.1 M388.3,36.2L388.3,36.2L388.3,36.2 M388.3,36.2L388.3,36.2
					L388.3,36.2 M388.4,36.3L388.4,36.3L388.4,36.3 M390.5,41.4l-10.9,4.5L390.5,41.4"/>
				<path class="st6" d="M388.2,36L388.2,36L388.2,36 M388.3,36.1L388.3,36.1L388.3,36.1 M388.3,36.2L388.3,36.2L388.3,36.2
					 M388.3,36.3L388.3,36.3L388.3,36.3 M388.4,36.3L388.4,36.3l2.1,5.1L388.4,36.3L388.4,36.3 M375.5,37.2l-6.7,2.8l-6.4,2.6
					l-0.4,0.2c-0.5,4.6,1.8,7.1,3.8,8.5c0.1,0.1,0.2,0.2,0.3,0.2l12-5l1.5-0.6C379.6,45.9,378.4,39.8,375.5,37.2"/>
				<path class="st10" d="M386.3,32.7l-10.8,4.5c2.9,2.6,4.1,8.7,4.2,8.7l10.9-4.5l-2.1-5l0-0.1l0,0l0-0.1l0,0l0-0.1l0,0l0-0.1l0,0
					l0,0C387.7,34.9,387.1,33.8,386.3,32.7 M362.1,42.7L351,47.3c0.5,3.2,1.9,6.3,3.9,8.8l10.9-4.5l0.4-0.1
					c-0.1-0.1-0.2-0.1-0.3-0.2C363.9,49.8,361.5,47.3,362.1,42.7"/>
			</g>
			<g>
				<path class="st3" d="M422.3,24.4h-15.3c-6.9,0-12.5,5.6-12.5,12.5s5.6,12.5,12.5,12.5h6.4c0.9,0,1.7,0.8,1.7,1.7
					c0,0.9-0.8,1.7-1.7,1.7h-15.3v10.8h15.5c6.9-0.1,12.4-5.7,12.3-12.6s-5.6-12.4-12.5-12.4h-6.4c-1,0-1.7-0.8-1.7-1.7
					c0-1,0.8-1.7,1.7-1.7h15.3L422.3,24.4"/>
			</g>
		</g>
	</g>
</g>
<g id="Denver" class="st11">
	<g class="st12">
		<g>
			<g>
				<path class="st1" d="M23.8,1.3H4.6c5.6,0,10.1,4.5,10.1,10.1v0.7h9.1c5.1,0,9.2,4.1,9.2,9.2v22.4c0,5.1-4.1,9.2-9.2,9.2h-9.1
					v10.8H3.9h19.9c11,0,19.9-8.9,20-20V21.3C43.7,10.3,34.8,1.4,23.8,1.3"/>
				<polyline class="st6" points="14.7,12.1 3.9,12.1 3.9,52.9 14.7,52.9 14.7,12.1 				"/>
				<path class="st14" d="M4.6,1.3h-5.4v10.8h15.5v-0.7C14.7,5.9,10.2,1.3,4.6,1.3 M14.7,52.9H3.9v10.8h10.8V52.9"/>
			</g>
			<g>
				<path class="st9" d="M69.6,24.5C58.8,24.5,50,33.2,50,44.1c0,11,8.9,19.6,20.2,19.6c5.8,0,10.5-1.9,15.7-6.2l-7-8.2
					c-3.2,2.7-5.7,3.5-8.9,3.5c-1.6,0.1-3.2-0.4-4.5-1.2l-0.4,0.1l-10.9,4.5c-2-2.6-3.4-5.6-3.9-8.8l11.1-4.6v0c0.3-3,2.2-5.6,5-6.8
					c1-0.4,2-0.6,3.1-0.6c1.9,0,3.7,0.6,5.2,1.8c0.1,0,0.1,0.1,0.2,0.1l10.8-4.5c0.7,1,1.4,2.2,1.9,3.3C84.3,29,77.3,24.4,69.6,24.5
					 M87.5,36.1L87.5,36.1L87.5,36.1 M87.5,36.2L87.5,36.2L87.5,36.2 M87.6,36.2L87.6,36.2L87.6,36.2 M87.6,36.3L87.6,36.3
					L87.6,36.3 M89.8,41.4l-10.9,4.5L89.8,41.4"/>
				<path class="st6" d="M87.5,36L87.5,36L87.5,36 M87.5,36.1L87.5,36.1L87.5,36.1 M87.5,36.2L87.5,36.2L87.5,36.2 M87.6,36.3
					L87.6,36.3L87.6,36.3 M87.6,36.3L87.6,36.3l2.1,5.1L87.6,36.3L87.6,36.3 M74.7,37.2l-6.7,2.8l-6.4,2.6l-0.4,0.2
					c-0.5,4.6,1.8,7.1,3.8,8.5c0.1,0.1,0.2,0.2,0.3,0.2l12-5l1.5-0.6C78.9,45.9,77.6,39.8,74.7,37.2"/>
				<path class="st10" d="M85.6,32.7l-10.8,4.5c2.9,2.6,4.1,8.7,4.2,8.7l10.9-4.5l-2.1-5l0-0.1l0,0l0-0.1l0,0l0-0.1l0,0l0-0.1l0,0
					l0,0C87,34.9,86.3,33.8,85.6,32.7 M61.3,42.7l-11.1,4.6c0.5,3.2,1.9,6.3,3.9,8.8l10.9-4.5l0.4-0.1c-0.1-0.1-0.2-0.1-0.3-0.2
					C63.1,49.8,60.8,47.3,61.3,42.7"/>
			</g>
			<g>
				<path class="st6" d="M105.9,24.4H95.1v39.2v-22c0-7,4.3-13.3,10.8-16V24.4"/>
				<path class="st1" d="M112.4,24.4c-2.2,0-4.4,0.4-6.5,1.3v16c0-3.6,2.9-6.5,6.5-6.5s6.5,2.9,6.5,6.5v22h10.8v-22
					C129.6,32.1,121.9,24.4,112.4,24.4"/>
				<path class="st14" d="M105.9,25.7c-6.5,2.6-10.8,9-10.8,16v22h10.8V25.7"/>
			</g>
			<g>
				<polyline class="st9" points="178.2,24.4 166.5,24.4 156.1,49.6 162,63.7 150.3,63.7 162,63.7 178.2,24.4 				"/>
				<polyline class="st4" points="145.7,24.4 134.1,24.4 150.3,63.7 156.1,49.6 145.7,24.4 				"/>
				<polyline class="st19" points="156.1,49.6 150.3,63.7 162,63.7 156.1,49.6 				"/>
			</g>
			<g>
				<path class="st9" d="M201.3,24.5c-10.8,0-19.6,8.8-19.6,19.6c0,11,8.9,19.6,20.2,19.6c5.8,0,10.5-1.9,15.7-6.2l-7-8.2
					c-3.2,2.7-5.7,3.5-8.9,3.5c-1.6,0.1-3.2-0.4-4.5-1.2l-0.4,0.1l-10.9,4.5c-2-2.6-3.4-5.6-3.9-8.8l11.1-4.6v0c0.3-3,2.2-5.6,5-6.8
					c1-0.4,2-0.6,3.1-0.6c1.9,0,3.7,0.6,5.2,1.8c0.1,0,0.1,0.1,0.2,0.1l10.8-4.5c0.7,1,1.4,2.2,1.9,3.3
					C216.1,29,209.1,24.4,201.3,24.5 M219.2,36.1L219.2,36.1L219.2,36.1 M219.3,36.2L219.3,36.2L219.3,36.2 M219.3,36.2L219.3,36.2
					L219.3,36.2 M219.4,36.3L219.4,36.3L219.4,36.3 M221.5,41.4l-10.9,4.5L221.5,41.4"/>
				<path class="st6" d="M219.2,36L219.2,36L219.2,36 M219.3,36.1L219.3,36.1L219.3,36.1 M219.3,36.2L219.3,36.2L219.3,36.2
					 M219.3,36.3L219.3,36.3L219.3,36.3 M219.4,36.3L219.4,36.3l2.1,5.1L219.4,36.3L219.4,36.3 M206.5,37.2l-6.7,2.8l-6.4,2.6
					l-0.4,0.2c-0.5,4.6,1.8,7.1,3.8,8.5c0.1,0.1,0.2,0.2,0.3,0.2l12-5l1.5-0.6C210.6,45.9,209.4,39.8,206.5,37.2"/>
				<path class="st10" d="M217.3,32.7l-10.8,4.5c2.9,2.6,4.1,8.7,4.2,8.7l10.9-4.5l-2.1-5l0-0.1l0,0l0-0.1l0,0l0-0.1l0,0l0-0.1l0,0
					l0,0C218.7,34.9,218.1,33.8,217.3,32.7 M193.1,42.7L182,47.3c0.5,3.2,1.9,6.3,3.9,8.8l10.9-4.5l0.4-0.1
					c-0.1-0.1-0.2-0.1-0.3-0.2C194.9,49.8,192.5,47.3,193.1,42.7"/>
			</g>
			<g>
				<path class="st6" d="M237.7,24.4h-10.8v39.2V39c0-6.6,4.4-12.4,10.8-14.1V24.4"/>
				<path class="st4" d="M241.5,24.4c-1.3,0-2.6,0.2-3.8,0.5V39c0-1.5,0.9-2.9,2.4-3.5c1.4-0.6,3.1-0.3,4.2,0.8l7.6-7.6
					C249.1,26,245.4,24.4,241.5,24.4"/>
				<path class="st7" d="M237.7,24.9c-6.4,1.7-10.8,7.5-10.8,14.1v24.6h10.8V24.9"/>
			</g>
		</g>
	</g>
</g>
<g id="Chicago" class="st11">
	<g class="st12">
		<g>
			<g>
				<path class="st9" d="M21.5,1.2C10,1.2,0.8,10.5,0.8,21.9v20.9c0,11.4,9.3,20.7,20.7,20.7s20.7-9.3,20.7-20.7H31.4
					c0,5.5-4.5,9.9-9.9,9.9c-5.5,0-9.9-4.5-9.9-9.9V21.9c0-5.5,4.5-9.9,9.9-9.9c5.5,0,9.9,4.5,9.9,9.9h10.8
					C42.2,10.5,32.9,1.2,21.5,1.2"/>
			</g>
			<g>
				<path class="st6" d="M66.7,24.5c-2.3,0-4.5,0.4-6.6,1.3v16.1c0-3.7,3-6.6,6.6-6.6c3.7,0,6.6,3,6.6,6.6v21.8h10.8V41.9
					C84.1,32.3,76.3,24.5,66.7,24.5"/>
				<path class="st4" d="M60.1,1.4H49.3v40.5c0-7,4.3-13.4,10.8-16.1V1.4"/>
				<path class="st7" d="M60.1,25.8c-6.5,2.7-10.8,9-10.8,16.1v21.8h10.8V41.9V25.8"/>
			</g>
			<g>
				<polyline class="st4" points="102,24.5 91.2,24.5 91.2,63.7 102,63.7 102,24.5 				"/>
				<polyline class="st3" points="102,1.5 91.2,1.5 91.2,12.9 102,12.9 102,1.5 				"/>
			</g>
			<g>
				<path class="st9" d="M127.8,24.3c-8.9,0-16.6,6-18.9,14.5s1.4,17.6,9.1,22.1s17.4,3.2,23.7-3.1l-7.6-7.6
					c-2.5,2.5-6.3,3.3-9.6,1.9c-3.3-1.4-5.5-4.6-5.5-8.2s2.2-6.8,5.5-8.2c3.3-1.4,7.1-0.6,9.6,1.9l7.6-7.6
					C138,26.4,133,24.3,127.8,24.3"/>
			</g>
			<g>
				<path class="st3" d="M184.9,24.5h-10.8v2.1c6.6,3.3,10.8,10.1,10.8,17.5V24.5 M184.9,44.1c0,7.4-4.2,14.2-10.8,17.5v2.1h10.8
					V44.1"/>
				<path class="st4" d="M165.3,24.5c-8.1,0-15.4,5-18.3,12.6s-0.9,16.1,5.1,21.6c6,5.4,14.8,6.6,22,3V44.1c0,3.6-2.2,6.8-5.5,8.2
					c-3.3,1.4-7.1,0.6-9.6-1.9c-2.5-2.5-3.3-6.3-1.9-9.6c1.4-3.3,4.6-5.5,8.2-5.5c4.9,0,8.8,4,8.8,8.8V26.6
					C171.4,25.2,168.4,24.4,165.3,24.5"/>
				<path class="st5" d="M174.1,26.6v17.5v17.5c6.6-3.3,10.8-10.1,10.8-17.5l0,0C184.9,36.7,180.7,29.9,174.1,26.6"/>
			</g>
			<g>
				<path class="st3" d="M210.7,24.5c-7.5,0-14.3,4.3-17.6,11c-3.3,6.7-2.5,14.7,2.1,20.6c2.3-2.1,5.3-3.2,8.3-3.2h7.1
					c-4.9,0-8.8-4-8.8-8.8s4-8.8,8.8-8.8c4.9,0,8.8,4,8.8,8.8l0,0V35c0-2.5,0.9-5,2.6-6.9C218.8,25.7,214.8,24.4,210.7,24.5"/>
				<path class="st4" d="M235.5,24.5h-5.4c-2.8,0-5.5,1.1-7.5,3.1c-0.2,0.2-0.4,0.4-0.5,0.6c5.2,3.7,8.2,9.6,8.2,15.9l0,0v-8.8h5.2
					V24.5 M229.5,49.6c-2.5,8.3-10.1,14-18.8,14l0,0C219.4,63.6,227,58,229.5,49.6 M195.3,56.1c-3.8,3.5-5.2,8.9-3.3,13.7
					c1.8,4.8,6.5,8,11.6,8h14.3c0.9,0,1.7,0.8,1.7,1.7s-0.8,1.7-1.7,1.7h-12.5V92h12.5c6.9,0,12.5-5.6,12.5-12.5
					c0-6.9-5.6-12.5-12.5-12.5h-14.3c-0.9,0-1.7-0.8-1.7-1.7c0-0.9,0.8-1.7,1.7-1.7h7.1C204.7,63.7,199,60.9,195.3,56.1"/>
				<path class="st5" d="M222.1,28.1c-1.7,1.9-2.6,4.4-2.6,6.9v9.1c0,4.9-4,8.8-8.8,8.8h-7.1c-3.1,0-6,1.1-8.3,3.2
					c3.7,4.8,9.4,7.6,15.5,7.6l0,0c8.5,0,16.1-5.5,18.7-13.6C232,41.9,229.1,33.1,222.1,28.1"/>
			</g>
			<g>
				<path class="st0" d="M260.4,24.4c-7.9,0-15.1,4.8-18.1,12.1c-3,7.3-1.4,15.8,4.2,21.4s14,7.3,21.4,4.2
					c7.3-3,12.1-10.2,12.1-18.1C280,33.2,271.3,24.4,260.4,24.4 M260.4,52.9c-3.6,0-6.8-2.2-8.2-5.5c-1.4-3.3-0.6-7.1,1.9-9.6
					c2.5-2.5,6.3-3.3,9.6-1.9c3.3,1.4,5.5,4.6,5.5,8.2C269.3,48.9,265.3,52.9,260.4,52.9"/>
			</g>
		</g>
	</g>
</g>
<g id="Boston" class="st11">
	<g class="st12">
		<g>
			<g>
				<path class="st0" d="M38.5,29.6c-3.4,5.1-9.1,8.2-15.3,8.2h6c4.1,0,7.5,3.4,7.5,7.5s-3.4,7.5-7.5,7.5H15.8v10.8H5h24.2
					c8.2,0,15.4-5.5,17.6-13.4S45.6,33.8,38.5,29.6"/>
				<path class="st4" d="M0.3,1.3L0.3,1.3v10.8H5v15h10.8v-15H0.3L0.3,1.3 M15.8,37.9H5v15h10.8V37.9"/>
				<polyline class="st16" points="15.8,52.8 5,52.8 5,63.6 15.8,63.6 15.8,52.8 				"/>
				<path class="st6" d="M23.3,1.3H5.7c5.6,0,10.1,4.5,10.1,10.1v0.7h7.5c2.7,0,5.2,1.4,6.5,3.7c1.4,2.3,1.4,5.2,0,7.5
					c-1.4,2.3-3.8,3.7-6.5,3.7h6c3.3,0,6.5,0.9,9.3,2.5c3.7-5.6,4-12.8,0.8-18.7C36.1,5,30,1.3,23.3,1.3"/>
				<path class="st17" d="M29.2,27.1H15.8v10.8h7.5c6.1,0,11.9-3.1,15.3-8.2C35.7,28,32.5,27.1,29.2,27.1"/>
				<path class="st7" d="M5.7,1.3H0.3v10.8h15.5v-0.7C15.8,5.9,11.3,1.3,5.7,1.3"/>
				<polyline class="st18" points="15.8,27.1 5,27.1 5,37.9 15.8,37.9 15.8,27.1 				"/>
			</g>
			<g>
				<path class="st0" d="M73.3,24.4c-7.9,0-15.1,4.8-18.1,12.1c-3,7.3-1.4,15.8,4.2,21.4s14,7.3,21.4,4.2c7.3-3,12.1-10.2,12.1-18.1
					C92.9,33.2,84.1,24.4,73.3,24.4 M73.3,52.9c-3.6,0-6.8-2.2-8.2-5.5c-1.4-3.3-0.6-7.1,1.9-9.6c2.5-2.5,6.3-3.3,9.6-1.9
					c3.3,1.4,5.5,4.6,5.5,8.2C82.1,48.9,78.2,52.9,73.3,52.9"/>
			</g>
			<g>
				<path class="st3" d="M125.6,24.4h-15.3c-6.9,0-12.5,5.6-12.5,12.5s5.6,12.5,12.5,12.5h6.4c0.9,0,1.7,0.8,1.7,1.7
					c0,0.9-0.8,1.7-1.7,1.7h-15.3v10.8h15.5c6.9-0.1,12.4-5.7,12.3-12.6s-5.6-12.4-12.5-12.4h-6.4c-1,0-1.7-0.8-1.7-1.7
					c0-1,0.8-1.7,1.7-1.7h15.3L125.6,24.4"/>
			</g>
			<g>
				<path class="st9" d="M147.1,1.3h-10.8v23.1h10.8V1.3 M147.1,35.2h-10.8v17.9c0,5.8,4.7,10.5,10.5,10.5h5.4V52.9h-5.2V35.2"/>
				<path class="st1" d="M152.3,24.4h-5.2v10.8h5.2V24.4 M136.4,24.4h-3.1v10.8h3.1V24.4"/>
				<polyline class="st15" points="147.1,24.4 136.4,24.4 136.4,35.2 147.1,35.2 147.1,24.4 				"/>
			</g>
			<g>
				<path class="st0" d="M177.2,24.4c-7.9,0-15.1,4.8-18.1,12.1c-3,7.3-1.4,15.8,4.2,21.4s14,7.3,21.4,4.2
					c7.3-3,12.1-10.2,12.1-18.1C196.8,33.2,188.1,24.4,177.2,24.4 M177.2,52.9c-3.6,0-6.8-2.2-8.2-5.5c-1.4-3.3-0.6-7.1,1.9-9.6
					c2.5-2.5,6.3-3.3,9.6-1.9c3.3,1.4,5.5,4.6,5.5,8.2C186.1,48.9,182.1,52.9,177.2,52.9"/>
			</g>
			<g>
				<path class="st6" d="M213.8,24.4h-10.8v39.2v-22c0-7,4.3-13.3,10.8-16V24.4"/>
				<path class="st1" d="M220.3,24.4c-2.2,0-4.4,0.4-6.5,1.3v16c0-3.6,2.9-6.5,6.5-6.5s6.5,2.9,6.5,6.5v22h10.8v-22
					C237.5,32.1,229.8,24.4,220.3,24.4"/>
				<path class="st14" d="M213.8,25.7c-6.5,2.6-10.8,9-10.8,16v22h10.8V25.7"/>
			</g>
		</g>
	</g>
</g>
<g id="Austin" class="st11">
	<g class="st12">
		<g>
			<g>
				<path class="st4" d="M22.8,1.3C11.4,1.4,2.1,10.6,2.1,22v41.6h10.8V41.5H2.1V30.7h10.8V22c0-5.5,4.4-9.9,9.9-9.9
					c5.5,0,9.9,4.4,9.9,9.9v8.7h10.8V22C43.5,10.6,34.2,1.4,22.8,1.3 M43.5,41.5H32.7v22.1h10.8V41.5"/>
				<polyline class="st3" points="32.7,30.7 12.9,30.7 12.9,41.5 32.7,41.5 32.7,30.7 				"/>
				<path class="st5" d="M43.5,30.7H32.7v10.8h10.8V30.7 M12.9,30.7H2.1v10.8h10.8V30.7"/>
			</g>
			<g>
				<path class="st1" d="M85,46.4c0,7-4.3,13.3-10.8,16v1.3H85L85,46.4"/>
				<path class="st6" d="M61.3,24.4H50.6v22c0,5.7,2.8,11.1,7.6,14.3c4.7,3.2,10.8,3.8,16.1,1.7v-16c0,3.6-2.9,6.5-6.5,6.5
					s-6.5-2.9-6.5-6.5L61.3,24.4"/>
				<path class="st14" d="M85,24.4H74.2v22v16c6.5-2.6,10.8-9,10.8-16L85,24.4"/>
			</g>
			<g>
				<path class="st3" d="M118.6,24.4h-15.3c-6.9,0-12.5,5.6-12.5,12.5s5.6,12.5,12.5,12.5h6.4c0.9,0,1.7,0.8,1.7,1.7
					c0,0.9-0.8,1.7-1.7,1.7H94.5v10.8h15.5c6.9-0.1,12.4-5.7,12.3-12.6s-5.6-12.4-12.5-12.4h-6.4c-1,0-1.7-0.8-1.7-1.7
					c0-1,0.8-1.7,1.7-1.7h15.3L118.6,24.4"/>
			</g>
			<g>
				<path class="st9" d="M140.2,1.3h-10.8v23.1h10.8V1.3 M140.2,35.2h-10.8v17.9c0,5.8,4.7,10.5,10.5,10.5h5.4V52.9h-5.2V35.2"/>
				<path class="st1" d="M145.3,24.4h-5.2v10.8h5.2V24.4 M129.4,24.4h-3.1v10.8h3.1V24.4"/>
				<polyline class="st15" points="140.2,24.4 129.4,24.4 129.4,35.2 140.2,35.2 140.2,24.4 				"/>
			</g>
			<g>
				<polyline class="st4" points="162.4,24.5 151.6,24.5 151.6,63.7 162.4,63.7 162.4,24.5 				"/>
				<polyline class="st3" points="162.4,1.5 151.6,1.5 151.6,12.9 162.4,12.9 162.4,1.5 				"/>
			</g>
			<g>
				<path class="st6" d="M180.3,24.4h-10.8v39.2v-22c0-7,4.3-13.3,10.8-16V24.4"/>
				<path class="st1" d="M186.7,24.4c-2.2,0-4.4,0.4-6.5,1.3v16c0-3.6,2.9-6.5,6.5-6.5s6.5,2.9,6.5,6.5v22h10.8v-22
					C203.9,32.1,196.2,24.4,186.7,24.4"/>
				<path class="st14" d="M180.3,25.7c-6.5,2.6-10.8,9-10.8,16v22h10.8V25.7"/>
			</g>
		</g>
	</g>
</g>
<g id="Atlanta" class="st11">
	<g class="st12">
		<g>
			<g>
				<path class="st4" d="M22.8,1.3C11.4,1.4,2.1,10.6,2.1,22v41.6h10.8V41.5H2.1V30.7h10.8V22c0-5.5,4.4-9.9,9.9-9.9
					c5.5,0,9.9,4.4,9.9,9.9v8.7h10.8V22C43.5,10.6,34.2,1.4,22.8,1.3 M43.5,41.5H32.7v22.1h10.8V41.5"/>
				<polyline class="st3" points="32.7,30.7 12.9,30.7 12.9,41.5 32.7,41.5 32.7,30.7 				"/>
				<path class="st5" d="M43.5,30.7H32.7v10.8h10.8V30.7 M12.9,30.7H2.1v10.8h10.8V30.7"/>
			</g>
			<g>
				<path class="st9" d="M62.7,1.3H51.9v23.1h10.8V1.3 M62.7,35.2H51.9v17.9c0,5.8,4.7,10.5,10.5,10.5h5.4V52.9h-5.2V35.2"/>
				<path class="st1" d="M67.8,24.4h-5.2v10.8h5.2V24.4 M51.9,24.4h-3.1v10.8h3.1V24.4"/>
				<polyline class="st15" points="62.7,24.4 51.9,24.4 51.9,35.2 62.7,35.2 62.7,24.4 				"/>
			</g>
			<g>
				<polyline class="st4" points="84.9,1.4 74.1,1.4 74.1,63.7 84.9,63.7 84.9,1.4 				"/>
			</g>
			<g>
				<path class="st3" d="M130.3,24.5h-10.8v2.1c6.6,3.3,10.8,10.1,10.8,17.5V24.5 M130.3,44.1c0,7.4-4.2,14.2-10.8,17.5v2.1h10.8
					V44.1"/>
				<path class="st4" d="M110.7,24.5c-8.1,0-15.4,5-18.3,12.6s-0.9,16.1,5.1,21.6c6,5.4,14.8,6.6,22,3V44.1c0,3.6-2.2,6.8-5.5,8.2
					c-3.3,1.4-7.1,0.6-9.6-1.9c-2.5-2.5-3.3-6.3-1.9-9.6c1.4-3.3,4.6-5.5,8.2-5.5c4.9,0,8.8,4,8.8,8.8V26.6
					C116.8,25.2,113.8,24.4,110.7,24.5"/>
				<path class="st5" d="M119.5,26.6v17.5v17.5c6.6-3.3,10.8-10.1,10.8-17.5l0,0C130.3,36.7,126.1,29.9,119.5,26.6"/>
			</g>
			<g>
				<path class="st6" d="M148.2,24.4h-10.8v39.2v-22c0-7,4.3-13.3,10.8-16V24.4"/>
				<path class="st1" d="M154.6,24.4c-2.2,0-4.4,0.4-6.5,1.3v16c0-3.6,2.9-6.5,6.5-6.5s6.5,2.9,6.5,6.5v22h10.8v-22
					C171.9,32.1,164.2,24.4,154.6,24.4"/>
				<path class="st14" d="M148.2,25.7c-6.5,2.6-10.8,9-10.8,16v22h10.8V25.7"/>
			</g>
			<g>
				<path class="st9" d="M191.1,1.3h-10.8v23.1h10.8V1.3 M191.1,35.2h-10.8v17.9c0,5.8,4.7,10.5,10.5,10.5h5.4V52.9h-5.2V35.2"/>
				<path class="st1" d="M196.3,24.4h-5.2v10.8h5.2V24.4 M180.4,24.4h-3.1v10.8h3.1V24.4"/>
				<polyline class="st15" points="191.1,24.4 180.4,24.4 180.4,35.2 191.1,35.2 191.1,24.4 				"/>
			</g>
			<g>
				<path class="st3" d="M240.9,24.5h-10.8v2.1c6.6,3.3,10.8,10.1,10.8,17.5V24.5 M240.9,44.1c0,7.4-4.2,14.2-10.8,17.5v2.1h10.8
					V44.1"/>
				<path class="st4" d="M221.3,24.5c-8.1,0-15.4,5-18.3,12.6s-0.9,16.1,5.1,21.6c6,5.4,14.8,6.6,22,3V44.1c0,3.6-2.2,6.8-5.5,8.2
					c-3.3,1.4-7.1,0.6-9.6-1.9c-2.5-2.5-3.3-6.3-1.9-9.6c1.4-3.3,4.6-5.5,8.2-5.5c4.9,0,8.8,4,8.8,8.8V26.6
					C227.3,25.2,224.3,24.4,221.3,24.5"/>
				<path class="st5" d="M230.1,26.6v17.5v17.5c6.6-3.3,10.8-10.1,10.8-17.5l0,0C240.9,36.7,236.7,29.9,230.1,26.6"/>
			</g>
		</g>
	</g>
</g>
<g id="Houston">
	<g>
		<g>
			<path class="st4" d="M43.6,1.4H32.8v25.7h10.8V1.4 M43.6,37.9H32.8v25.7h10.8V37.9"/>
			<polyline class="st6" points="32.8,27.1 12.9,27.1 12.9,37.9 32.8,37.9 32.8,27.1 			"/>
			<polyline class="st7" points="43.6,27.1 32.8,27.1 32.8,37.9 43.6,37.9 43.6,27.1 			"/>
			<path class="st4" d="M12.9,1.4H2.1v25.7h10.8V1.4 M12.9,37.9H2.1v25.8h10.8V37.9"/>
			<polyline class="st7" points="12.9,27.1 2.1,27.1 2.1,37.9 12.9,37.9 12.9,27.1 			"/>
		</g>
		<g>
			<path class="st0" d="M69.4,24.4c-7.9,0-15.1,4.8-18.1,12.1c-3,7.3-1.4,15.8,4.2,21.4s14,7.3,21.4,4.2C84.2,59.1,89,52,89,44
				C89,33.2,80.2,24.4,69.4,24.4 M69.4,52.9c-3.6,0-6.8-2.2-8.2-5.5c-1.4-3.3-0.6-7.1,1.9-9.6c2.5-2.5,6.3-3.3,9.6-1.9
				c3.3,1.4,5.5,4.6,5.5,8.2C78.2,48.9,74.2,52.9,69.4,52.9"/>
		</g>
		<g>
			<path class="st1" d="M129.6,46.4c0,7-4.3,13.3-10.8,16v1.3h10.8L129.6,46.4"/>
			<path class="st6" d="M106,24.4H95.2v22c0,5.7,2.8,11.1,7.6,14.3c4.7,3.2,10.8,3.8,16.1,1.7v-16c0,3.6-2.9,6.5-6.5,6.5
				S106,50,106,46.4L106,24.4"/>
			<path class="st14" d="M129.6,24.4h-10.8v22v16c6.5-2.6,10.8-9,10.8-16L129.6,24.4"/>
		</g>
		<g>
			<path class="st3" d="M163.2,24.4H148c-6.9,0-12.5,5.6-12.5,12.5s5.6,12.5,12.5,12.5h6.4c0.9,0,1.7,0.8,1.7,1.7
				c0,0.9-0.8,1.7-1.7,1.7h-15.3v10.8h15.5c6.9-0.1,12.4-5.7,12.3-12.6s-5.6-12.4-12.5-12.4H148c-1,0-1.7-0.8-1.7-1.7
				c0-1,0.8-1.7,1.7-1.7h15.3L163.2,24.4"/>
		</g>
		<g>
			<path class="st9" d="M184.8,1.3H174v23.1h10.8V1.3 M184.8,35.2H174v17.9c0,5.8,4.7,10.5,10.5,10.5h5.4V52.9h-5.2V35.2"/>
			<path class="st1" d="M190,24.4h-5.2v10.8h5.2V24.4 M174,24.4h-3.1v10.8h3.1V24.4"/>
			<polyline class="st15" points="184.8,24.4 174,24.4 174,35.2 184.8,35.2 184.8,24.4 			"/>
		</g>
		<g>
			<path class="st0" d="M214.9,24.4c-7.9,0-15.1,4.8-18.1,12.1c-3,7.3-1.4,15.8,4.2,21.4s14,7.3,21.4,4.2c7.3-3,12.1-10.2,12.1-18.1
				C234.5,33.2,225.7,24.4,214.9,24.4 M214.9,52.9c-3.6,0-6.8-2.2-8.2-5.5c-1.4-3.3-0.6-7.1,1.9-9.6c2.5-2.5,6.3-3.3,9.6-1.9
				c3.3,1.4,5.5,4.6,5.5,8.2C223.8,48.9,219.8,52.9,214.9,52.9"/>
		</g>
		<g>
			<path class="st6" d="M251.5,24.4h-10.8v39.2v-22c0-7,4.3-13.3,10.8-16V24.4"/>
			<path class="st1" d="M258,24.4c-2.2,0-4.4,0.4-6.5,1.3v16c0-3.6,2.9-6.5,6.5-6.5s6.5,2.9,6.5,6.5v22h10.8v-22
				C275.2,32.1,267.5,24.4,258,24.4"/>
			<path class="st14" d="M251.5,25.7c-6.5,2.6-10.8,9-10.8,16v22h10.8V25.7"/>
		</g>
	</g>
</g>
</svg>
