<?xml version="1.0" encoding="utf-8"?>
<!-- Generator: Adobe Illustrator 22.1.0, SVG Export Plug-In . SVG Version: 6.00 Build 0)  -->
<svg version="1.1" xmlns="http://www.w3.org/2000/svg" xmlns:xlink="http://www.w3.org/1999/xlink" x="0px" y="0px"
	 viewBox="0 0 533 94.5" style="enable-background:new 0 0 533 94.5;" xml:space="preserve">
<style type="text/css">
	.st0{fill:#FFC843;}
	.st1{fill:#46B978;}
	.st2{fill:#15A24A;}
	.st3{fill:#EF473E;}
	.st4{fill:#00B3E2;}
	.st5{fill:#022F32;}
	.st6{fill:#C64A9B;}
	.st7{fill:#273A92;}
	.st8{fill:#0E2616;}
	.st9{fill:#F36C21;}
	.st10{fill:#D82126;}
	.st11{display:none;}
	.st12{display:inline;}
	.st13{fill:#0B361D;}
	.st14{fill:#163056;}
	.st15{fill:#1F572B;}
	.st16{fill:#028C45;}
	.st17{fill:#DA2E2E;}
	.st18{fill:#072029;}
	.st19{fill:#204B24;}
</style>
<g id="Layer_1">
	<g id="Layer_5">
	</g>
</g>
<g id="WashingtonDC" class="st11">
	<g class="st12">
		<g>
			<path class="st3" d="M28.7,1.3L28.7,1.3v43.6c0,4.4-3.5,7.9-7.9,7.9c-4.4,0-7.9-3.5-7.9-7.9V1.3H2.1v43.6
				c0,7.6,4.6,14.4,11.6,17.3c7,2.9,15.1,1.2,20.4-4.2c-3.5-3.5-5.4-8.2-5.4-13.1V1.3"/>
			<path class="st1" d="M66.1,1.3H55.3v43.6c0,4.4-3.5,7.9-7.9,7.9c-4.4,0-7.9-3.5-7.9-7.9V1.3v43.6c0,4.9-1.9,9.6-5.4,13.1
				c5.3,5.4,13.4,7.1,20.4,4.2c7-2.9,11.6-9.7,11.6-17.3L66.1,1.3"/>
			<path class="st13" d="M39.5,1.3H28.7v43.6c0,4.9,1.9,9.6,5.4,13.1c3.5-3.5,5.4-8.2,5.4-13.1V1.3"/>
		</g>
		<g>
			<path class="st3" d="M111.5,24.5h-10.8v2.1c6.6,3.3,10.8,10.1,10.8,17.5V24.5 M111.5,44.1c0,7.4-4.2,14.2-10.8,17.5v2.1h10.8
				V44.1"/>
			<path class="st4" d="M91.9,24.5c-8.1,0-15.4,5-18.3,12.6s-0.9,16.1,5.1,21.6c6,5.4,14.8,6.6,22,3V44.1c0,3.6-2.2,6.8-5.5,8.2
				c-3.3,1.4-7.1,0.6-9.6-1.9c-2.5-2.5-3.3-6.3-1.9-9.6c1.4-3.3,4.6-5.5,8.2-5.5c4.9,0,8.8,4,8.8,8.8V26.6
				C98,25.2,95,24.4,91.9,24.5"/>
			<path class="st5" d="M100.7,26.6v17.5v17.5c6.6-3.3,10.8-10.1,10.8-17.5l0,0C111.5,36.7,107.3,29.9,100.7,26.6"/>
		</g>
		<g>
			<path class="st3" d="M145.1,24.4h-15.3c-6.9,0-12.5,5.6-12.5,12.5s5.6,12.5,12.5,12.5h6.4c0.9,0,1.7,0.8,1.7,1.7
				c0,0.9-0.8,1.7-1.7,1.7h-15.3v10.8h15.5c6.9-0.1,12.4-5.7,12.3-12.6s-5.6-12.4-12.5-12.4h-6.4c-1,0-1.7-0.8-1.7-1.7
				c0-1,0.8-1.7,1.7-1.7h15.3L145.1,24.4"/>
		</g>
		<g>
			<path class="st6" d="M171.9,24.5c-2.3,0-4.5,0.4-6.6,1.3v16.1c0-3.7,3-6.6,6.6-6.6c3.7,0,6.6,3,6.6,6.6v21.8h10.8V41.9
				C189.3,32.3,181.5,24.5,171.9,24.5"/>
			<path class="st4" d="M165.3,1.4h-10.8v40.5c0-7,4.3-13.4,10.8-16.1V1.4"/>
			<path class="st7" d="M165.3,25.8c-6.5,2.7-10.8,9-10.8,16.1v21.8h10.8V41.9V25.8"/>
		</g>
		<g>
			<polyline class="st4" points="207.2,24.5 196.4,24.5 196.4,63.7 207.2,63.7 207.2,24.5 			"/>
			<polyline class="st3" points="207.2,1.5 196.4,1.5 196.4,12.9 207.2,12.9 207.2,1.5 			"/>
		</g>
		<g>
			<path class="st6" d="M225.1,24.4h-10.8v39.2v-22c0-7,4.3-13.3,10.8-16V24.4"/>
			<path class="st1" d="M231.5,24.4c-2.2,0-4.4,0.4-6.5,1.3v16c0-3.6,2.9-6.5,6.5-6.5s6.5,2.9,6.5,6.5v22h10.8v-22
				C248.7,32.1,241,24.4,231.5,24.4"/>
			<path class="st14" d="M225.1,25.7c-6.5,2.6-10.8,9-10.8,16v22h10.8V25.7"/>
		</g>
		<g>
			<path class="st3" d="M274.6,24.5c-7.5,0-14.3,4.3-17.6,11c-3.3,6.7-2.5,14.7,2.1,20.6c2.3-2.1,5.3-3.2,8.3-3.2h7.1
				c-4.9,0-8.8-4-8.8-8.8s4-8.8,8.8-8.8c4.9,0,8.8,4,8.8,8.8l0,0V35c0-2.5,0.9-5,2.6-6.9C282.7,25.7,278.7,24.4,274.6,24.5"/>
			<path class="st4" d="M299.4,24.5H294c-2.8,0-5.5,1.1-7.5,3.1c-0.2,0.2-0.4,0.4-0.5,0.6c5.2,3.7,8.2,9.6,8.2,15.9l0,0v-8.8h5.2
				V24.5 M293.4,49.6c-2.5,8.3-10.1,14-18.8,14l0,0C283.3,63.6,290.9,58,293.4,49.6 M259.1,56.1c-3.8,3.5-5.2,8.9-3.3,13.7
				c1.8,4.8,6.5,8,11.6,8h14.3c0.9,0,1.7,0.8,1.7,1.7s-0.8,1.7-1.7,1.7h-12.5V92h12.5c6.9,0,12.5-5.6,12.5-12.5
				c0-6.9-5.6-12.5-12.5-12.5h-14.3c-0.9,0-1.7-0.8-1.7-1.7c0-0.9,0.8-1.7,1.7-1.7h7.1C268.6,63.7,262.9,60.9,259.1,56.1"/>
			<path class="st5" d="M286,28.1c-1.7,1.9-2.6,4.4-2.6,6.9v9.1c0,4.9-4,8.8-8.8,8.8h-7.1c-3.1,0-6,1.1-8.3,3.2
				c3.7,4.8,9.4,7.6,15.5,7.6l0,0c8.5,0,16.1-5.5,18.7-13.6C295.9,41.9,292.9,33.1,286,28.1"/>
		</g>
		<g>
			<path class="st9" d="M317.7,1.3H307v23.1h10.8V1.3 M317.7,35.2H307v17.9c0,5.8,4.7,10.5,10.5,10.5h5.4V52.9h-5.2V35.2"/>
			<path class="st1" d="M322.9,24.4h-5.2v10.8h5.2V24.4 M307,24.4h-3.1v10.8h3.1V24.4"/>
			<polyline class="st15" points="317.7,24.4 307,24.4 307,35.2 317.7,35.2 317.7,24.4 			"/>
		</g>
		<g>
			<path class="st0" d="M347.8,24.4c-7.9,0-15.1,4.8-18.1,12.1c-3,7.3-1.4,15.8,4.2,21.4s14,7.3,21.4,4.2c7.3-3,12.1-10.2,12.1-18.1
				C367.4,33.2,358.7,24.4,347.8,24.4 M347.8,52.9c-3.6,0-6.8-2.2-8.2-5.5c-1.4-3.3-0.6-7.1,1.9-9.6c2.5-2.5,6.3-3.3,9.6-1.9
				c3.3,1.4,5.5,4.6,5.5,8.2C356.7,48.9,352.7,52.9,347.8,52.9"/>
		</g>
		<g>
			<path class="st6" d="M384.4,24.4h-10.8v39.2v-22c0-7,4.3-13.3,10.8-16V24.4"/>
			<path class="st1" d="M390.9,24.4c-2.2,0-4.4,0.4-6.5,1.3v16c0-3.6,2.9-6.5,6.5-6.5s6.5,2.9,6.5,6.5v22h10.8v-22
				C408.1,32.1,400.4,24.4,390.9,24.4"/>
			<path class="st14" d="M384.4,25.7c-6.5,2.6-10.8,9-10.8,16v22h10.8V25.7"/>
		</g>
		<g>
			<path class="st1" d="M463.6,1.3h-19.2c5.6,0,10.1,4.5,10.1,10.1v0.7h9.1c5.1,0,9.2,4.1,9.2,9.2v22.4c0,5.1-4.1,9.2-9.2,9.2h-9.1
				v10.8h-10.8h19.9c11,0,19.9-8.9,20-20V21.3C483.6,10.3,474.6,1.4,463.6,1.3"/>
			<polyline class="st6" points="454.5,12.1 443.7,12.1 443.7,52.9 454.5,52.9 454.5,12.1 			"/>
			<path class="st14" d="M444.4,1.3h-5.4v10.8h15.5v-0.7C454.5,5.9,450,1.3,444.4,1.3 M454.5,52.9h-10.8v10.8h10.8V52.9"/>
		</g>
		<g>
			<path class="st9" d="M511.4,1.2c-11.4,0-20.7,9.3-20.7,20.7v20.9c0,11.4,9.3,20.7,20.7,20.7s20.7-9.3,20.7-20.7h-10.8
				c0,5.5-4.5,9.9-9.9,9.9c-5.5,0-9.9-4.5-9.9-9.9V21.9c0-5.5,4.5-9.9,9.9-9.9c5.5,0,9.9,4.5,9.9,9.9h10.8
				C532.2,10.5,522.9,1.2,511.4,1.2"/>
		</g>
	</g>
</g>
<g id="Seatlle" class="st11">
	<g class="st12">
		<g>
			<path class="st3" d="M21-0.4C10.7-0.4,2.6,7,2.1,16.9c-0.3,6.3,2.5,14.9,17.1,20c10,3.4,9.8,7.7,9.7,9.1c-0.2,3.9-3.5,6.7-8,6.7
				c-5.3,0-7.5-2.6-8.3-4.9L2.5,51.7c1.1,2.8,5.5,12,18.6,12c10.4,0,18.5-7.4,18.9-17.2c0.3-6.3-2.5-14.9-17.1-20
				c-10-3.4-9.8-7.7-9.7-9.1c0.2-3.9,3.5-6.7,8-6.7c5.3,0,7.5,2.6,8.3,4.9l10.3-3.9C38.6,8.8,34.1-0.4,21-0.4"/>
		</g>
		<g>
			<path class="st9" d="M65.8,24.5c-10.8,0-19.6,8.8-19.6,19.6c0,11,8.9,19.6,20.2,19.6c5.8,0,10.5-1.9,15.7-6.2l-7-8.2
				c-3.2,2.7-5.7,3.5-8.9,3.5c-1.6,0.1-3.2-0.4-4.5-1.2l-0.4,0.1l-10.9,4.5c-2-2.6-3.4-5.6-3.9-8.8l11.1-4.6v0c0.3-3,2.2-5.6,5-6.8
				c1-0.4,2-0.6,3.1-0.6c1.9,0,3.7,0.6,5.2,1.8c0.1,0,0.1,0.1,0.2,0.1l10.8-4.5c0.7,1,1.4,2.2,1.9,3.3C80.5,29,73.5,24.4,65.8,24.5
				 M83.7,36.1L83.7,36.1L83.7,36.1 M83.7,36.2L83.7,36.2L83.7,36.2 M83.8,36.2L83.8,36.2L83.8,36.2 M83.8,36.3L83.8,36.3L83.8,36.3
				 M86,41.4l-10.9,4.5L86,41.4"/>
			<path class="st6" d="M83.7,36L83.7,36L83.7,36 M83.7,36.1L83.7,36.1L83.7,36.1 M83.7,36.2L83.7,36.2L83.7,36.2 M83.8,36.3
				L83.8,36.3L83.8,36.3 M83.8,36.3L83.8,36.3l2.1,5.1L83.8,36.3L83.8,36.3 M71,37.2l-6.7,2.8l-6.4,2.6l-0.4,0.2
				c-0.5,4.6,1.8,7.1,3.8,8.5c0.1,0.1,0.2,0.2,0.3,0.2l12-5l1.5-0.6C75.1,45.9,73.8,39.8,71,37.2"/>
			<path class="st10" d="M81.8,32.7L71,37.2c2.9,2.6,4.1,8.7,4.2,8.7L86,41.4l-2.1-5l0-0.1l0,0l0-0.1l0,0l0-0.1l0,0l0-0.1l0,0l0,0
				C83.2,34.9,82.5,33.8,81.8,32.7 M57.5,42.7l-11.1,4.6c0.5,3.2,1.9,6.3,3.9,8.8l10.9-4.5l0.4-0.1c-0.1-0.1-0.2-0.1-0.3-0.2
				C59.4,49.8,57,47.3,57.5,42.7"/>
		</g>
		<g>
			<path class="st3" d="M129.7,24.5h-10.8v2.1c6.6,3.3,10.8,10.1,10.8,17.5V24.5 M129.7,44.1c0,7.4-4.2,14.2-10.8,17.5v2.1h10.8
				V44.1"/>
			<path class="st4" d="M110.1,24.5c-8.1,0-15.4,5-18.3,12.6s-0.9,16.1,5.1,21.6c6,5.4,14.8,6.6,22,3V44.1c0,3.6-2.2,6.8-5.5,8.2
				c-3.3,1.4-7.1,0.6-9.6-1.9c-2.5-2.5-3.3-6.3-1.9-9.6c1.4-3.3,4.6-5.5,8.2-5.5c4.9,0,8.8,4,8.8,8.8V26.6
				C116.2,25.2,113.1,24.4,110.1,24.5"/>
			<path class="st5" d="M118.9,26.6v17.5v17.5c6.6-3.3,10.8-10.1,10.8-17.5l0,0C129.7,36.7,125.5,29.9,118.9,26.6"/>
		</g>
		<g>
			<path class="st9" d="M148.9,1.3h-10.8v23.1h10.8V1.3 M148.9,35.2h-10.8v17.9c0,5.8,4.7,10.5,10.5,10.5h5.4V52.9h-5.2V35.2"/>
			<path class="st1" d="M154.1,24.4h-5.2v10.8h5.2V24.4 M138.1,24.4H135v10.8h3.1V24.4"/>
			<polyline class="st15" points="148.9,24.4 138.1,24.4 138.1,35.2 148.9,35.2 148.9,24.4 			"/>
		</g>
		<g>
			<path class="st9" d="M172.4,1.3h-10.8v23.1h10.8V1.3 M172.4,35.2h-10.8v17.9c0,5.8,4.7,10.5,10.5,10.5h5.4V52.9h-5.2V35.2"/>
			<path class="st1" d="M177.6,24.4h-5.2v10.8h5.2V24.4 M161.7,24.4h-3.1v10.8h3.1V24.4"/>
			<polyline class="st15" points="172.4,24.4 161.7,24.4 161.7,35.2 172.4,35.2 172.4,24.4 			"/>
		</g>
		<g>
			<polyline class="st4" points="194.6,1.4 183.8,1.4 183.8,63.7 194.6,63.7 194.6,1.4 			"/>
		</g>
		<g>
			<path class="st9" d="M220.4,24.5c-10.8,0-19.6,8.8-19.6,19.6c0,11,8.9,19.6,20.2,19.6c5.8,0,10.5-1.9,15.7-6.2l-7-8.2
				c-3.2,2.7-5.7,3.5-8.9,3.5c-1.6,0.1-3.2-0.4-4.5-1.2l-0.4,0.1L205,56.1c-2-2.6-3.4-5.6-3.9-8.8l11.1-4.6v0c0.3-3,2.2-5.6,5-6.8
				c1-0.4,2-0.6,3.1-0.6c1.9,0,3.7,0.6,5.2,1.8c0.1,0,0.1,0.1,0.2,0.1l10.8-4.5c0.7,1,1.4,2.2,1.9,3.3
				C235.2,29,228.2,24.4,220.4,24.5 M238.4,36.1L238.4,36.1L238.4,36.1 M238.4,36.2L238.4,36.2L238.4,36.2 M238.4,36.2L238.4,36.2
				L238.4,36.2 M238.5,36.3L238.5,36.3L238.5,36.3 M240.6,41.4l-10.9,4.5L240.6,41.4"/>
			<path class="st6" d="M238.3,36L238.3,36L238.3,36 M238.4,36.1L238.4,36.1L238.4,36.1 M238.4,36.2L238.4,36.2L238.4,36.2
				 M238.4,36.3L238.4,36.3L238.4,36.3 M238.5,36.3L238.5,36.3l2.1,5.1L238.5,36.3L238.5,36.3 M225.6,37.2l-6.7,2.8l-6.4,2.6
				l-0.4,0.2c-0.5,4.6,1.8,7.1,3.8,8.5c0.1,0.1,0.2,0.2,0.3,0.2l12-5l1.5-0.6C229.8,45.9,228.5,39.8,225.6,37.2"/>
			<path class="st10" d="M236.4,32.7l-10.8,4.5c2.9,2.6,4.1,8.7,4.2,8.7l10.9-4.5l-2.1-5l0-0.1l0,0l0-0.1l0,0l0-0.1l0,0l0-0.1l0,0
				l0,0C237.8,34.9,237.2,33.8,236.4,32.7 M212.2,42.7l-11.1,4.6c0.5,3.2,1.9,6.3,3.9,8.8l10.9-4.5l0.4-0.1
				c-0.1-0.1-0.2-0.1-0.3-0.2C214,49.8,211.6,47.3,212.2,42.7"/>
		</g>
	</g>
</g>
<g id="SanFrancisco" class="st11">
	<g class="st12">
		<g>
			<path class="st3" d="M21-0.4C10.7-0.4,2.6,7,2.1,16.9c-0.3,6.3,2.5,14.9,17.1,20c10,3.4,9.8,7.7,9.7,9.1c-0.2,3.9-3.5,6.7-8,6.7
				c-5.3,0-7.5-2.6-8.3-4.9L2.5,51.7c1.1,2.8,5.5,12,18.6,12c10.4,0,18.5-7.4,18.9-17.2c0.3-6.3-2.5-14.9-17.1-20
				c-10-3.4-9.8-7.7-9.7-9.1c0.2-3.9,3.5-6.7,8-6.7c5.3,0,7.5,2.6,8.3,4.9l10.3-3.9C38.6,8.8,34.1-0.4,21-0.4"/>
		</g>
		<g>
			<path class="st3" d="M85.4,24.5H74.6v2.1c6.6,3.3,10.8,10.1,10.8,17.5V24.5 M85.4,44.1c0,7.4-4.2,14.2-10.8,17.5v2.1h10.8V44.1"
				/>
			<path class="st4" d="M65.8,24.5c-8.1,0-15.4,5-18.3,12.6s-0.9,16.1,5.1,21.6c6,5.4,14.8,6.6,22,3V44.1c0,3.6-2.2,6.8-5.5,8.2
				c-3.3,1.4-7.1,0.6-9.6-1.9c-2.5-2.5-3.3-6.3-1.9-9.6c1.4-3.3,4.6-5.5,8.2-5.5c4.9,0,8.8,4,8.8,8.8V26.6
				C71.9,25.2,68.9,24.4,65.8,24.5"/>
			<path class="st5" d="M74.6,26.6v17.5v17.5c6.6-3.3,10.8-10.1,10.8-17.5l0,0C85.4,36.7,81.2,29.9,74.6,26.6"/>
		</g>
		<g>
			<path class="st6" d="M103.3,24.4H92.5v39.2v-22c0-7,4.3-13.3,10.8-16V24.4"/>
			<path class="st1" d="M109.7,24.4c-2.2,0-4.4,0.4-6.5,1.3v16c0-3.6,2.9-6.5,6.5-6.5s6.5,2.9,6.5,6.5v22H127v-22
				C127,32.1,119.3,24.4,109.7,24.4"/>
			<path class="st14" d="M103.3,25.7c-6.5,2.6-10.8,9-10.8,16v22h10.8V25.7"/>
		</g>
		<g>
			<path class="st0" d="M159.7,19.6L159.7,19.6v44h10.8V36.3C163.9,33.3,159.7,26.8,159.7,19.6"/>
			<path class="st4" d="M170.5,19.6L170.5,19.6v16.7c2.4,1.1,4.9,1.6,7.5,1.6h19.9V27.1H178C173.8,27.1,170.5,23.8,170.5,19.6"/>
			<path class="st16" d="M197.9,1.3H178c-8.6,0-16.1,6-17.9,14.4s2.5,17,10.4,20.5V19.6c0-4.1,3.4-7.5,7.5-7.5h19.9V1.3"/>
		</g>
		<g>
			<path class="st6" d="M215.8,24.4H205v39.2V39c0-6.6,4.4-12.4,10.8-14.1V24.4"/>
			<path class="st4" d="M219.6,24.4c-1.3,0-2.6,0.2-3.8,0.5V39c0-1.5,0.9-2.9,2.4-3.5c1.4-0.6,3.1-0.3,4.2,0.8l7.6-7.6
				C227.2,26,223.5,24.4,219.6,24.4"/>
			<path class="st7" d="M215.8,24.9C209.4,26.7,205,32.4,205,39v24.6h10.8V24.9"/>
		</g>
		<g>
			<path class="st3" d="M269.2,24.5h-10.8v2.1c6.6,3.3,10.8,10.1,10.8,17.5V24.5 M269.2,44.1c0,7.4-4.2,14.2-10.8,17.5v2.1h10.8
				V44.1"/>
			<path class="st4" d="M249.6,24.5c-8.1,0-15.4,5-18.3,12.6s-0.9,16.1,5.1,21.6c6,5.4,14.8,6.6,22,3V44.1c0,3.6-2.2,6.8-5.5,8.2
				c-3.3,1.4-7.1,0.6-9.6-1.9c-2.5-2.5-3.3-6.3-1.9-9.6c1.4-3.3,4.6-5.5,8.2-5.5c4.9,0,8.8,4,8.8,8.8V26.6
				C255.7,25.2,252.7,24.4,249.6,24.5"/>
			<path class="st5" d="M258.4,26.6v17.5v17.5c6.6-3.3,10.8-10.1,10.8-17.5l0,0C269.2,36.7,265,29.9,258.4,26.6"/>
		</g>
		<g>
			<path class="st6" d="M287.1,24.4h-10.8v39.2v-22c0-7,4.3-13.3,10.8-16V24.4"/>
			<path class="st1" d="M293.5,24.4c-2.2,0-4.4,0.4-6.5,1.3v16c0-3.6,2.9-6.5,6.5-6.5s6.5,2.9,6.5,6.5v22h10.8v-22
				C310.7,32.1,303,24.4,293.5,24.4"/>
			<path class="st14" d="M287.1,25.7c-6.5,2.6-10.8,9-10.8,16v22h10.8V25.7"/>
		</g>
		<g>
			<path class="st9" d="M336.6,24.3c-8.9,0-16.6,6-18.9,14.5s1.4,17.6,9.1,22.1s17.4,3.2,23.7-3.1l-7.6-7.6
				c-2.5,2.5-6.3,3.3-9.6,1.9c-3.3-1.4-5.5-4.6-5.5-8.2s2.2-6.8,5.5-8.2c3.3-1.4,7.1-0.6,9.6,1.9l7.6-7.6
				C346.8,26.4,341.8,24.3,336.6,24.3"/>
		</g>
		<g>
			<polyline class="st4" points="366.2,24.5 355.4,24.5 355.4,63.7 366.2,63.7 366.2,24.5 			"/>
			<polyline class="st3" points="366.2,1.5 355.4,1.5 355.4,12.9 366.2,12.9 366.2,1.5 			"/>
		</g>
		<g>
			<path class="st3" d="M399.8,24.4h-15.3c-6.9,0-12.5,5.6-12.5,12.5s5.6,12.5,12.5,12.5h6.4c0.9,0,1.7,0.8,1.7,1.7
				c0,0.9-0.8,1.7-1.7,1.7h-15.3v10.8h15.5c6.9-0.1,12.4-5.7,12.3-12.6s-5.6-12.4-12.5-12.4h-6.4c-1,0-1.7-0.8-1.7-1.7
				c0-1,0.8-1.7,1.7-1.7h15.3L399.8,24.4"/>
		</g>
		<g>
			<path class="st9" d="M427.9,24.3c-8.9,0-16.6,6-18.9,14.5s1.4,17.6,9.1,22.1s17.4,3.2,23.7-3.1l-7.6-7.6
				c-2.5,2.5-6.3,3.3-9.6,1.9c-3.3-1.4-5.5-4.6-5.5-8.2s2.2-6.8,5.5-8.2c3.3-1.4,7.1-0.6,9.6,1.9l7.6-7.6
				C438.1,26.4,433.1,24.3,427.9,24.3"/>
		</g>
		<g>
			<path class="st0" d="M463.6,24.4c-7.9,0-15.1,4.8-18.1,12.1c-3,7.3-1.4,15.8,4.2,21.4s14,7.3,21.4,4.2c7.3-3,12.1-10.2,12.1-18.1
				C483.2,33.2,474.5,24.4,463.6,24.4 M463.6,52.9c-3.6,0-6.8-2.2-8.2-5.5c-1.4-3.3-0.6-7.1,1.9-9.6c2.5-2.5,6.3-3.3,9.6-1.9
				c3.3,1.4,5.5,4.6,5.5,8.2C472.5,48.9,468.5,52.9,463.6,52.9"/>
		</g>
	</g>
</g>
<g id="Portland" class="st11">
	<g class="st12">
		<g>
			<polyline class="st0" points="0.3,1.2 0.3,1.2 0.3,12 5,12 5,63.6 15.8,63.6 15.8,37.8 5,37.8 5,27 15.8,27 15.8,12 0.3,12 
				0.3,1.2 			"/>
			<path class="st1" d="M23.3,1.2H5.7c5.6,0,10.1,4.5,10.1,10.1V12h7.5c4.1,0,7.5,3.4,7.5,7.5S27.4,27,23.3,27h-7.5v10.8h7.5
				c10.1,0,18.3-8.2,18.3-18.3S33.4,1.2,23.3,1.2"/>
			<path class="st2" d="M5.7,1.2H0.3V12h15.5v-0.7C15.8,5.8,11.3,1.3,5.7,1.2 M15.8,27H5v10.8h10.8V27"/>
		</g>
		<g>
			<path class="st0" d="M60.3,24.4c-7.9,0-15.1,4.8-18.1,12.1c-3,7.3-1.4,15.8,4.2,21.4s14,7.3,21.4,4.2c7.3-3,12.1-10.2,12.1-18.1
				C79.9,33.2,71.1,24.4,60.3,24.4 M60.3,52.9c-3.6,0-6.8-2.2-8.2-5.5c-1.4-3.3-0.6-7.1,1.9-9.6c2.5-2.5,6.3-3.3,9.6-1.9
				c3.3,1.4,5.5,4.6,5.5,8.2C69.1,48.9,65.2,52.9,60.3,52.9"/>
		</g>
		<g>
			<path class="st6" d="M96.9,24.4H86.1v39.2V39c0-6.6,4.4-12.4,10.8-14.1V24.4"/>
			<path class="st4" d="M100.7,24.4c-1.3,0-2.6,0.2-3.8,0.5V39c0-1.5,0.9-2.9,2.4-3.5c1.4-0.6,3.1-0.3,4.2,0.8l7.6-7.6
				C108.3,26,104.6,24.4,100.7,24.4"/>
			<path class="st7" d="M96.9,24.9c-6.4,1.7-10.8,7.5-10.8,14.1v24.6h10.8V24.9"/>
		</g>
		<g>
			<path class="st9" d="M128.5,1.3h-10.8v23.1h10.8V1.3 M128.5,35.2h-10.8v17.9c0,5.8,4.7,10.5,10.5,10.5h5.4V52.9h-5.2V35.2"/>
			<path class="st1" d="M133.7,24.4h-5.2v10.8h5.2V24.4 M117.7,24.4h-3.1v10.8h3.1V24.4"/>
			<polyline class="st15" points="128.5,24.4 117.7,24.4 117.7,35.2 128.5,35.2 128.5,24.4 			"/>
		</g>
		<g>
			<polyline class="st4" points="150.7,1.4 139.9,1.4 139.9,63.7 150.7,63.7 150.7,1.4 			"/>
		</g>
		<g>
			<path class="st3" d="M196.1,24.5h-10.8v2.1c6.6,3.3,10.8,10.1,10.8,17.5V24.5 M196.1,44.1c0,7.4-4.2,14.2-10.8,17.5v2.1h10.8
				V44.1"/>
			<path class="st4" d="M176.5,24.5c-8.1,0-15.4,5-18.3,12.6s-0.9,16.1,5.1,21.6c6,5.4,14.8,6.6,22,3V44.1c0,3.6-2.2,6.8-5.5,8.2
				c-3.3,1.4-7.1,0.6-9.6-1.9c-2.5-2.5-3.3-6.3-1.9-9.6c1.4-3.3,4.6-5.5,8.2-5.5c4.9,0,8.8,4,8.8,8.8V26.6
				C182.6,25.2,179.6,24.4,176.5,24.5"/>
			<path class="st5" d="M185.4,26.6v17.5v17.5c6.6-3.3,10.8-10.1,10.8-17.5l0,0C196.1,36.7,192,29.9,185.4,26.6"/>
		</g>
		<g>
			<path class="st6" d="M214,24.4h-10.8v39.2v-22c0-7,4.3-13.3,10.8-16V24.4"/>
			<path class="st1" d="M220.5,24.4c-2.2,0-4.4,0.4-6.5,1.3v16c0-3.6,2.9-6.5,6.5-6.5s6.5,2.9,6.5,6.5v22h10.8v-22
				C237.7,32.1,230,24.4,220.5,24.4"/>
			<path class="st14" d="M214,25.7c-6.5,2.6-10.8,9-10.8,16v22H214V25.7"/>
		</g>
		<g>
			<path class="st6" d="M283.2,1.3h-10.8v25.2c6.6,3.3,10.8,10.1,10.8,17.5V1.3 M283.2,44.1c0,7.4-4.2,14.2-10.8,17.5v2.1h10.8V44.1
				"/>
			<path class="st1" d="M263.6,24.5c-8.1,0-15.4,5-18.3,12.6s-0.9,16.1,5.1,21.6c6,5.4,14.8,6.6,22,3V44.1c0,4.9-4,8.8-8.8,8.8
				c-4.9,0-8.8-4-8.8-8.8s4-8.8,8.8-8.8c4.9,0,8.8,4,8.8,8.8V26.6C269.7,25.2,266.6,24.4,263.6,24.5"/>
			<path class="st14" d="M272.4,26.6v17.5v17.5c6.6-3.3,10.8-10.1,10.8-17.5l0,0C283.2,36.7,279,29.9,272.4,26.6"/>
		</g>
		<g>
			<path class="st4" d="M301.8,52.9H291v15c0,1.2-1,2.2-2.2,2.2h-1.2v10.8h1.2c7.2,0,13-5.8,13-13V52.9"/>
		</g>
		<g>
			<path class="st0" d="M354.3,1.2c-11.4,0-20.7,9.3-20.7,20.7v20.9c0,11.4,9.3,20.7,20.7,20.7c11.4,0,20.7-9.3,20.7-20.7V22
				C375,10.5,365.7,1.3,354.3,1.2 M354.3,52.8c-5.5,0-9.9-4.5-9.9-9.9V22c0-5.5,4.5-9.9,9.9-9.9s9.9,4.5,9.9,9.9v20.9
				C364.2,48.3,359.8,52.8,354.3,52.8"/>
		</g>
		<g>
			<polyline class="st6" points="379.5,1.2 379.5,1.2 379.5,12 384.1,12 384.1,63.6 394.9,63.6 394.9,37.8 384.1,37.8 384.1,27 
				384.1,27 394.9,27 394.9,12 379.5,12 379.5,1.2 			"/>
			<path class="st0" d="M402.4,1.2h-17.6c5.6,0,10.1,4.5,10.1,10.1V12h7.5c4.1,0,7.4,3.3,7.5,7.4s-3.1,7.5-7.2,7.6
				c4.8,0.1,9.3,2,12.7,5.4c5.2-5.2,6.7-13.1,3.9-19.9C416.4,5.7,409.8,1.2,402.4,1.2 M402.4,37.8h-7.5v0L402.4,37.8
				c0.1,0,0.2,0,0.3,0C402.6,37.8,402.5,37.8,402.4,37.8"/>
			<path class="st17" d="M384.8,1.2h-5.4V12h15.5v-0.7C394.9,5.8,390.4,1.3,384.8,1.2 M384.1,27L384.1,27v10.8h10.8v0h-10.8V27"/>
			<path class="st4" d="M402.4,27h-7.5v0L402.4,27c0.1,0,0.2,0,0.3,0C402.6,27,402.5,27,402.4,27 M415.3,32.4
				c-3.4,3.4-7.9,5.3-12.7,5.4c4,0.2,7.2,3.5,7.2,7.5v18.3h10.8V45.2C420.7,40.4,418.8,35.8,415.3,32.4"/>
			<polyline class="st7" points="394.9,27 384.1,27 384.1,27 394.9,27 394.9,27 			"/>
			<path class="st16" d="M402.7,27c-0.1,0-0.2,0-0.3,0h-7.5v10.8h7.5c0.1,0,0.2,0,0.3,0c4.8-0.1,9.3-2,12.7-5.4
				C412,29,407.4,27.1,402.7,27"/>
			<polyline class="st18" points="394.9,27 384.1,27 384.1,37.8 394.9,37.8 394.9,27 			"/>
		</g>
	</g>
</g>
<g id="Philadelphia" class="st11">
	<g class="st12">
		<g>
			<polyline class="st0" points="0.3,1.2 0.3,1.2 0.3,12 5,12 5,63.6 15.8,63.6 15.8,37.8 5,37.8 5,27 15.8,27 15.8,12 0.3,12 
				0.3,1.2 			"/>
			<path class="st1" d="M23.3,1.2H5.7c5.6,0,10.1,4.5,10.1,10.1V12h7.5c4.1,0,7.5,3.4,7.5,7.5S27.4,27,23.3,27h-7.5v10.8h7.5
				c10.1,0,18.3-8.2,18.3-18.3S33.4,1.2,23.3,1.2"/>
			<path class="st2" d="M5.7,1.2H0.3V12h15.5v-0.7C15.8,5.8,11.3,1.3,5.7,1.2 M15.8,27H5v10.8h10.8V27"/>
		</g>
		<g>
			<path class="st6" d="M64.3,24.5c-2.3,0-4.5,0.4-6.6,1.3v16.1c0-3.7,3-6.6,6.6-6.6c3.7,0,6.6,3,6.6,6.6v21.8h10.8V41.9
				C81.7,32.3,73.9,24.5,64.3,24.5"/>
			<path class="st4" d="M57.7,1.4H46.9v40.5c0-7,4.3-13.4,10.8-16.1V1.4"/>
			<path class="st7" d="M57.7,25.8c-6.5,2.7-10.8,9-10.8,16.1v21.8h10.8V41.9V25.8"/>
		</g>
		<g>
			<polyline class="st4" points="99.6,24.5 88.8,24.5 88.8,63.7 99.6,63.7 99.6,24.5 			"/>
			<polyline class="st3" points="99.6,1.5 88.8,1.5 88.8,12.9 99.6,12.9 99.6,1.5 			"/>
		</g>
		<g>
			<polyline class="st4" points="117.5,1.4 106.7,1.4 106.7,63.7 117.5,63.7 117.5,1.4 			"/>
		</g>
		<g>
			<path class="st3" d="M162.9,24.5h-10.8v2.1c6.6,3.3,10.8,10.1,10.8,17.5V24.5 M162.9,44.1c0,7.4-4.2,14.2-10.8,17.5v2.1h10.8
				V44.1"/>
			<path class="st4" d="M143.3,24.5c-8.1,0-15.4,5-18.3,12.6s-0.9,16.1,5.1,21.6c6,5.4,14.8,6.6,22,3V44.1c0,3.6-2.2,6.8-5.5,8.2
				c-3.3,1.4-7.1,0.6-9.6-1.9c-2.5-2.5-3.3-6.3-1.9-9.6c1.4-3.3,4.6-5.5,8.2-5.5c4.9,0,8.8,4,8.8,8.8V26.6
				C149.4,25.2,146.4,24.4,143.3,24.5"/>
			<path class="st5" d="M152.1,26.6v17.5v17.5c6.6-3.3,10.8-10.1,10.8-17.5l0,0C162.9,36.7,158.7,29.9,152.1,26.6"/>
		</g>
		<g>
			<path class="st6" d="M208.3,1.3h-10.8v25.2c6.6,3.3,10.8,10.1,10.8,17.5V1.3 M208.3,44.1c0,7.4-4.2,14.2-10.8,17.5v2.1h10.8V44.1
				"/>
			<path class="st1" d="M188.7,24.5c-8.1,0-15.4,5-18.3,12.6s-0.9,16.1,5.1,21.6c6,5.4,14.8,6.6,22,3V44.1c0,4.9-4,8.8-8.8,8.8
				c-4.9,0-8.8-4-8.8-8.8s4-8.8,8.8-8.8c4.9,0,8.8,4,8.8,8.8V26.6C194.8,25.2,191.8,24.4,188.7,24.5"/>
			<path class="st14" d="M197.6,26.6v17.5v17.5c6.6-3.3,10.8-10.1,10.8-17.5l0,0C208.3,36.7,204.2,29.9,197.6,26.6"/>
		</g>
		<g>
			<path class="st9" d="M234.2,24.5c-10.8,0-19.6,8.8-19.6,19.6c0,11,8.9,19.6,20.2,19.6c5.8,0,10.5-1.9,15.7-6.2l-7-8.2
				c-3.2,2.7-5.7,3.5-8.9,3.5c-1.6,0.1-3.2-0.4-4.5-1.2l-0.4,0.1l-10.9,4.5c-2-2.6-3.4-5.6-3.9-8.8l11.1-4.6v0c0.3-3,2.2-5.6,5-6.8
				c1-0.4,2-0.6,3.1-0.6c1.9,0,3.7,0.6,5.2,1.8c0.1,0,0.1,0.1,0.2,0.1l10.8-4.5c0.7,1,1.4,2.2,1.9,3.3
				C248.9,29,241.9,24.4,234.2,24.5 M252.1,36.1L252.1,36.1L252.1,36.1 M252.1,36.2L252.1,36.2L252.1,36.2 M252.2,36.2L252.2,36.2
				L252.2,36.2 M252.2,36.3L252.2,36.3L252.2,36.3 M254.3,41.4l-10.9,4.5L254.3,41.4"/>
			<path class="st6" d="M252.1,36L252.1,36L252.1,36 M252.1,36.1L252.1,36.1L252.1,36.1 M252.1,36.2L252.1,36.2L252.1,36.2
				 M252.2,36.3L252.2,36.3L252.2,36.3 M252.2,36.3L252.2,36.3l2.1,5.1L252.2,36.3L252.2,36.3 M239.3,37.2l-6.7,2.8l-6.4,2.6
				l-0.4,0.2c-0.5,4.6,1.8,7.1,3.8,8.5c0.1,0.1,0.2,0.2,0.3,0.2l12-5l1.5-0.6C243.5,45.9,242.2,39.8,239.3,37.2"/>
			<path class="st10" d="M250.2,32.7l-10.8,4.5c2.9,2.6,4.1,8.7,4.2,8.7l10.9-4.5l-2.1-5l0-0.1l0,0l0-0.1l0,0l0-0.1l0,0l0-0.1l0,0
				l0,0C251.5,34.9,250.9,33.8,250.2,32.7 M225.9,42.7l-11.1,4.6c0.5,3.2,1.9,6.3,3.9,8.8l10.9-4.5l0.4-0.1
				c-0.1-0.1-0.2-0.1-0.3-0.2C227.7,49.8,225.4,47.3,225.9,42.7"/>
		</g>
		<g>
			<polyline class="st4" points="270.5,1.4 259.7,1.4 259.7,63.7 270.5,63.7 270.5,1.4 			"/>
		</g>
		<g>
			<path class="st1" d="M297.2,24.4c-3.1,0-6.1,0.7-8.8,2.1V44c0-4.9,4-8.8,8.8-8.8c4.9,0,8.8,4,8.8,8.8s-4,8.8-8.8,8.8
				c-4.9,0-8.8-4-8.8-8.8v17.5c7.2,3.7,16,2.5,22-3c6-5.4,8.1-14,5.1-21.6C312.6,29.4,305.3,24.4,297.2,24.4"/>
			<path class="st0" d="M288.4,24.4h-10.8V44c0-7.4,4.2-14.2,10.8-17.5V24.4 M277.6,44v42.7h10.8V61.5
				C281.8,58.2,277.6,51.4,277.6,44"/>
			<path class="st2" d="M288.4,26.5c-6.6,3.3-10.8,10.1-10.8,17.5l0,0c0,7.4,4.2,14.2,10.8,17.5V44V26.5"/>
		</g>
		<g>
			<path class="st6" d="M340.5,24.5c-2.3,0-4.5,0.4-6.6,1.3v16.1c0-3.7,3-6.6,6.6-6.6c3.7,0,6.6,3,6.6,6.6v21.8h10.8V41.9
				C357.8,32.3,350.1,24.5,340.5,24.5"/>
			<path class="st4" d="M333.8,1.4h-10.8v40.5c0-7,4.3-13.4,10.8-16.1V1.4"/>
			<path class="st7" d="M333.8,25.8c-6.5,2.7-10.8,9-10.8,16.1v21.8h10.8V41.9V25.8"/>
		</g>
		<g>
			<polyline class="st4" points="375.7,24.5 364.9,24.5 364.9,63.7 375.7,63.7 375.7,24.5 			"/>
			<polyline class="st3" points="375.7,1.5 364.9,1.5 364.9,12.9 375.7,12.9 375.7,1.5 			"/>
		</g>
		<g>
			<path class="st3" d="M421.2,24.5h-10.8v2.1c6.6,3.3,10.8,10.1,10.8,17.5V24.5 M421.2,44.1c0,7.4-4.2,14.2-10.8,17.5v2.1h10.8
				V44.1"/>
			<path class="st4" d="M401.6,24.5c-8.1,0-15.4,5-18.3,12.6s-0.9,16.1,5.1,21.6c6,5.4,14.8,6.6,22,3V44.1c0,3.6-2.2,6.8-5.5,8.2
				c-3.3,1.4-7.1,0.6-9.6-1.9c-2.5-2.5-3.3-6.3-1.9-9.6c1.4-3.3,4.6-5.5,8.2-5.5c4.9,0,8.8,4,8.8,8.8V26.6
				C407.7,25.2,404.6,24.4,401.6,24.5"/>
			<path class="st5" d="M410.4,26.6v17.5v17.5c6.6-3.3,10.8-10.1,10.8-17.5l0,0C421.2,36.7,417,29.9,410.4,26.6"/>
		</g>
	</g>
</g>
<g id="NewYork" class="st11">
	<g class="st12">
		<g>
			<path class="st6" d="M5.7,1.4H0.3v10.8h5.1v51.4V21.1c0-6.3,3.1-12.3,8.2-16C11.7,2.7,8.8,1.4,5.7,1.4"/>
			<path class="st1" d="M25.3,1.3C21.1,1.3,17,2.6,13.7,5c1.7,1.9,2.6,4.4,2.6,6.9v9.1c-0.1-3.3,1.7-6.3,4.5-7.9
				c2.8-1.6,6.3-1.6,9.1,0c2.8,1.6,4.5,4.7,4.5,7.9v42.5H45V21.1C45,10.1,36.2,1.3,25.3,1.3"/>
			<path class="st14" d="M13.7,5c-5.1,3.7-8.2,9.7-8.2,16v42.5h10.8V11.9C16.2,9.4,15.3,6.9,13.7,5"/>
		</g>
		<g>
			<path class="st9" d="M70.9,24.5c-10.8,0-19.6,8.8-19.6,19.6c0,11,8.9,19.6,20.2,19.6c5.8,0,10.5-1.9,15.7-6.2l-7-8.2
				c-3.2,2.7-5.7,3.5-8.9,3.5c-1.6,0.1-3.2-0.4-4.5-1.2l-0.4,0.1l-10.9,4.5c-2-2.6-3.4-5.6-3.9-8.8l11.1-4.6v0c0.3-3,2.2-5.6,5-6.8
				c1-0.4,2-0.6,3.1-0.6c1.9,0,3.7,0.6,5.2,1.8c0.1,0,0.1,0.1,0.2,0.1l10.8-4.5c0.7,1,1.4,2.2,1.9,3.3C85.6,29,78.6,24.4,70.9,24.5
				 M88.8,36.1L88.8,36.1L88.8,36.1 M88.8,36.2L88.8,36.2L88.8,36.2 M88.9,36.2L88.9,36.2L88.9,36.2 M88.9,36.3L88.9,36.3L88.9,36.3
				 M91.1,41.4l-10.9,4.5L91.1,41.4"/>
			<path class="st6" d="M88.8,36L88.8,36L88.8,36 M88.8,36.1L88.8,36.1L88.8,36.1 M88.8,36.2L88.8,36.2L88.8,36.2 M88.9,36.3
				L88.9,36.3L88.9,36.3 M88.9,36.3L88.9,36.3l2.1,5.1L88.9,36.3L88.9,36.3 M76,37.2l-6.7,2.8L63,42.6l-0.4,0.2
				c-0.5,4.6,1.8,7.1,3.8,8.5c0.1,0.1,0.2,0.2,0.3,0.2l12-5l1.5-0.6C80.2,45.9,78.9,39.8,76,37.2"/>
			<path class="st10" d="M86.9,32.7L76,37.2c2.9,2.6,4.1,8.7,4.2,8.7l10.9-4.5l-2.1-5l0-0.1l0,0l0-0.1l0,0l0-0.1l0,0l0-0.1l0,0l0,0
				C88.2,34.9,87.6,33.8,86.9,32.7 M62.6,42.7l-11.1,4.6c0.5,3.2,1.9,6.3,3.9,8.8l10.9-4.5l0.4-0.1c-0.1-0.1-0.2-0.1-0.3-0.2
				C64.4,49.8,62.1,47.3,62.6,42.7"/>
		</g>
		<g>
			<path class="st3" d="M120.1,24.4L120.1,24.4v22c0,3.6-2.9,6.5-6.5,6.5c-3.6,0-6.5-2.9-6.5-6.5v-22H96.4v22
				c0,6.9,4.1,13.1,10.4,15.8s13.7,1.4,18.6-3.3c-3.4-3.2-5.4-7.8-5.4-12.5L120.1,24.4"/>
			<path class="st1" d="M154.6,24.4h-10.8v22c0,2.3-1.2,4.5-3.2,5.6c-2,1.2-4.5,1.2-6.5,0c-2-1.2-3.2-3.3-3.2-5.6v-22v22
				c0,4.7-1.9,9.3-5.4,12.5c5,4.7,12.3,6,18.6,3.3c6.3-2.7,10.4-8.9,10.4-15.8V24.4"/>
			<path class="st13" d="M130.9,24.4h-10.8v22c0,4.7,1.9,9.3,5.4,12.5c3.4-3.2,5.4-7.8,5.4-12.5V24.4"/>
		</g>
		<g>
			<path class="st3" d="M226.6,1.3h-10.8v16.9c0,2.8-1.3,5.4-3.5,7.1v11.8c8.5-2.4,14.3-10.1,14.3-18.9L226.6,1.3 M198,1.3h-10.8
				v16.9c0,8.8,5.8,16.5,14.3,18.9l0,0V25.2c-2.2-1.7-3.5-4.3-3.5-7.1V1.3"/>
			<path class="st4" d="M212.3,37.1L212.3,37.1c-3.5,1-7.3,1-10.8,0v26.5h10.8V37.1"/>
			<path class="st5" d="M212.3,25.2L212.3,25.2c-3.2,2.4-7.6,2.4-10.8,0v11.8c3.5,1,7.3,1,10.8,0l0,0V25.2"/>
		</g>
		<g>
			<path class="st0" d="M245.3,24.4c-7.9,0-15.1,4.8-18.1,12.1c-3,7.3-1.4,15.8,4.2,21.4s14,7.3,21.4,4.2c7.3-3,12.1-10.2,12.1-18.1
				C264.9,33.2,256.1,24.4,245.3,24.4 M245.3,52.9c-3.6,0-6.8-2.2-8.2-5.5c-1.4-3.3-0.6-7.1,1.9-9.6c2.5-2.5,6.3-3.3,9.6-1.9
				c3.3,1.4,5.5,4.6,5.5,8.2C254.1,48.9,250.2,52.9,245.3,52.9"/>
		</g>
		<g>
			<path class="st6" d="M281.9,24.4h-10.8v39.2V39c0-6.6,4.4-12.4,10.8-14.1V24.4"/>
			<path class="st4" d="M285.7,24.4c-1.3,0-2.6,0.2-3.8,0.5V39c0-1.5,0.9-2.9,2.4-3.5c1.4-0.6,3.1-0.3,4.2,0.8l7.6-7.6
				C293.3,26,289.6,24.4,285.7,24.4"/>
			<path class="st7" d="M281.9,24.9c-6.4,1.7-10.8,7.5-10.8,14.1v24.6h10.8V24.9"/>
		</g>
		<g>
			<path class="st3" d="M329.3,40.4c-3,3.4-7.4,5.4-11.9,5.4c-2.8,0-5.1,2.3-5.1,5.1l0,0c0-1.8,1-3.6,2.6-4.5s3.6-0.9,5.2,0
				c1.6,0.9,2.6,2.6,2.6,4.5v12.8h10.8V50.9C333.3,47,331.8,43.3,329.3,40.4"/>
			<path class="st4" d="M333.2,24.5h-10.8v5.4c0,2.8-2.3,5.1-5.1,5.1c-1.7,0-3.5,0.3-5.1,0.9l0,0c6.1-2.1,12.8-0.3,17.1,4.5
				c2.6-2.9,4-6.6,4-10.5L333.2,24.5"/>
			<path class="st5" d="M317.3,35c-1.7,0-3.5,0.3-5.1,0.9v15.1c0-2.8,2.3-5.1,5.1-5.1c4.6,0,8.9-2,11.9-5.4
				C326.2,37,321.9,35,317.3,35"/>
			<path class="st0" d="M312.2,1.3h-10.8v49.6c0-6.8,4.3-12.9,10.8-15.1V1.3"/>
			<path class="st8" d="M312.2,35.9c-6.4,2.2-10.8,8.3-10.8,15.1v12.8h10.8V50.9V35.9"/>
		</g>
	</g>
</g>
<g id="NewOrleans" class="st11">
	<g class="st12">
		<g>
			<path class="st6" d="M5.7,1.4H0.3v10.8h5.1v51.4V21.1c0-6.3,3.1-12.3,8.2-16C11.7,2.7,8.8,1.4,5.7,1.4"/>
			<path class="st1" d="M25.3,1.3C21.1,1.3,17,2.6,13.7,5c1.7,1.9,2.6,4.4,2.6,6.9v9.1c-0.1-3.3,1.7-6.3,4.5-7.9
				c2.8-1.6,6.3-1.6,9.1,0c2.8,1.6,4.5,4.7,4.5,7.9v42.5H45V21.1C45,10.1,36.2,1.3,25.3,1.3"/>
			<path class="st14" d="M13.7,5c-5.1,3.7-8.2,9.7-8.2,16v42.5h10.8V11.9C16.2,9.4,15.3,6.9,13.7,5"/>
		</g>
		<g>
			<path class="st9" d="M70.9,24.5c-10.8,0-19.6,8.8-19.6,19.6c0,11,8.9,19.6,20.2,19.6c5.8,0,10.5-1.9,15.7-6.2l-7-8.2
				c-3.2,2.7-5.7,3.5-8.9,3.5c-1.6,0.1-3.2-0.4-4.5-1.2l-0.4,0.1l-10.9,4.5c-2-2.6-3.4-5.6-3.9-8.8l11.1-4.6v0c0.3-3,2.2-5.6,5-6.8
				c1-0.4,2-0.6,3.1-0.6c1.9,0,3.7,0.6,5.2,1.8c0.1,0,0.1,0.1,0.2,0.1l10.8-4.5c0.7,1,1.4,2.2,1.9,3.3C85.6,29,78.6,24.4,70.9,24.5
				 M88.8,36.1L88.8,36.1L88.8,36.1 M88.8,36.2L88.8,36.2L88.8,36.2 M88.9,36.2L88.9,36.2L88.9,36.2 M88.9,36.3L88.9,36.3L88.9,36.3
				 M91.1,41.4l-10.9,4.5L91.1,41.4"/>
			<path class="st6" d="M88.8,36L88.8,36L88.8,36 M88.8,36.1L88.8,36.1L88.8,36.1 M88.8,36.2L88.8,36.2L88.8,36.2 M88.9,36.3
				L88.9,36.3L88.9,36.3 M88.9,36.3L88.9,36.3l2.1,5.1L88.9,36.3L88.9,36.3 M76,37.2l-6.7,2.8L63,42.6l-0.4,0.2
				c-0.5,4.6,1.8,7.1,3.8,8.5c0.1,0.1,0.2,0.2,0.3,0.2l12-5l1.5-0.6C80.2,45.9,78.9,39.8,76,37.2"/>
			<path class="st10" d="M86.9,32.7L76,37.2c2.9,2.6,4.1,8.7,4.2,8.7l10.9-4.5l-2.1-5l0-0.1l0,0l0-0.1l0,0l0-0.1l0,0l0-0.1l0,0l0,0
				C88.2,34.9,87.6,33.8,86.9,32.7 M62.6,42.7l-11.1,4.6c0.5,3.2,1.9,6.3,3.9,8.8l10.9-4.5l0.4-0.1c-0.1-0.1-0.2-0.1-0.3-0.2
				C64.4,49.8,62.1,47.3,62.6,42.7"/>
		</g>
		<g>
			<path class="st3" d="M120.1,24.4L120.1,24.4v22c0,3.6-2.9,6.5-6.5,6.5c-3.6,0-6.5-2.9-6.5-6.5v-22H96.4v22
				c0,6.9,4.1,13.1,10.4,15.8s13.7,1.4,18.6-3.3c-3.4-3.2-5.4-7.8-5.4-12.5L120.1,24.4"/>
			<path class="st1" d="M154.6,24.4h-10.8v22c0,2.3-1.2,4.5-3.2,5.6c-2,1.2-4.5,1.2-6.5,0c-2-1.2-3.2-3.3-3.2-5.6v-22v22
				c0,4.7-1.9,9.3-5.4,12.5c5,4.7,12.3,6,18.6,3.3c6.3-2.7,10.4-8.9,10.4-15.8V24.4"/>
			<path class="st13" d="M130.9,24.4h-10.8v22c0,4.7,1.9,9.3,5.4,12.5c3.4-3.2,5.4-7.8,5.4-12.5V24.4"/>
		</g>
		<g>
			<path class="st0" d="M207,1.2c-11.4,0-20.7,9.3-20.7,20.7v20.9c0,11.4,9.3,20.7,20.7,20.7c11.4,0,20.7-9.3,20.7-20.7V22
				C227.8,10.5,218.5,1.3,207,1.2 M207,52.8c-5.5,0-9.9-4.5-9.9-9.9V22c0-5.5,4.5-9.9,9.9-9.9s9.9,4.5,9.9,9.9v20.9
				C217,48.3,212.5,52.8,207,52.8"/>
		</g>
		<g>
			<path class="st6" d="M244.8,24.4H234v39.2V39c0-6.6,4.4-12.4,10.8-14.1V24.4"/>
			<path class="st4" d="M248.6,24.4c-1.3,0-2.6,0.2-3.8,0.5V39c0-1.5,0.9-2.9,2.4-3.5c1.4-0.6,3.1-0.3,4.2,0.8l7.6-7.6
				C256.2,26,252.5,24.4,248.6,24.4"/>
			<path class="st7" d="M244.8,24.9C238.4,26.7,234,32.4,234,39v24.6h10.8V24.9"/>
		</g>
		<g>
			<polyline class="st4" points="275,1.4 264.3,1.4 264.3,63.7 275,63.7 275,1.4 			"/>
		</g>
		<g>
			<path class="st9" d="M300.9,24.5c-10.8,0-19.6,8.8-19.6,19.6c0,11,8.9,19.6,20.2,19.6c5.8,0,10.5-1.9,15.7-6.2l-7-8.2
				c-3.2,2.7-5.7,3.5-8.9,3.5c-1.6,0.1-3.2-0.4-4.5-1.2l-0.4,0.1l-10.9,4.5c-2-2.6-3.4-5.6-3.9-8.8l11.1-4.6v0c0.3-3,2.2-5.6,5-6.8
				c1-0.4,2-0.6,3.1-0.6c1.9,0,3.7,0.6,5.2,1.8c0.1,0,0.1,0.1,0.2,0.1l10.8-4.5c0.7,1,1.4,2.2,1.9,3.3
				C315.6,29,308.6,24.4,300.9,24.5 M318.8,36.1L318.8,36.1L318.8,36.1 M318.8,36.2L318.8,36.2L318.8,36.2 M318.9,36.2L318.9,36.2
				L318.9,36.2 M318.9,36.3L318.9,36.3L318.9,36.3 M321.1,41.4l-10.9,4.5L321.1,41.4"/>
			<path class="st6" d="M318.8,36L318.8,36L318.8,36 M318.8,36.1L318.8,36.1L318.8,36.1 M318.8,36.2L318.8,36.2L318.8,36.2
				 M318.9,36.3L318.9,36.3L318.9,36.3 M318.9,36.3L318.9,36.3l2.1,5.1L318.9,36.3L318.9,36.3 M306,37.2l-6.7,2.8l-6.4,2.6l-0.4,0.2
				c-0.5,4.6,1.8,7.1,3.8,8.5c0.1,0.1,0.2,0.2,0.3,0.2l12-5l1.5-0.6C310.2,45.9,308.9,39.8,306,37.2"/>
			<path class="st10" d="M316.9,32.7L306,37.2c2.9,2.6,4.1,8.7,4.2,8.7l10.9-4.5l-2.1-5l0-0.1l0,0l0-0.1l0,0l0-0.1l0,0l0-0.1l0,0
				l0,0C318.3,34.9,317.6,33.8,316.9,32.7 M292.6,42.7l-11.1,4.6c0.5,3.2,1.9,6.3,3.9,8.8l10.9-4.5l0.4-0.1
				c-0.1-0.1-0.2-0.1-0.3-0.2C294.5,49.8,292.1,47.3,292.6,42.7"/>
		</g>
		<g>
			<path class="st3" d="M364.8,24.5H354v2.1c6.6,3.3,10.8,10.1,10.8,17.5V24.5 M364.8,44.1c0,7.4-4.2,14.2-10.8,17.5v2.1h10.8V44.1"
				/>
			<path class="st4" d="M345.2,24.5c-8.1,0-15.4,5-18.3,12.6S326,53.1,332,58.6c6,5.4,14.8,6.6,22,3V44.1c0,3.6-2.2,6.8-5.5,8.2
				c-3.3,1.4-7.1,0.6-9.6-1.9c-2.5-2.5-3.3-6.3-1.9-9.6c1.4-3.3,4.6-5.5,8.2-5.5c4.9,0,8.8,4,8.8,8.8V26.6
				C351.3,25.2,348.2,24.4,345.2,24.5"/>
			<path class="st5" d="M354,26.6v17.5v17.5c6.6-3.3,10.8-10.1,10.8-17.5l0,0C364.8,36.7,360.6,29.9,354,26.6"/>
		</g>
		<g>
			<path class="st6" d="M382.7,24.4h-10.8v39.2v-22c0-7,4.3-13.3,10.8-16V24.4"/>
			<path class="st1" d="M389.1,24.4c-2.2,0-4.4,0.4-6.5,1.3v16c0-3.6,2.9-6.5,6.5-6.5s6.5,2.9,6.5,6.5v22h10.8v-22
				C406.3,32.1,398.6,24.4,389.1,24.4"/>
			<path class="st14" d="M382.7,25.7c-6.5,2.6-10.8,9-10.8,16v22h10.8V25.7"/>
		</g>
		<g>
			<path class="st3" d="M439.9,24.4h-15.3c-6.9,0-12.5,5.6-12.5,12.5s5.6,12.5,12.5,12.5h6.4c0.9,0,1.7,0.8,1.7,1.7
				c0,0.9-0.8,1.7-1.7,1.7h-15.3v10.8h15.5c6.9-0.1,12.4-5.7,12.3-12.6s-5.6-12.4-12.5-12.4h-6.4c-1,0-1.7-0.8-1.7-1.7
				c0-1,0.8-1.7,1.7-1.7h15.3L439.9,24.4"/>
		</g>
	</g>
</g>
<g id="Miami">
	<g>
		<g>
			<path class="st0" d="M50.9,1.3c-5,0-9.8,2-13.4,5.6c3.5,3.5,5.4,8.2,5.4,13.1l0,0c0-4.4,3.6-8,8-8c4.4,0,8,3.6,8,8v43.6h10.8V20
				C69.6,9.7,61.3,1.3,50.9,1.3"/>
			<path class="st6" d="M24.2,1.3c-3.9,0-7.7,1.2-10.8,3.4c1.8,1.9,2.9,4.5,2.9,7.2V20c0-4.4,3.6-8,8-8c4.4,0,8,3.6,8,8l0,0
				c0-4.9,1.9-9.6,5.4-13.1C34,3.3,29.2,1.3,24.2,1.3"/>
			<path class="st17" d="M37.6,6.9c-3.5,3.5-5.4,8.2-5.4,13.1v43.6h10.8V20C42.9,15.1,41,10.4,37.6,6.9"/>
			<path class="st4" d="M5.7,1.4H0.3v10.8h5.1V20c0-6.1,3-11.8,7.9-15.3C11.4,2.6,8.6,1.4,5.7,1.4"/>
			<path class="st7" d="M13.4,4.7c-5,3.5-7.9,9.2-7.9,15.3v43.6h10.8V20v-8.1C16.2,9.2,15.2,6.7,13.4,4.7"/>
		</g>
		<g>
			<polyline class="st4" points="87.5,24.5 76.8,24.5 76.8,63.7 87.5,63.7 87.5,24.5 			"/>
			<polyline class="st3" points="87.5,1.5 76.8,1.5 76.8,12.9 87.5,12.9 87.5,1.5 			"/>
		</g>
		<g>
			<path class="st3" d="M133,24.5h-10.8v2.1c6.6,3.3,10.8,10.1,10.8,17.5V24.5 M133,44.1c0,7.4-4.2,14.2-10.8,17.5v2.1H133V44.1"/>
			<path class="st4" d="M113.4,24.5c-8.1,0-15.4,5-18.3,12.6s-0.9,16.1,5.1,21.6c6,5.4,14.8,6.6,22,3V44.1c0,3.6-2.2,6.8-5.5,8.2
				c-3.3,1.4-7.1,0.6-9.6-1.9c-2.5-2.5-3.3-6.3-1.9-9.6c1.4-3.3,4.6-5.5,8.2-5.5c4.9,0,8.8,4,8.8,8.8V26.6
				C119.5,25.2,116.4,24.4,113.4,24.5"/>
			<path class="st5" d="M122.2,26.6v17.5v17.5c6.6-3.3,10.8-10.1,10.8-17.5l0,0C133,36.7,128.8,29.9,122.2,26.6"/>
		</g>
		<g>
			<path class="st4" d="M150.9,24.5h-10.8v39.2v-22c0-7,4.3-13.3,10.8-16V24.5"/>
			<path class="st6" d="M157.3,24.4c-2.2,0-4.4,0.4-6.5,1.3v16c0-3.6,2.9-6.5,6.5-6.5s6.5,2.9,6.5,6.5v22v-22
				c0-4.7,1.9-9.3,5.4-12.5C166,26.1,161.7,24.4,157.3,24.4"/>
			<path class="st7" d="M150.9,25.7c-6.5,2.6-10.8,9-10.8,16v22h10.8V25.7"/>
			<path class="st0" d="M181,24.4c-4.4,0-8.6,1.7-11.8,4.7c3.4,3.2,5.4,7.8,5.4,12.5l0,0c0-3.6,2.9-6.5,6.5-6.5
				c3.6,0,6.5,2.9,6.5,6.5v22h10.8v-22C198.2,32.1,190.5,24.4,181,24.4"/>
			<path class="st17" d="M169.2,29.1c-3.4,3.2-5.4,7.8-5.4,12.5v22h10.8v-22C174.5,36.9,172.6,32.4,169.2,29.1"/>
		</g>
		<g>
			<polyline class="st4" points="216.1,24.5 205.3,24.5 205.3,63.7 216.1,63.7 216.1,24.5 			"/>
			<polyline class="st3" points="216.1,1.5 205.3,1.5 205.3,12.9 216.1,12.9 216.1,1.5 			"/>
		</g>
	</g>
</g>
<g id="LosAngeles" class="st11">
	<g class="st12">
		<g>
			<polyline class="st6" points="38.1,52.9 12.9,52.9 12.9,63.7 2.1,63.7 2.1,52.9 2.1,63.7 38.1,63.7 38.1,52.9 			"/>
			<polyline class="st4" points="12.9,1.4 2.1,1.4 2.1,52.9 12.9,52.9 12.9,1.4 			"/>
			<polyline class="st7" points="12.9,52.9 2.1,52.9 2.1,63.7 12.9,63.7 12.9,52.9 			"/>
		</g>
		<g>
			<path class="st0" d="M61.7,24.4c-7.9,0-15.1,4.8-18.1,12.1c-3,7.3-1.4,15.8,4.2,21.4s14,7.3,21.4,4.2c7.3-3,12.1-10.2,12.1-18.1
				C81.3,33.2,72.5,24.4,61.7,24.4 M61.7,52.9c-3.6,0-6.8-2.2-8.2-5.5c-1.4-3.3-0.6-7.1,1.9-9.6c2.5-2.5,6.3-3.3,9.6-1.9
				c3.3,1.4,5.5,4.6,5.5,8.2C70.5,48.9,66.6,52.9,61.7,52.9"/>
		</g>
		<g>
			<path class="st3" d="M114,24.4H98.7c-6.9,0-12.5,5.6-12.5,12.5s5.6,12.5,12.5,12.5h6.4c0.9,0,1.7,0.8,1.7,1.7
				c0,0.9-0.8,1.7-1.7,1.7H89.8v10.8h15.5c6.9-0.1,12.4-5.7,12.3-12.6s-5.6-12.4-12.5-12.4h-6.4c-1,0-1.7-0.8-1.7-1.7
				c0-1,0.8-1.7,1.7-1.7H114L114,24.4"/>
		</g>
		<g>
			<path class="st4" d="M169.7,1.3C158.3,1.4,149,10.6,149,22v41.6h10.8V41.5H149V30.7h10.8V22c0-5.5,4.4-9.9,9.9-9.9
				c5.5,0,9.9,4.4,9.9,9.9v8.7h10.8V22C190.4,10.6,181.1,1.4,169.7,1.3 M190.4,41.5h-10.8v22.1h10.8V41.5"/>
			<polyline class="st3" points="179.6,30.7 159.8,30.7 159.8,41.5 179.6,41.5 179.6,30.7 			"/>
			<path class="st5" d="M190.4,30.7h-10.8v10.8h10.8V30.7 M159.8,30.7H149v10.8h10.8V30.7"/>
		</g>
		<g>
			<path class="st6" d="M208.2,24.4h-10.8v39.2v-22c0-7,4.3-13.3,10.8-16V24.4"/>
			<path class="st1" d="M214.7,24.4c-2.2,0-4.4,0.4-6.5,1.3v16c0-3.6,2.9-6.5,6.5-6.5s6.5,2.9,6.5,6.5v22h10.8v-22
				C231.9,32.1,224.2,24.4,214.7,24.4"/>
			<path class="st14" d="M208.2,25.7c-6.5,2.6-10.8,9-10.8,16v22h10.8V25.7"/>
		</g>
		<g>
			<path class="st3" d="M257.8,24.5c-7.5,0-14.3,4.3-17.6,11c-3.3,6.7-2.5,14.7,2.1,20.6c2.3-2.1,5.3-3.2,8.3-3.2h7.1
				c-4.9,0-8.8-4-8.8-8.8s4-8.8,8.8-8.8c4.9,0,8.8,4,8.8,8.8l0,0V35c0-2.5,0.9-5,2.6-6.9C265.8,25.7,261.9,24.4,257.8,24.5"/>
			<path class="st4" d="M282.5,24.5h-5.4c-2.8,0-5.5,1.1-7.5,3.1c-0.2,0.2-0.4,0.4-0.5,0.6c5.2,3.7,8.2,9.6,8.2,15.9l0,0v-8.8h5.2
				V24.5 M276.6,49.6c-2.5,8.3-10.1,14-18.8,14l0,0C266.4,63.6,274.1,58,276.6,49.6 M242.3,56.1c-3.8,3.5-5.2,8.9-3.3,13.7
				c1.8,4.8,6.5,8,11.6,8h14.3c0.9,0,1.7,0.8,1.7,1.7s-0.8,1.7-1.7,1.7h-12.5V92h12.5c6.9,0,12.5-5.6,12.5-12.5
				c0-6.9-5.6-12.5-12.5-12.5h-14.3c-0.9,0-1.7-0.8-1.7-1.7c0-0.9,0.8-1.7,1.7-1.7h7.1C251.7,63.7,246,60.9,242.3,56.1"/>
			<path class="st5" d="M269.2,28.1c-1.7,1.9-2.6,4.4-2.6,6.9v9.1c0,4.9-4,8.8-8.8,8.8h-7.1c-3.1,0-6,1.1-8.3,3.2
				c3.7,4.8,9.4,7.6,15.5,7.6l0,0c8.5,0,16.1-5.5,18.7-13.6C279,41.9,276.1,33.1,269.2,28.1"/>
		</g>
		<g>
			<path class="st9" d="M306.6,24.5c-10.8,0-19.6,8.8-19.6,19.6c0,11,8.9,19.6,20.2,19.6c5.8,0,10.5-1.9,15.7-6.2l-7-8.2
				c-3.2,2.7-5.7,3.5-8.9,3.5c-1.6,0.1-3.2-0.4-4.5-1.2l-0.4,0.1l-10.9,4.5c-2-2.6-3.4-5.6-3.9-8.8l11.1-4.6v0c0.3-3,2.2-5.6,5-6.8
				c1-0.4,2-0.6,3.1-0.6c1.9,0,3.7,0.6,5.2,1.8c0.1,0,0.1,0.1,0.2,0.1l10.8-4.5c0.7,1,1.4,2.2,1.9,3.3
				C321.3,29,314.3,24.4,306.6,24.5 M324.5,36.1L324.5,36.1L324.5,36.1 M324.5,36.2L324.5,36.2L324.5,36.2 M324.6,36.2L324.6,36.2
				L324.6,36.2 M324.6,36.3L324.6,36.3L324.6,36.3 M326.8,41.4l-10.9,4.5L326.8,41.4"/>
			<path class="st6" d="M324.5,36L324.5,36L324.5,36 M324.5,36.1L324.5,36.1L324.5,36.1 M324.5,36.2L324.5,36.2L324.5,36.2
				 M324.6,36.3L324.6,36.3L324.6,36.3 M324.6,36.3L324.6,36.3l2.1,5.1L324.6,36.3L324.6,36.3 M311.8,37.2l-6.7,2.8l-6.4,2.6
				l-0.4,0.2c-0.5,4.6,1.8,7.1,3.8,8.5c0.1,0.1,0.2,0.2,0.3,0.2l12-5l1.5-0.6C315.9,45.9,314.6,39.8,311.8,37.2"/>
			<path class="st10" d="M322.6,32.7l-10.8,4.5c2.9,2.6,4.1,8.7,4.2,8.7l10.9-4.5l-2.1-5l0-0.1l0,0l0-0.1l0,0l0-0.1l0,0l0-0.1l0,0
				l0,0C324,34.9,323.3,33.8,322.6,32.7 M298.3,42.7l-11.1,4.6c0.5,3.2,1.9,6.3,3.9,8.8l10.9-4.5l0.4-0.1c-0.1-0.1-0.2-0.1-0.3-0.2
				C300.2,49.8,297.8,47.3,298.3,42.7"/>
		</g>
		<g>
			<polyline class="st4" points="342.9,1.4 332.2,1.4 332.2,63.7 342.9,63.7 342.9,1.4 			"/>
		</g>
		<g>
			<path class="st9" d="M368.8,24.5c-10.8,0-19.6,8.8-19.6,19.6c0,11,8.9,19.6,20.2,19.6c5.8,0,10.5-1.9,15.7-6.2l-7-8.2
				c-3.2,2.7-5.7,3.5-8.9,3.5c-1.6,0.1-3.2-0.4-4.5-1.2l-0.4,0.1l-10.9,4.5c-2-2.6-3.4-5.6-3.9-8.8l11.1-4.6v0c0.3-3,2.2-5.6,5-6.8
				c1-0.4,2-0.6,3.1-0.6c1.9,0,3.7,0.6,5.2,1.8c0.1,0,0.1,0.1,0.2,0.1l10.8-4.5c0.7,1,1.4,2.2,1.9,3.3
				C383.5,29,376.5,24.4,368.8,24.5 M386.7,36.1L386.7,36.1L386.7,36.1 M386.7,36.2L386.7,36.2L386.7,36.2 M386.8,36.2L386.8,36.2
				L386.8,36.2 M386.8,36.3L386.8,36.3L386.8,36.3 M389,41.4l-10.9,4.5L389,41.4"/>
			<path class="st6" d="M386.7,36L386.7,36L386.7,36 M386.7,36.1L386.7,36.1L386.7,36.1 M386.7,36.2L386.7,36.2L386.7,36.2
				 M386.8,36.3L386.8,36.3L386.8,36.3 M386.8,36.3L386.8,36.3l2.1,5.1L386.8,36.3L386.8,36.3 M373.9,37.2l-6.7,2.8l-6.4,2.6
				l-0.4,0.2c-0.5,4.6,1.8,7.1,3.8,8.5c0.1,0.1,0.2,0.2,0.3,0.2l12-5l1.5-0.6C378.1,45.9,376.8,39.8,373.9,37.2"/>
			<path class="st10" d="M384.8,32.7l-10.8,4.5c2.9,2.6,4.1,8.7,4.2,8.7l10.9-4.5l-2.1-5l0-0.1l0,0l0-0.1l0,0l0-0.1l0,0l0-0.1l0,0
				l0,0C386.1,34.9,385.5,33.8,384.8,32.7 M360.5,42.7l-11.1,4.6c0.5,3.2,1.9,6.3,3.9,8.8l10.9-4.5l0.4-0.1
				c-0.1-0.1-0.2-0.1-0.3-0.2C362.3,49.8,360,47.3,360.5,42.7"/>
		</g>
		<g>
			<path class="st3" d="M420.8,24.4h-15.3c-6.9,0-12.5,5.6-12.5,12.5s5.6,12.5,12.5,12.5h6.4c0.9,0,1.7,0.8,1.7,1.7
				c0,0.9-0.8,1.7-1.7,1.7h-15.3v10.8h15.5c6.9-0.1,12.4-5.7,12.3-12.6s-5.6-12.4-12.5-12.4h-6.4c-1,0-1.7-0.8-1.7-1.7
				c0-1,0.8-1.7,1.7-1.7h15.3L420.8,24.4"/>
		</g>
	</g>
</g>
<g id="Denver" class="st11">
	<g class="st12">
		<g>
			<path class="st1" d="M24.9,1.3H5.7c5.6,0,10.1,4.5,10.1,10.1v0.7h9.1c5.1,0,9.2,4.1,9.2,9.2v22.4c0,5.1-4.1,9.2-9.2,9.2h-9.1
				v10.8H5h19.9c11,0,19.9-8.9,20-20V21.3C44.8,10.3,35.9,1.4,24.9,1.3"/>
			<polyline class="st6" points="15.8,12.1 5,12.1 5,52.9 15.8,52.9 15.8,12.1 			"/>
			<path class="st14" d="M5.7,1.3H0.3v10.8h15.5v-0.7C15.8,5.9,11.3,1.3,5.7,1.3 M15.8,52.9H5v10.8h10.8V52.9"/>
		</g>
		<g>
			<path class="st9" d="M70.7,24.5c-10.8,0-19.6,8.8-19.6,19.6c0,11,8.9,19.6,20.2,19.6c5.8,0,10.5-1.9,15.7-6.2l-7-8.2
				c-3.2,2.7-5.7,3.5-8.9,3.5c-1.6,0.1-3.2-0.4-4.5-1.2l-0.4,0.1l-10.9,4.5c-2-2.6-3.4-5.6-3.9-8.8l11.1-4.6v0c0.3-3,2.2-5.6,5-6.8
				c1-0.4,2-0.6,3.1-0.6c1.9,0,3.7,0.6,5.2,1.8c0.1,0,0.1,0.1,0.2,0.1l10.8-4.5c0.7,1,1.4,2.2,1.9,3.3C85.4,29,78.4,24.4,70.7,24.5
				 M88.6,36.1L88.6,36.1L88.6,36.1 M88.6,36.2L88.6,36.2L88.6,36.2 M88.7,36.2L88.7,36.2L88.7,36.2 M88.7,36.3L88.7,36.3L88.7,36.3
				 M90.9,41.4L80,45.9L90.9,41.4"/>
			<path class="st6" d="M88.6,36L88.6,36L88.6,36 M88.6,36.1L88.6,36.1L88.6,36.1 M88.7,36.2L88.7,36.2L88.7,36.2 M88.7,36.3
				L88.7,36.3L88.7,36.3 M88.7,36.3L88.7,36.3l2.1,5.1L88.7,36.3L88.7,36.3 M75.9,37.2l-6.7,2.8l-6.4,2.6l-0.4,0.2
				c-0.5,4.6,1.8,7.1,3.8,8.5c0.1,0.1,0.2,0.2,0.3,0.2l12-5l1.5-0.6C80,45.9,78.7,39.8,75.9,37.2"/>
			<path class="st10" d="M86.7,32.7l-10.8,4.5c2.9,2.6,4.1,8.7,4.2,8.7l10.9-4.5l-2.1-5l0-0.1l0,0l0-0.1l0,0l0-0.1l0,0l0-0.1l0,0
				l0,0C88.1,34.9,87.4,33.8,86.7,32.7 M62.4,42.7l-11.1,4.6c0.5,3.2,1.9,6.3,3.9,8.8l10.9-4.5l0.4-0.1c-0.1-0.1-0.2-0.1-0.3-0.2
				C64.3,49.8,61.9,47.3,62.4,42.7"/>
		</g>
		<g>
			<path class="st6" d="M107,24.4H96.3v39.2v-22c0-7,4.3-13.3,10.8-16V24.4"/>
			<path class="st1" d="M113.5,24.4c-2.2,0-4.4,0.4-6.5,1.3v16c0-3.6,2.9-6.5,6.5-6.5s6.5,2.9,6.5,6.5v22h10.8v-22
				C130.7,32.1,123,24.4,113.5,24.4"/>
			<path class="st14" d="M107,25.7c-6.5,2.6-10.8,9-10.8,16v22H107V25.7"/>
		</g>
		<g>
			<polyline class="st9" points="179.3,24.4 167.7,24.4 157.3,49.6 163.1,63.7 151.4,63.7 163.1,63.7 179.3,24.4 			"/>
			<polyline class="st4" points="146.9,24.4 135.2,24.4 151.4,63.7 157.3,49.6 146.9,24.4 			"/>
			<polyline class="st19" points="157.3,49.6 151.4,63.7 163.1,63.7 157.3,49.6 			"/>
		</g>
		<g>
			<path class="st9" d="M200.2,24.5c-10.8,0-19.6,8.8-19.6,19.6c0,11,8.9,19.6,20.2,19.6c5.8,0,10.5-1.9,15.7-6.2l-7-8.2
				c-3.2,2.7-5.7,3.5-8.9,3.5c-1.6,0.1-3.2-0.4-4.5-1.2l-0.4,0.1l-10.9,4.5c-2-2.6-3.4-5.6-3.9-8.8l11.1-4.6v0c0.3-3,2.2-5.6,5-6.8
				c1-0.4,2-0.6,3.1-0.6c1.9,0,3.7,0.6,5.2,1.8c0.1,0,0.1,0.1,0.2,0.1l10.8-4.5c0.7,1,1.4,2.2,1.9,3.3C215,29,208,24.4,200.2,24.5
				 M218.1,36.1L218.1,36.1L218.1,36.1 M218.2,36.2L218.2,36.2L218.2,36.2 M218.2,36.2L218.2,36.2L218.2,36.2 M218.3,36.3
				L218.3,36.3L218.3,36.3 M220.4,41.4l-10.9,4.5L220.4,41.4"/>
			<path class="st6" d="M218.1,36L218.1,36L218.1,36 M218.1,36.1L218.1,36.1L218.1,36.1 M218.2,36.2L218.2,36.2L218.2,36.2
				 M218.2,36.3L218.2,36.3L218.2,36.3 M218.3,36.3L218.3,36.3l2.1,5.1L218.3,36.3L218.3,36.3 M205.4,37.2l-6.7,2.8l-6.4,2.6
				l-0.4,0.2c-0.5,4.6,1.8,7.1,3.8,8.5c0.1,0.1,0.2,0.2,0.3,0.2l12-5l1.5-0.6C209.5,45.9,208.3,39.8,205.4,37.2"/>
			<path class="st10" d="M216.2,32.7l-10.8,4.5c2.9,2.6,4.1,8.7,4.2,8.7l10.9-4.5l-2.1-5l0-0.1l0,0l0-0.1l0,0l0-0.1l0,0l0-0.1l0,0
				l0,0C217.6,34.9,217,33.8,216.2,32.7 M192,42.7l-11.1,4.6c0.5,3.2,1.9,6.3,3.9,8.8l10.9-4.5l0.4-0.1c-0.1-0.1-0.2-0.1-0.3-0.2
				C193.8,49.8,191.4,47.3,192,42.7"/>
		</g>
		<g>
			<path class="st6" d="M236.6,24.4h-10.8v39.2V39c0-6.6,4.4-12.4,10.8-14.1V24.4"/>
			<path class="st4" d="M240.4,24.4c-1.3,0-2.6,0.2-3.8,0.5V39c0-1.5,0.9-2.9,2.4-3.5c1.4-0.6,3.1-0.3,4.2,0.8l7.6-7.6
				C248,26,244.3,24.4,240.4,24.4"/>
			<path class="st7" d="M236.6,24.9c-6.4,1.7-10.8,7.5-10.8,14.1v24.6h10.8V24.9"/>
		</g>
	</g>
</g>
<g id="Chicago" class="st11">
	<g class="st12">
		<g>
			<path class="st9" d="M22.8,1.2c-11.4,0-20.7,9.3-20.7,20.7v20.9c0,11.4,9.3,20.7,20.7,20.7s20.7-9.3,20.7-20.7H32.8
				c0,5.5-4.5,9.9-9.9,9.9c-5.5,0-9.9-4.5-9.9-9.9V21.9c0-5.5,4.5-9.9,9.9-9.9c5.5,0,9.9,4.5,9.9,9.9h10.8
				C43.5,10.5,34.3,1.2,22.8,1.2"/>
		</g>
		<g>
			<path class="st6" d="M68,24.5c-2.3,0-4.5,0.4-6.6,1.3v16.1c0-3.7,3-6.6,6.6-6.6c3.7,0,6.6,3,6.6,6.6v21.8h10.8V41.9
				C85.4,32.3,77.6,24.5,68,24.5"/>
			<path class="st4" d="M61.4,1.4H50.7v40.5c0-7,4.3-13.4,10.8-16.1V1.4"/>
			<path class="st7" d="M61.4,25.8c-6.5,2.7-10.8,9-10.8,16.1v21.8h10.8V41.9V25.8"/>
		</g>
		<g>
			<polyline class="st4" points="103.3,24.5 92.5,24.5 92.5,63.7 103.3,63.7 103.3,24.5 			"/>
			<polyline class="st3" points="103.3,1.5 92.5,1.5 92.5,12.9 103.3,12.9 103.3,1.5 			"/>
		</g>
		<g>
			<path class="st9" d="M129.1,24.3c-8.9,0-16.6,6-18.9,14.5s1.4,17.6,9.1,22.1s17.4,3.2,23.7-3.1l-7.6-7.6
				c-2.5,2.5-6.3,3.3-9.6,1.9c-3.3-1.4-5.5-4.6-5.5-8.2s2.2-6.8,5.5-8.2c3.3-1.4,7.1-0.6,9.6,1.9l7.6-7.6
				C139.3,26.4,134.3,24.3,129.1,24.3"/>
		</g>
		<g>
			<path class="st3" d="M184.5,24.5h-10.8v2.1c6.6,3.3,10.8,10.1,10.8,17.5V24.5 M184.5,44.1c0,7.4-4.2,14.2-10.8,17.5v2.1h10.8
				V44.1"/>
			<path class="st4" d="M164.9,24.5c-8.1,0-15.4,5-18.3,12.6s-0.9,16.1,5.1,21.6c6,5.4,14.8,6.6,22,3V44.1c0,3.6-2.2,6.8-5.5,8.2
				c-3.3,1.4-7.1,0.6-9.6-1.9c-2.5-2.5-3.3-6.3-1.9-9.6c1.4-3.3,4.6-5.5,8.2-5.5c4.9,0,8.8,4,8.8,8.8V26.6
				C171,25.2,167.9,24.4,164.9,24.5"/>
			<path class="st5" d="M173.7,26.6v17.5v17.5c6.6-3.3,10.8-10.1,10.8-17.5l0,0C184.5,36.7,180.3,29.9,173.7,26.6"/>
		</g>
		<g>
			<path class="st3" d="M210.3,24.5c-7.5,0-14.3,4.3-17.6,11c-3.3,6.7-2.5,14.7,2.1,20.6c2.3-2.1,5.3-3.2,8.3-3.2h7.1
				c-4.9,0-8.8-4-8.8-8.8s4-8.8,8.8-8.8c4.9,0,8.8,4,8.8,8.8l0,0V35c0-2.5,0.9-5,2.6-6.9C218.4,25.7,214.4,24.4,210.3,24.5"/>
			<path class="st4" d="M235.1,24.5h-5.4c-2.8,0-5.5,1.1-7.5,3.1c-0.2,0.2-0.4,0.4-0.5,0.6c5.2,3.7,8.2,9.6,8.2,15.9l0,0v-8.8h5.2
				V24.5 M229.1,49.6c-2.5,8.3-10.1,14-18.8,14l0,0C219,63.6,226.6,58,229.1,49.6 M194.8,56.1c-3.8,3.5-5.2,8.9-3.3,13.7
				c1.8,4.8,6.5,8,11.6,8h14.3c0.9,0,1.7,0.8,1.7,1.7s-0.8,1.7-1.7,1.7h-12.5V92h12.5c6.9,0,12.5-5.6,12.5-12.5
				c0-6.9-5.6-12.5-12.5-12.5h-14.3c-0.9,0-1.7-0.8-1.7-1.7c0-0.9,0.8-1.7,1.7-1.7h7.1C204.2,63.7,198.5,60.9,194.8,56.1"/>
			<path class="st5" d="M221.7,28.1c-1.7,1.9-2.6,4.4-2.6,6.9v9.1c0,4.9-4,8.8-8.8,8.8h-7.1c-3.1,0-6,1.1-8.3,3.2
				c3.7,4.8,9.4,7.6,15.5,7.6l0,0c8.5,0,16.1-5.5,18.7-13.6C231.6,41.9,228.6,33.1,221.7,28.1"/>
		</g>
		<g>
			<path class="st0" d="M259.1,24.4c-7.9,0-15.1,4.8-18.1,12.1c-3,7.3-1.4,15.8,4.2,21.4s14,7.3,21.4,4.2c7.3-3,12.1-10.2,12.1-18.1
				C278.7,33.2,269.9,24.4,259.1,24.4 M259.1,52.9c-3.6,0-6.8-2.2-8.2-5.5c-1.4-3.3-0.6-7.1,1.9-9.6c2.5-2.5,6.3-3.3,9.6-1.9
				c3.3,1.4,5.5,4.6,5.5,8.2C267.9,48.9,264,52.9,259.1,52.9"/>
		</g>
	</g>
</g>
<g id="Boston" class="st11">
	<g class="st12">
		<g>
			<path class="st0" d="M38.5,29.6c-3.4,5.1-9.1,8.2-15.3,8.2h6c4.1,0,7.5,3.4,7.5,7.5s-3.4,7.5-7.5,7.5H15.8v10.8H5h24.2
				c8.2,0,15.4-5.5,17.6-13.4S45.6,33.8,38.5,29.6"/>
			<path class="st4" d="M0.3,1.3L0.3,1.3v10.8H5v15h10.8v-15H0.3L0.3,1.3 M15.8,37.9H5v15h10.8V37.9"/>
			<polyline class="st16" points="15.8,52.8 5,52.8 5,63.6 15.8,63.6 15.8,52.8 			"/>
			<path class="st6" d="M23.3,1.3H5.7c5.6,0,10.1,4.5,10.1,10.1v0.7h7.5c2.7,0,5.2,1.4,6.5,3.7c1.4,2.3,1.4,5.2,0,7.5
				c-1.4,2.3-3.8,3.7-6.5,3.7h6c3.3,0,6.5,0.9,9.3,2.5c3.7-5.6,4-12.8,0.8-18.7C36.1,5,30,1.3,23.3,1.3"/>
			<path class="st17" d="M29.2,27.1H15.8v10.8h7.5c6.1,0,11.9-3.1,15.3-8.2C35.7,28,32.5,27.1,29.2,27.1"/>
			<path class="st7" d="M5.7,1.3H0.3v10.8h15.5v-0.7C15.8,5.9,11.3,1.3,5.7,1.3"/>
			<polyline class="st18" points="15.8,27.1 5,27.1 5,37.9 15.8,37.9 15.8,27.1 			"/>
		</g>
		<g>
			<path class="st0" d="M73.3,24.4c-7.9,0-15.1,4.8-18.1,12.1c-3,7.3-1.4,15.8,4.2,21.4s14,7.3,21.4,4.2c7.3-3,12.1-10.2,12.1-18.1
				C92.9,33.2,84.1,24.4,73.3,24.4 M73.3,52.9c-3.6,0-6.8-2.2-8.2-5.5c-1.4-3.3-0.6-7.1,1.9-9.6c2.5-2.5,6.3-3.3,9.6-1.9
				c3.3,1.4,5.5,4.6,5.5,8.2C82.1,48.9,78.2,52.9,73.3,52.9"/>
		</g>
		<g>
			<path class="st3" d="M125.6,24.4h-15.3c-6.9,0-12.5,5.6-12.5,12.5s5.6,12.5,12.5,12.5h6.4c0.9,0,1.7,0.8,1.7,1.7
				c0,0.9-0.8,1.7-1.7,1.7h-15.3v10.8h15.5c6.9-0.1,12.4-5.7,12.3-12.6s-5.6-12.4-12.5-12.4h-6.4c-1,0-1.7-0.8-1.7-1.7
				c0-1,0.8-1.7,1.7-1.7h15.3L125.6,24.4"/>
		</g>
		<g>
			<path class="st9" d="M147.1,1.3h-10.8v23.1h10.8V1.3 M147.1,35.2h-10.8v17.9c0,5.8,4.7,10.5,10.5,10.5h5.4V52.9h-5.2V35.2"/>
			<path class="st1" d="M152.3,24.4h-5.2v10.8h5.2V24.4 M136.4,24.4h-3.1v10.8h3.1V24.4"/>
			<polyline class="st15" points="147.1,24.4 136.4,24.4 136.4,35.2 147.1,35.2 147.1,24.4 			"/>
		</g>
		<g>
			<path class="st0" d="M177.2,24.4c-7.9,0-15.1,4.8-18.1,12.1c-3,7.3-1.4,15.8,4.2,21.4s14,7.3,21.4,4.2c7.3-3,12.1-10.2,12.1-18.1
				C196.8,33.2,188.1,24.4,177.2,24.4 M177.2,52.9c-3.6,0-6.8-2.2-8.2-5.5c-1.4-3.3-0.6-7.1,1.9-9.6c2.5-2.5,6.3-3.3,9.6-1.9
				c3.3,1.4,5.5,4.6,5.5,8.2C186.1,48.9,182.1,52.9,177.2,52.9"/>
		</g>
		<g>
			<path class="st6" d="M213.8,24.4h-10.8v39.2v-22c0-7,4.3-13.3,10.8-16V24.4"/>
			<path class="st1" d="M220.3,24.4c-2.2,0-4.4,0.4-6.5,1.3v16c0-3.6,2.9-6.5,6.5-6.5s6.5,2.9,6.5,6.5v22h10.8v-22
				C237.5,32.1,229.8,24.4,220.3,24.4"/>
			<path class="st14" d="M213.8,25.7c-6.5,2.6-10.8,9-10.8,16v22h10.8V25.7"/>
		</g>
	</g>
</g>
<g id="Austin" class="st11">
	<g class="st12">
		<g>
			<path class="st4" d="M22.8,1.3C11.4,1.4,2.1,10.6,2.1,22v41.6h10.8V41.5H2.1V30.7h10.8V22c0-5.5,4.4-9.9,9.9-9.9
				c5.5,0,9.9,4.4,9.9,9.9v8.7h10.8V22C43.5,10.6,34.2,1.4,22.8,1.3 M43.5,41.5H32.7v22.1h10.8V41.5"/>
			<polyline class="st3" points="32.7,30.7 12.9,30.7 12.9,41.5 32.7,41.5 32.7,30.7 			"/>
			<path class="st5" d="M43.5,30.7H32.7v10.8h10.8V30.7 M12.9,30.7H2.1v10.8h10.8V30.7"/>
		</g>
		<g>
			<path class="st1" d="M85,46.4c0,7-4.3,13.3-10.8,16v1.3H85L85,46.4"/>
			<path class="st6" d="M61.3,24.4H50.6v22c0,5.7,2.8,11.1,7.6,14.3c4.7,3.2,10.8,3.8,16.1,1.7v-16c0,3.6-2.9,6.5-6.5,6.5
				s-6.5-2.9-6.5-6.5L61.3,24.4"/>
			<path class="st14" d="M85,24.4H74.2v22v16c6.5-2.6,10.8-9,10.8-16L85,24.4"/>
		</g>
		<g>
			<path class="st3" d="M118.6,24.4h-15.3c-6.9,0-12.5,5.6-12.5,12.5s5.6,12.5,12.5,12.5h6.4c0.9,0,1.7,0.8,1.7,1.7
				c0,0.9-0.8,1.7-1.7,1.7H94.5v10.8h15.5c6.9-0.1,12.4-5.7,12.3-12.6s-5.6-12.4-12.5-12.4h-6.4c-1,0-1.7-0.8-1.7-1.7
				c0-1,0.8-1.7,1.7-1.7h15.3L118.6,24.4"/>
		</g>
		<g>
			<path class="st9" d="M140.2,1.3h-10.8v23.1h10.8V1.3 M140.2,35.2h-10.8v17.9c0,5.8,4.7,10.5,10.5,10.5h5.4V52.9h-5.2V35.2"/>
			<path class="st1" d="M145.3,24.4h-5.2v10.8h5.2V24.4 M129.4,24.4h-3.1v10.8h3.1V24.4"/>
			<polyline class="st15" points="140.2,24.4 129.4,24.4 129.4,35.2 140.2,35.2 140.2,24.4 			"/>
		</g>
		<g>
			<polyline class="st4" points="162.4,24.5 151.6,24.5 151.6,63.7 162.4,63.7 162.4,24.5 			"/>
			<polyline class="st3" points="162.4,1.5 151.6,1.5 151.6,12.9 162.4,12.9 162.4,1.5 			"/>
		</g>
		<g>
			<path class="st6" d="M180.3,24.4h-10.8v39.2v-22c0-7,4.3-13.3,10.8-16V24.4"/>
			<path class="st1" d="M186.7,24.4c-2.2,0-4.4,0.4-6.5,1.3v16c0-3.6,2.9-6.5,6.5-6.5s6.5,2.9,6.5,6.5v22h10.8v-22
				C203.9,32.1,196.2,24.4,186.7,24.4"/>
			<path class="st14" d="M180.3,25.7c-6.5,2.6-10.8,9-10.8,16v22h10.8V25.7"/>
		</g>
	</g>
</g>
<g id="Atlanta" class="st11">
	<g class="st12">
		<g>
			<path class="st4" d="M22.8,1.3C11.4,1.4,2.1,10.6,2.1,22v41.6h10.8V41.5H2.1V30.7h10.8V22c0-5.5,4.4-9.9,9.9-9.9
				c5.5,0,9.9,4.4,9.9,9.9v8.7h10.8V22C43.5,10.6,34.2,1.4,22.8,1.3 M43.5,41.5H32.7v22.1h10.8V41.5"/>
			<polyline class="st3" points="32.7,30.7 12.9,30.7 12.9,41.5 32.7,41.5 32.7,30.7 			"/>
			<path class="st5" d="M43.5,30.7H32.7v10.8h10.8V30.7 M12.9,30.7H2.1v10.8h10.8V30.7"/>
		</g>
		<g>
			<path class="st9" d="M62.7,1.3H51.9v23.1h10.8V1.3 M62.7,35.2H51.9v17.9c0,5.8,4.7,10.5,10.5,10.5h5.4V52.9h-5.2V35.2"/>
			<path class="st1" d="M67.8,24.4h-5.2v10.8h5.2V24.4 M51.9,24.4h-3.1v10.8h3.1V24.4"/>
			<polyline class="st15" points="62.7,24.4 51.9,24.4 51.9,35.2 62.7,35.2 62.7,24.4 			"/>
		</g>
		<g>
			<polyline class="st4" points="84.9,1.4 74.1,1.4 74.1,63.7 84.9,63.7 84.9,1.4 			"/>
		</g>
		<g>
			<path class="st3" d="M130.3,24.5h-10.8v2.1c6.6,3.3,10.8,10.1,10.8,17.5V24.5 M130.3,44.1c0,7.4-4.2,14.2-10.8,17.5v2.1h10.8
				V44.1"/>
			<path class="st4" d="M110.7,24.5c-8.1,0-15.4,5-18.3,12.6s-0.9,16.1,5.1,21.6c6,5.4,14.8,6.6,22,3V44.1c0,3.6-2.2,6.8-5.5,8.2
				c-3.3,1.4-7.1,0.6-9.6-1.9c-2.5-2.5-3.3-6.3-1.9-9.6c1.4-3.3,4.6-5.5,8.2-5.5c4.9,0,8.8,4,8.8,8.8V26.6
				C116.8,25.2,113.8,24.4,110.7,24.5"/>
			<path class="st5" d="M119.5,26.6v17.5v17.5c6.6-3.3,10.8-10.1,10.8-17.5l0,0C130.3,36.7,126.1,29.9,119.5,26.6"/>
		</g>
		<g>
			<path class="st6" d="M148.2,24.4h-10.8v39.2v-22c0-7,4.3-13.3,10.8-16V24.4"/>
			<path class="st1" d="M154.6,24.4c-2.2,0-4.4,0.4-6.5,1.3v16c0-3.6,2.9-6.5,6.5-6.5s6.5,2.9,6.5,6.5v22h10.8v-22
				C171.9,32.1,164.2,24.4,154.6,24.4"/>
			<path class="st14" d="M148.2,25.7c-6.5,2.6-10.8,9-10.8,16v22h10.8V25.7"/>
		</g>
		<g>
			<path class="st9" d="M191.1,1.3h-10.8v23.1h10.8V1.3 M191.1,35.2h-10.8v17.9c0,5.8,4.7,10.5,10.5,10.5h5.4V52.9h-5.2V35.2"/>
			<path class="st1" d="M196.3,24.4h-5.2v10.8h5.2V24.4 M180.4,24.4h-3.1v10.8h3.1V24.4"/>
			<polyline class="st15" points="191.1,24.4 180.4,24.4 180.4,35.2 191.1,35.2 191.1,24.4 			"/>
		</g>
		<g>
			<path class="st3" d="M240.9,24.5h-10.8v2.1c6.6,3.3,10.8,10.1,10.8,17.5V24.5 M240.9,44.1c0,7.4-4.2,14.2-10.8,17.5v2.1h10.8
				V44.1"/>
			<path class="st4" d="M221.3,24.5c-8.1,0-15.4,5-18.3,12.6s-0.9,16.1,5.1,21.6c6,5.4,14.8,6.6,22,3V44.1c0,3.6-2.2,6.8-5.5,8.2
				c-3.3,1.4-7.1,0.6-9.6-1.9c-2.5-2.5-3.3-6.3-1.9-9.6c1.4-3.3,4.6-5.5,8.2-5.5c4.9,0,8.8,4,8.8,8.8V26.6
				C227.3,25.2,224.3,24.4,221.3,24.5"/>
			<path class="st5" d="M230.1,26.6v17.5v17.5c6.6-3.3,10.8-10.1,10.8-17.5l0,0C240.9,36.7,236.7,29.9,230.1,26.6"/>
		</g>
	</g>
</g>
</svg>
