<?xml version="1.0" encoding="utf-8"?>
<!-- Generator: Adobe Illustrator 22.1.0, SVG Export Plug-In . SVG Version: 6.00 Build 0)  -->
<svg version="1.1" id="Layer_1" xmlns="http://www.w3.org/2000/svg" xmlns:xlink="http://www.w3.org/1999/xlink" x="0px" y="0px"
	 viewBox="0 0 800 186.7" style="enable-background:new 0 0 800 186.7;" xml:space="preserve">
<style type="text/css">
	.st0{fill:#F36C21;}
	.st1{fill:#C64A9B;}
	.st2{fill:#00B3E2;}
	.st3{fill:#273A92;}
	.st4{fill:#D82126;}
	.st5{fill:#EF473E;}
	.st6{fill:#022F32;}
	.st7{fill:#FFC843;}
	.st8{fill:#46B978;}
	.st9{fill:#15A24A;}
	.st10{fill:#0E2616;}
</style>
<g>
	<g>
		<polyline class="st7" points="-0.2,3.4 -0.2,3.4 -0.2,26.5 9.8,26.5 9.8,137 32.9,137 32.9,81.8 9.8,81.8 9.8,58.7 32.9,58.7 
			32.9,26.5 -0.2,26.5 -0.2,3.4 		"/>
		<path class="st8" d="M49,3.4H11.3c11.9,0,21.6,9.7,21.6,21.6v1.5H49c8.9,0,16.1,7.2,16.1,16.1S57.8,58.7,49,58.7H32.9v23.1H49
			c21.6,0,39.2-17.5,39.2-39.2S70.6,3.4,49,3.4"/>
		<path class="st9" d="M11.3,3.4H-0.2v23.1h33.1V25C32.9,13.1,23.2,3.4,11.3,3.4 M32.9,58.7H9.8v23.1h23.1V58.7"/>
	</g>
	<g>
		<path class="st5" d="M170.3,53.2h-23.1v4.5c14.2,7.2,23.1,21.7,23.1,37.5V53.2 M170.3,95.2c0,15.9-8.9,30.4-23.1,37.5v4.5h23.1
			V95.2"/>
		<path class="st2" d="M128.3,53.2c-17.4,0-33,10.7-39.2,26.9s-1.9,34.6,11,46.3c12.9,11.7,31.6,14.2,47.1,6.4V95.2
			c0,7.7-4.6,14.6-11.7,17.5c-7.1,2.9-15.2,1.3-20.6-4.1c-5.4-5.4-7-13.6-4.1-20.6c2.9-7.1,9.8-11.7,17.5-11.7
			c10.4,0,18.9,8.5,18.9,18.9V57.7C141.4,54.7,134.9,53.2,128.3,53.2"/>
		<path class="st6" d="M147.2,57.7v37.5v37.5c14.2-7.2,23.1-21.7,23.1-37.5l0,0C170.3,79.3,161.4,64.8,147.2,57.7"/>
	</g>
	<g>
		<path class="st1" d="M208.7,53.1h-23.1v84.1V84.4c0-14.1,9.5-26.5,23.1-30.2V53.1"/>
		<path class="st2" d="M216.8,53.1c-2.8,0-5.5,0.4-8.2,1.1v30.2c0-3.3,2-6.3,5.1-7.6c3.1-1.3,6.6-0.6,8.9,1.8L239,62.3
			C233.1,56.4,225.1,53.1,216.8,53.1"/>
		<path class="st3" d="M208.7,54.2c-13.6,3.7-23.1,16.1-23.1,30.2v52.8h23.1V54.2"/>
	</g>
	<g>
		<path class="st5" d="M310.2,87.3c-6.5,7.3-15.8,11.6-25.6,11.5c-6.1,0-11,4.9-11,11l0,0c0-4,2-7.6,5.5-9.6c3.4-2,7.7-2,11.1,0
			c3.4,2,5.5,5.7,5.5,9.6v27.4h23.1v-27.4C318.7,101.6,315.7,93.6,310.2,87.3"/>
		<path class="st2" d="M318.7,53.2h-23.1v11.5c0,6.1-4.9,11-11,11c-3.7,0-7.5,0.6-11,1.8l0,0c13-4.4,27.5-0.6,36.6,9.7
			c5.5-6.2,8.6-14.2,8.5-22.6L318.7,53.2"/>
		<path class="st6" d="M284.6,75.8c-3.7,0-7.5,0.6-11,1.8v32.3c0-6.1,4.9-11,11-11c9.8,0,19.1-4.2,25.6-11.5
			C303.7,80,294.4,75.8,284.6,75.8"/>
		<path class="st7" d="M273.6,3.6h-23.1v106.3c0-14.6,9.3-27.6,23.1-32.3V3.6"/>
		<path class="st10" d="M273.6,77.6c-13.8,4.7-23.1,17.7-23.1,32.3v27.4h23.1v-27.4V77.6"/>
	</g>
	<g>
		<path class="st5" d="M429.3,0c-22.2,0-39.6,15.9-40.6,36.9c-0.6,13.6,5.3,32,36.7,42.8c21.4,7.3,21,16.5,20.9,19.5
			c-0.4,8.4-7.5,14.4-17.1,14.4c-11.5,0-16-5.7-17.8-10.4l-22,8.3c2.3,6,11.9,25.6,39.8,25.6c22.2,0,39.6-15.9,40.6-36.9
			c0.6-13.6-5.3-32-36.7-42.8c-21.4-7.3-21-16.5-20.9-19.5c0.4-8.4,7.5-14.4,17.1-14.4c11.5,0,16,5.7,17.8,10.4l22-8.3
			C466.9,19.6,457.3,0,429.3,0"/>
	</g>
	<g>
		<polyline class="st2" points="508.3,3.7 485.2,3.7 485.2,137.3 508.3,137.3 508.3,3.7 		"/>
	</g>
	<g>
		<path class="st7" d="M563.7,53.1c-17,0-32.3,10.2-38.8,25.9c-6.5,15.7-2.9,33.8,9.1,45.8c12,12,30.1,15.6,45.8,9.1
			c15.7-6.5,25.9-21.8,25.9-38.8C605.6,71.9,586.8,53.1,563.7,53.1 M563.7,114.1c-7.7,0-14.6-4.6-17.5-11.7
			c-2.9-7.1-1.3-15.2,4.1-20.6c5.4-5.4,13.6-7,20.6-4.1c7.1,2.9,11.7,9.8,11.7,17.5C582.6,105.6,574.1,114.1,563.7,114.1"/>
	</g>
	<g>
		<path class="st8" d="M661,53.1c-6.6,0-13.1,1.5-18.9,4.5v37.5c0-10.5,8.5-18.9,18.9-18.9c10.5,0,18.9,8.5,18.9,18.9
			c0,10.5-8.5,18.9-18.9,18.9c-10.4,0-18.9-8.5-18.9-18.9v37.5c15.5,7.8,34.2,5.3,47.1-6.4c12.9-11.7,17.3-30,11-46.3
			C694,63.8,678.4,53.1,661,53.1"/>
		<path class="st7" d="M642.1,53.1H619v42c0-15.9,8.9-30.4,23.1-37.5V53.1 M619,95.1v91.6h23.1v-54.1C628,125.5,619,111,619,95.1"/>
		<path class="st9" d="M642.1,57.6C628,64.8,619,79.3,619,95.1l0,0c0,15.9,8.9,30.4,23.1,37.5V95.1V57.6"/>
	</g>
	<g>
		<path class="st0" d="M756.5,53.2c-23.2,0-42,18.8-42,42c0,23.6,19,42,43.3,42c12.5,0,22.6-4,33.6-13.4l-15-17.6
			c-6.8,5.8-12.1,7.4-19.1,7.4c-3.4,0.1-6.8-0.8-9.7-2.6l-0.8,0.3l-23.4,9.7c-4.4-5.5-7.3-12-8.4-18.9l23.7-9.8v0
			c0.7-6.4,4.8-12,10.7-14.6c2.1-0.9,4.3-1.4,6.6-1.4c4,0,8,1.4,11.2,3.8c0.1,0.1,0.2,0.2,0.4,0.3l23.2-9.6c1.6,2.2,3,4.6,4.1,7.1
			C788.1,62.9,773.1,53.2,756.5,53.2 M794.9,78.1L794.9,78.1L794.9,78.1 M795,78.3L795,78.3L795,78.3 M795.1,78.5L795.1,78.5
			L795.1,78.5 M795.1,78.6L795.1,78.6L795.1,78.6 M799.8,89.6l-23.3,9.6L799.8,89.6"/>
		<path class="st1" d="M794.9,78L794.9,78L794.9,78 M794.9,78.1l0,0.1L794.9,78.1 M795,78.3l0.1,0.2L795,78.3 M795.1,78.5l0.1,0.1
			L795.1,78.5 M795.2,78.7l0.1,0.2l4.5,10.7l-4.5-10.7L795.2,78.7 M767.6,80.4l-14.3,5.9L739.6,92l-0.8,0.3
			c-1.1,9.8,3.9,15.2,8.1,18.3c0.2,0.2,0.5,0.3,0.7,0.5l25.7-10.6l3.2-1.3C776.5,99.1,773.7,86.1,767.6,80.4"/>
		<path class="st4" d="M790.8,70.9l-23.2,9.6c6.1,5.6,8.9,18.7,8.9,18.7l23.3-9.6l-4.5-10.7l-0.1-0.2l0,0l-0.1-0.1l0,0l-0.1-0.2l0,0
			l0-0.1l0-0.1l0,0C793.7,75.5,792.4,73.1,790.8,70.9 M738.8,92.3l-23.7,9.8c1.1,6.9,4,13.4,8.4,18.9l23.4-9.7l0.8-0.3
			c-0.2-0.2-0.5-0.3-0.7-0.5C742.7,107.6,737.6,102.2,738.8,92.3"/>
	</g>
</g>
</svg>
